<svg id="svg" version="1.1" xmlns="http://www.w3.org/2000/svg" xmlns:xlink="http://www.w3.org/1999/xlink" width="400" height="429.3333333333333" viewBox="0, 0, 400,429.3333333333333"><g id="svgg"><path id="path0" d="M169.908 1.425 C 169.750 1.583,167.616 1.682,165.166 1.645 C 162.463 1.603,160.506 1.746,160.191 2.008 C 159.904 2.245,158.215 2.455,156.435 2.475 C 154.656 2.494,153.200 2.641,153.200 2.801 C 153.200 2.961,150.725 3.223,147.700 3.382 C 144.675 3.542,141.981 3.853,141.713 4.075 C 141.445 4.296,140.320 4.470,139.213 4.461 C 138.106 4.453,137.200 4.599,137.200 4.786 C 137.200 5.127,133.795 5.574,131.234 5.569 C 130.483 5.567,129.747 5.762,129.599 6.002 C 129.451 6.241,128.581 6.467,127.665 6.504 C 126.749 6.540,126.000 6.696,126.000 6.851 C 126.000 7.005,124.647 7.258,122.994 7.413 C 121.341 7.568,119.890 7.854,119.771 8.048 C 119.651 8.241,119.023 8.400,118.376 8.400 C 117.729 8.400,117.200 8.580,117.200 8.800 C 117.200 9.020,116.570 9.200,115.800 9.200 C 115.030 9.200,114.400 9.349,114.400 9.531 C 114.400 9.713,113.881 9.785,113.247 9.692 C 112.613 9.599,111.973 9.720,111.824 9.962 C 111.675 10.203,111.023 10.400,110.376 10.400 C 109.729 10.400,109.200 10.580,109.200 10.800 C 109.200 11.020,108.780 11.200,108.267 11.200 C 107.753 11.200,107.212 11.321,107.064 11.470 C 106.916 11.618,106.391 11.789,105.897 11.851 C 103.923 12.096,102.400 12.507,102.400 12.794 C 102.400 12.961,101.672 13.214,100.783 13.356 C 99.893 13.499,98.858 13.777,98.483 13.974 C 96.733 14.894,94.803 15.600,94.040 15.600 C 93.578 15.600,93.200 15.780,93.200 16.000 C 93.200 16.220,92.750 16.400,92.200 16.400 C 91.650 16.400,91.200 16.580,91.200 16.800 C 91.200 17.020,90.885 17.201,90.500 17.202 C 90.115 17.204,89.284 17.474,88.654 17.802 C 88.024 18.131,87.259 18.400,86.954 18.400 C 86.649 18.400,86.400 18.572,86.400 18.782 C 86.400 18.992,85.770 19.282,85.000 19.426 C 84.230 19.571,83.600 19.849,83.600 20.045 C 83.600 20.240,83.366 20.400,83.080 20.400 C 82.357 20.400,80.407 21.338,80.403 21.687 C 80.401 21.846,80.130 21.871,79.800 21.745 C 79.470 21.618,79.200 21.714,79.200 21.957 C 79.200 22.201,78.840 22.400,78.400 22.400 C 77.960 22.400,77.600 22.566,77.600 22.768 C 77.600 22.971,77.060 23.255,76.400 23.400 C 75.740 23.545,75.200 23.829,75.200 24.032 C 75.200 24.234,74.970 24.400,74.688 24.400 C 74.407 24.400,73.934 24.737,73.637 25.149 C 73.315 25.596,72.795 25.819,72.348 25.702 C 71.937 25.595,71.600 25.708,71.600 25.953 C 71.600 26.199,71.330 26.400,71.000 26.400 C 70.670 26.400,70.400 26.560,70.400 26.757 C 70.400 26.953,69.950 27.226,69.400 27.364 C 68.850 27.502,68.400 27.792,68.400 28.008 C 68.400 28.223,68.130 28.400,67.800 28.400 C 67.470 28.400,67.200 28.577,67.200 28.792 C 67.200 29.008,66.750 29.298,66.200 29.436 C 65.650 29.574,65.200 29.847,65.200 30.043 C 65.200 30.240,65.008 30.400,64.773 30.400 C 64.365 30.400,61.983 32.048,60.871 33.100 C 60.581 33.375,60.168 33.600,59.953 33.600 C 59.739 33.600,59.114 34.050,58.564 34.600 C 58.014 35.150,57.342 35.600,57.070 35.600 C 56.799 35.600,56.312 35.978,55.988 36.439 C 55.665 36.900,54.990 37.438,54.489 37.633 C 53.988 37.829,53.439 38.364,53.269 38.824 C 53.099 39.283,52.834 39.646,52.680 39.630 C 51.847 39.541,51.631 39.671,51.400 40.400 C 51.260 40.840,50.911 41.200,50.623 41.200 C 49.960 41.200,47.409 43.573,47.076 44.500 C 46.938 44.885,46.545 45.200,46.203 45.200 C 45.860 45.200,45.409 45.650,45.200 46.200 C 44.991 46.750,44.605 47.200,44.342 47.200 C 43.727 47.200,39.703 51.444,39.394 52.418 C 39.265 52.826,38.808 53.270,38.380 53.406 C 37.951 53.543,37.600 53.794,37.600 53.966 C 37.600 54.137,37.285 54.652,36.900 55.110 C 34.854 57.542,34.026 58.630,34.016 58.902 C 34.009 59.068,33.468 59.764,32.814 60.448 C 32.160 61.133,31.517 62.032,31.385 62.447 C 31.254 62.861,30.978 63.200,30.773 63.200 C 30.568 63.200,30.400 63.470,30.400 63.800 C 30.400 64.130,30.223 64.400,30.008 64.400 C 29.792 64.400,29.502 64.850,29.364 65.400 C 29.226 65.950,28.992 66.400,28.843 66.400 C 28.694 66.400,28.254 66.940,27.864 67.600 C 27.474 68.260,27.279 68.800,27.432 68.800 C 27.584 68.800,27.223 69.286,26.628 69.881 C 26.034 70.475,25.447 71.465,25.324 72.081 C 25.201 72.696,24.942 73.200,24.750 73.200 C 24.557 73.200,24.400 73.470,24.400 73.800 C 24.400 74.130,24.238 74.400,24.039 74.400 C 23.841 74.400,23.489 74.895,23.258 75.500 C 23.027 76.105,22.569 77.050,22.240 77.600 C 21.025 79.631,19.200 83.941,19.200 84.781 C 19.200 85.257,19.020 85.536,18.800 85.400 C 18.580 85.264,18.400 85.433,18.400 85.776 C 18.400 86.119,18.243 86.400,18.051 86.400 C 17.859 86.400,17.587 87.120,17.446 88.000 C 17.306 88.880,17.013 89.600,16.795 89.600 C 16.578 89.600,16.400 90.050,16.400 90.600 C 16.400 91.150,16.231 91.600,16.025 91.600 C 15.818 91.600,15.528 92.410,15.379 93.400 C 15.231 94.390,14.950 95.200,14.755 95.200 C 14.560 95.200,14.400 95.650,14.400 96.200 C 14.400 96.750,14.199 97.200,13.953 97.200 C 13.693 97.200,13.586 97.616,13.698 98.200 C 13.803 98.750,13.734 99.200,13.545 99.200 C 13.355 99.200,13.200 99.650,13.200 100.200 C 13.200 100.750,13.020 101.200,12.800 101.200 C 12.580 101.200,12.400 101.639,12.400 102.176 C 12.400 102.713,12.233 103.256,12.028 103.383 C 11.823 103.509,11.532 104.602,11.381 105.812 C 11.230 107.021,10.948 108.109,10.753 108.229 C 10.559 108.349,10.400 108.876,10.400 109.400 C 10.400 109.924,10.203 110.475,9.962 110.623 C 9.722 110.772,9.607 111.327,9.709 111.856 C 9.810 112.386,9.737 112.915,9.546 113.033 C 9.356 113.151,9.200 113.957,9.200 114.824 C 9.200 115.691,9.020 116.400,8.800 116.400 C 8.580 116.400,8.400 117.019,8.400 117.776 C 8.400 118.533,8.203 119.275,7.962 119.424 C 7.721 119.573,7.595 120.303,7.681 121.047 C 7.768 121.791,7.696 122.400,7.520 122.400 C 7.344 122.400,7.200 123.300,7.200 124.400 C 7.200 125.500,7.020 126.400,6.800 126.400 C 6.580 126.400,6.400 127.300,6.400 128.400 C 6.400 129.500,6.217 130.400,5.994 130.400 C 5.770 130.400,5.605 130.895,5.626 131.500 C 5.700 133.597,5.080 139.600,4.789 139.600 C 4.628 139.600,4.484 140.875,4.470 142.433 C 4.455 143.991,4.259 145.487,4.035 145.758 C 3.810 146.029,3.610 147.499,3.591 149.025 C 3.499 156.179,3.089 163.200,2.762 163.200 C 2.555 163.200,2.400 167.740,2.400 173.776 C 2.400 180.396,2.250 184.445,2.000 184.600 C 1.454 184.937,1.448 243.482,1.993 243.667 C 2.234 243.748,2.398 247.286,2.417 252.788 C 2.434 257.731,2.615 261.977,2.820 262.224 C 3.025 262.471,3.209 264.772,3.229 267.337 C 3.249 269.902,3.385 272.000,3.533 272.000 C 3.680 271.999,3.750 273.529,3.690 275.400 C 3.621 277.527,3.733 278.800,3.990 278.800 C 4.230 278.800,4.400 279.929,4.400 281.520 C 4.400 283.016,4.565 284.411,4.766 284.620 C 5.143 285.011,5.658 289.452,5.632 292.082 C 5.624 292.897,5.793 293.672,6.009 293.805 C 6.224 293.938,6.400 294.836,6.400 295.800 C 6.400 296.764,6.558 297.651,6.752 297.770 C 6.946 297.890,7.232 299.521,7.388 301.394 C 7.544 303.267,7.836 304.800,8.036 304.800 C 8.236 304.800,8.400 305.430,8.400 306.200 C 8.400 306.970,8.557 307.600,8.748 307.600 C 8.940 307.600,9.220 308.856,9.372 310.391 C 9.523 311.926,9.816 313.286,10.023 313.414 C 10.230 313.542,10.400 314.177,10.400 314.824 C 10.400 315.471,10.560 316.000,10.756 316.000 C 11.087 316.000,11.582 318.093,11.630 319.692 C 11.642 320.073,11.819 320.488,12.025 320.616 C 12.231 320.743,12.400 321.287,12.400 321.824 C 12.400 322.361,12.560 322.800,12.755 322.800 C 13.072 322.800,13.522 324.377,13.667 326.000 C 13.697 326.330,13.883 326.706,14.081 326.836 C 14.278 326.966,14.469 327.461,14.505 327.936 C 14.541 328.411,14.692 328.800,14.840 328.800 C 14.988 328.800,15.235 329.638,15.388 330.662 C 15.542 331.687,15.924 332.781,16.238 333.095 C 16.551 333.408,16.713 333.818,16.597 334.005 C 16.482 334.192,16.570 334.458,16.793 334.596 C 17.017 334.734,17.201 335.152,17.202 335.524 C 17.204 335.896,17.474 336.716,17.802 337.346 C 18.131 337.976,18.400 338.741,18.400 339.046 C 18.400 339.351,18.572 339.600,18.782 339.600 C 18.992 339.600,19.282 340.230,19.426 341.000 C 19.571 341.770,19.849 342.400,20.045 342.400 C 20.240 342.400,20.400 342.760,20.400 343.200 C 20.400 343.640,20.560 344.000,20.755 344.000 C 20.951 344.000,21.229 344.630,21.374 345.400 C 21.518 346.170,21.766 346.800,21.924 346.800 C 22.232 346.800,23.600 349.741,23.600 350.403 C 23.600 350.621,23.780 350.800,24.000 350.800 C 24.220 350.800,24.400 351.070,24.400 351.400 C 24.400 351.730,24.553 352.000,24.740 352.000 C 24.927 352.000,25.413 352.810,25.822 353.800 C 26.230 354.790,26.688 355.600,26.839 355.600 C 26.990 355.600,27.226 356.050,27.364 356.600 C 27.502 357.150,27.792 357.600,28.008 357.600 C 28.223 357.600,28.400 357.870,28.400 358.200 C 28.400 358.530,28.560 358.800,28.757 358.800 C 28.953 358.800,29.226 359.250,29.364 359.800 C 29.502 360.350,29.792 360.800,30.008 360.800 C 30.223 360.800,30.400 361.070,30.400 361.400 C 30.400 361.730,30.568 362.000,30.773 362.000 C 30.978 362.000,31.274 362.405,31.430 362.900 C 31.587 363.395,32.049 364.091,32.457 364.447 C 32.866 364.803,33.200 365.270,33.200 365.486 C 33.200 366.247,34.708 367.669,34.930 367.116 C 35.044 366.832,35.151 367.093,35.168 367.697 C 35.188 368.364,35.669 369.241,36.400 369.940 C 37.060 370.571,37.600 371.292,37.600 371.543 C 37.600 371.794,37.900 372.000,38.267 372.000 C 38.633 372.000,38.822 372.111,38.686 372.248 C 38.550 372.384,38.655 372.732,38.919 373.021 C 39.184 373.311,39.850 374.095,40.400 374.764 C 42.669 377.524,44.702 379.565,44.943 379.324 C 45.084 379.182,45.200 379.327,45.200 379.644 C 45.200 380.315,46.620 381.647,46.966 381.300 C 47.095 381.172,47.200 381.302,47.200 381.590 C 47.200 382.192,49.649 384.649,50.100 384.500 C 50.265 384.445,50.400 384.594,50.400 384.831 C 50.400 385.386,52.260 387.239,53.800 388.218 C 54.460 388.638,55.146 389.214,55.325 389.499 C 55.503 389.784,55.823 389.910,56.034 389.779 C 56.246 389.648,56.370 389.750,56.310 390.005 C 56.249 390.261,56.827 390.814,57.594 391.235 C 58.360 391.656,58.831 392.000,58.640 392.000 C 58.449 392.000,58.750 392.360,59.309 392.800 C 59.869 393.240,60.441 393.600,60.582 393.600 C 60.723 393.600,61.236 394.005,61.722 394.500 C 62.613 395.407,63.694 396.173,64.800 396.680 C 65.130 396.831,65.640 397.192,65.932 397.481 C 66.225 397.771,66.658 397.888,66.894 397.742 C 67.149 397.585,67.207 397.664,67.038 397.938 C 66.881 398.192,66.931 398.400,67.148 398.400 C 67.365 398.400,67.788 398.625,68.088 398.900 C 68.885 399.630,70.099 400.389,70.900 400.658 C 71.285 400.788,71.600 401.052,71.600 401.247 C 71.600 401.441,71.941 401.600,72.357 401.600 C 72.774 401.600,73.218 401.870,73.345 402.200 C 73.471 402.530,73.941 402.800,74.387 402.800 C 74.834 402.800,75.200 402.980,75.200 403.200 C 75.200 403.420,75.455 403.600,75.767 403.600 C 76.078 403.600,76.393 403.735,76.467 403.900 C 76.540 404.065,77.860 404.830,79.400 405.600 C 80.940 406.370,82.290 407.095,82.400 407.211 C 82.583 407.404,83.391 407.758,87.100 409.266 C 87.815 409.557,88.400 409.923,88.400 410.080 C 88.400 410.236,89.032 410.482,89.804 410.627 C 90.577 410.772,91.307 411.050,91.428 411.245 C 91.549 411.440,91.997 411.600,92.424 411.600 C 92.851 411.600,93.200 411.778,93.200 411.995 C 93.200 412.213,93.920 412.506,94.800 412.646 C 95.680 412.787,96.400 413.059,96.400 413.251 C 96.400 413.443,96.649 413.600,96.954 413.600 C 97.259 413.600,98.024 413.869,98.654 414.198 C 99.284 414.526,100.205 414.796,100.700 414.798 C 101.195 414.799,101.600 414.980,101.600 415.200 C 101.600 415.420,102.039 415.600,102.576 415.600 C 103.113 415.600,103.654 415.764,103.778 415.965 C 103.903 416.166,104.768 416.456,105.702 416.610 C 106.636 416.764,107.629 417.076,107.910 417.302 C 108.190 417.529,108.536 417.598,108.678 417.456 C 108.820 417.313,109.314 417.445,109.777 417.748 C 110.239 418.051,111.424 418.432,112.409 418.595 C 113.394 418.757,114.423 419.070,114.695 419.290 C 114.967 419.510,115.445 419.592,115.756 419.472 C 116.067 419.353,116.655 419.504,117.061 419.810 C 117.468 420.115,118.835 420.485,120.100 420.634 C 121.365 420.782,122.400 421.042,122.400 421.212 C 122.400 421.381,123.035 421.520,123.811 421.520 C 124.587 421.520,125.455 421.714,125.741 421.951 C 126.026 422.188,127.557 422.502,129.142 422.649 C 130.728 422.797,132.120 423.071,132.236 423.259 C 132.352 423.446,133.121 423.600,133.944 423.600 C 134.767 423.600,135.611 423.763,135.820 423.961 C 136.029 424.160,137.820 424.445,139.799 424.595 C 141.779 424.744,143.580 425.017,143.802 425.201 C 144.023 425.385,145.237 425.527,146.498 425.515 C 147.759 425.504,149.029 425.692,149.319 425.933 C 149.613 426.177,152.409 426.481,155.621 426.619 C 158.797 426.756,161.486 427.010,161.597 427.183 C 161.709 427.357,163.741 427.519,166.114 427.543 C 168.487 427.567,170.771 427.770,171.188 427.994 C 172.276 428.576,228.171 428.551,229.261 427.967 C 229.712 427.726,231.999 427.550,234.435 427.569 C 236.836 427.588,238.800 427.448,238.800 427.258 C 238.800 427.068,241.545 426.783,244.900 426.626 C 248.255 426.469,251.171 426.174,251.380 425.970 C 251.589 425.767,252.793 425.600,254.056 425.600 C 255.319 425.600,256.451 425.442,256.570 425.248 C 256.690 425.054,258.513 424.767,260.622 424.609 C 262.948 424.434,264.526 424.136,264.636 423.851 C 264.747 423.561,265.430 423.439,266.416 423.533 C 267.295 423.617,268.257 423.484,268.553 423.239 C 268.849 422.993,270.331 422.693,271.846 422.573 C 273.361 422.452,274.660 422.184,274.733 421.977 C 274.807 421.770,275.561 421.600,276.410 421.600 C 277.258 421.600,278.053 421.438,278.176 421.239 C 278.298 421.041,279.479 420.753,280.800 420.600 C 282.121 420.447,283.302 420.159,283.424 419.961 C 283.547 419.762,284.166 419.600,284.800 419.600 C 285.434 419.600,286.054 419.437,286.177 419.237 C 286.300 419.038,287.300 418.751,288.400 418.600 C 289.500 418.449,290.500 418.162,290.623 417.963 C 290.746 417.763,291.287 417.600,291.824 417.600 C 292.361 417.600,292.800 417.437,292.800 417.238 C 292.800 417.038,293.700 416.751,294.800 416.600 C 295.900 416.449,296.800 416.162,296.800 415.962 C 296.800 415.763,297.250 415.600,297.800 415.600 C 298.350 415.600,298.800 415.441,298.800 415.247 C 298.800 414.798,300.335 414.300,301.462 414.383 C 301.936 414.419,302.441 414.257,302.585 414.024 C 302.729 413.791,303.197 413.600,303.624 413.600 C 304.051 413.600,304.400 413.443,304.400 413.251 C 304.400 413.059,305.128 412.786,306.019 412.643 C 306.923 412.499,307.531 412.211,307.395 411.992 C 307.257 411.769,307.679 411.600,308.376 411.600 C 309.049 411.600,309.600 411.428,309.600 411.218 C 309.600 411.008,310.230 410.718,311.000 410.574 C 311.770 410.429,312.400 410.151,312.400 409.955 C 312.400 409.760,312.636 409.600,312.925 409.600 C 313.642 409.600,316.690 408.102,317.002 407.596 C 317.141 407.371,317.443 407.303,317.672 407.445 C 317.902 407.586,318.204 407.544,318.345 407.351 C 318.723 406.832,321.176 405.600,321.832 405.600 C 322.145 405.600,322.400 405.440,322.400 405.243 C 322.400 405.047,322.850 404.774,323.400 404.636 C 323.950 404.498,324.400 404.208,324.400 403.992 C 324.400 403.777,324.670 403.600,325.000 403.600 C 325.330 403.600,325.600 403.456,325.600 403.280 C 325.600 403.105,326.242 402.729,327.026 402.445 C 327.810 402.161,328.550 401.675,328.669 401.365 C 328.788 401.054,329.143 400.800,329.457 400.800 C 330.002 400.800,331.979 399.701,332.400 399.163 C 332.510 399.023,333.005 398.781,333.500 398.627 C 333.995 398.472,334.400 398.178,334.400 397.973 C 334.400 397.768,334.670 397.600,335.000 397.600 C 335.330 397.600,335.600 397.459,335.600 397.286 C 335.600 397.114,336.165 396.639,336.855 396.231 C 337.546 395.823,338.446 395.199,338.855 394.845 C 339.265 394.490,339.935 393.910,340.345 393.555 C 340.754 393.201,341.654 392.577,342.345 392.169 C 343.035 391.761,343.600 391.207,343.600 390.937 C 343.600 390.668,343.808 390.319,344.062 390.162 C 344.369 389.972,344.420 390.065,344.215 390.438 C 344.045 390.747,344.353 390.505,344.900 389.900 C 345.446 389.295,346.072 388.800,346.292 388.800 C 346.858 388.800,355.583 380.116,355.300 379.834 C 355.172 379.705,355.377 379.600,355.757 379.600 C 356.137 379.600,356.336 379.420,356.200 379.200 C 356.064 378.980,356.144 378.800,356.377 378.800 C 357.017 378.800,360.001 375.567,360.623 374.200 C 360.923 373.540,361.176 373.163,361.184 373.361 C 361.200 373.732,362.203 372.672,363.734 370.665 C 364.210 370.041,364.825 369.289,365.100 368.994 C 365.375 368.699,365.600 368.264,365.600 368.029 C 365.600 367.793,365.810 367.600,366.067 367.600 C 366.323 367.600,366.428 367.495,366.300 367.366 C 366.171 367.238,366.366 366.772,366.733 366.333 C 367.100 365.893,367.715 365.160,368.100 364.705 C 368.485 364.250,368.800 363.635,368.800 363.339 C 368.800 363.042,368.952 362.800,369.137 362.800 C 369.322 362.800,369.817 362.125,370.237 361.300 C 370.657 360.475,371.289 359.530,371.643 359.200 C 371.996 358.870,372.423 358.164,372.592 357.631 C 372.760 357.098,373.248 356.288,373.676 355.831 C 374.105 355.374,374.555 354.505,374.677 353.900 C 374.800 353.295,375.058 352.800,375.250 352.800 C 375.442 352.800,375.600 352.530,375.600 352.200 C 375.600 351.870,375.772 351.600,375.982 351.600 C 376.192 351.600,376.482 350.970,376.626 350.200 C 376.771 349.430,377.049 348.800,377.245 348.800 C 377.440 348.800,377.600 348.530,377.600 348.200 C 377.600 347.870,377.772 347.600,377.982 347.600 C 378.192 347.600,378.482 346.970,378.626 346.200 C 378.771 345.430,379.049 344.800,379.245 344.800 C 379.440 344.800,379.600 344.530,379.600 344.200 C 379.600 343.870,379.780 343.600,380.000 343.600 C 380.220 343.600,380.401 343.285,380.402 342.900 C 380.404 342.515,380.674 341.684,381.002 341.054 C 381.331 340.424,381.600 339.659,381.600 339.354 C 381.600 339.049,381.778 338.800,381.995 338.800 C 382.213 338.800,382.506 338.080,382.646 337.200 C 382.787 336.320,383.059 335.600,383.251 335.600 C 383.443 335.600,383.600 335.240,383.600 334.800 C 383.600 334.360,383.757 334.000,383.949 334.000 C 384.141 334.000,384.414 333.272,384.556 332.383 C 384.699 331.493,384.992 330.413,385.208 329.983 C 385.423 329.552,385.777 328.848,385.992 328.417 C 386.208 327.987,386.502 326.903,386.645 326.009 C 386.788 325.114,387.061 324.286,387.253 324.168 C 387.444 324.049,387.600 323.513,387.600 322.976 C 387.600 322.439,387.801 322.000,388.047 322.000 C 388.308 322.000,388.413 321.582,388.300 320.990 C 388.194 320.435,388.263 319.885,388.454 319.767 C 388.644 319.649,388.800 319.023,388.800 318.376 C 388.800 317.729,388.980 317.200,389.200 317.200 C 389.420 317.200,389.600 316.671,389.600 316.024 C 389.600 315.377,389.769 314.743,389.975 314.616 C 390.181 314.488,390.354 314.073,390.360 313.692 C 390.387 311.990,390.929 308.800,391.190 308.800 C 391.349 308.800,391.494 308.248,391.513 307.572 C 391.532 306.897,391.733 306.122,391.958 305.850 C 392.184 305.579,392.491 303.881,392.642 302.078 C 392.792 300.275,393.069 298.800,393.258 298.800 C 393.446 298.800,393.600 297.915,393.600 296.833 C 393.600 295.752,393.769 294.807,393.975 294.733 C 394.181 294.660,394.476 292.575,394.632 290.100 C 394.787 287.625,395.068 285.600,395.257 285.600 C 395.446 285.600,395.600 284.351,395.600 282.824 C 395.600 281.297,395.788 279.931,396.017 279.790 C 396.246 279.648,396.419 278.782,396.401 277.866 C 396.322 273.825,396.950 262.800,397.259 262.800 C 397.447 262.800,397.600 258.300,397.600 252.800 C 397.600 246.400,397.744 242.800,398.000 242.800 C 398.544 242.800,398.553 184.519,398.010 184.333 C 397.773 184.253,397.602 180.689,397.575 175.300 C 397.550 170.223,397.374 166.400,397.166 166.400 C 396.965 166.400,396.800 164.330,396.800 161.800 C 396.800 159.270,396.665 157.200,396.500 157.201 C 396.335 157.201,396.241 155.671,396.292 153.801 C 396.346 151.785,396.224 150.400,395.992 150.400 C 395.771 150.400,395.600 149.092,395.600 147.400 C 395.600 145.750,395.447 144.400,395.259 144.400 C 394.950 144.400,394.295 138.652,394.361 136.520 C 394.376 136.036,394.211 135.530,393.994 135.396 C 393.777 135.262,393.600 134.353,393.600 133.376 C 393.600 132.399,393.455 131.600,393.277 131.600 C 393.099 131.600,392.737 130.025,392.472 128.100 C 391.684 122.374,391.532 121.600,391.190 121.600 C 391.010 121.600,390.738 120.427,390.585 118.994 C 390.431 117.561,390.147 116.291,389.953 116.171 C 389.759 116.051,389.600 115.423,389.600 114.776 C 389.600 114.129,389.420 113.600,389.200 113.600 C 388.980 113.600,388.800 113.071,388.800 112.424 C 388.800 111.777,388.637 111.146,388.438 111.023 C 388.238 110.900,388.169 110.439,388.284 110.000 C 388.401 109.553,388.296 109.200,388.047 109.200 C 387.801 109.200,387.600 108.671,387.600 108.024 C 387.600 107.377,387.437 106.746,387.237 106.623 C 387.038 106.500,386.751 105.499,386.600 104.400 C 386.449 103.300,386.162 102.400,385.962 102.400 C 385.763 102.400,385.600 101.969,385.600 101.443 C 385.600 100.916,385.344 100.387,385.031 100.267 C 384.683 100.134,384.546 99.729,384.678 99.224 C 384.798 98.766,384.701 98.400,384.459 98.400 C 384.220 98.400,384.129 98.130,384.255 97.800 C 384.382 97.470,384.286 97.200,384.043 97.200 C 383.799 97.200,383.600 96.750,383.600 96.200 C 383.600 95.650,383.420 95.200,383.200 95.200 C 382.980 95.200,382.800 94.851,382.800 94.424 C 382.800 93.997,382.637 93.546,382.438 93.423 C 382.238 93.300,382.169 92.839,382.284 92.400 C 382.401 91.953,382.296 91.600,382.047 91.600 C 381.801 91.600,381.600 91.330,381.600 91.000 C 381.600 90.670,381.443 90.400,381.251 90.400 C 381.059 90.400,380.787 89.680,380.646 88.800 C 380.506 87.920,380.213 87.200,379.995 87.200 C 379.778 87.200,379.600 86.840,379.600 86.400 C 379.600 85.960,379.441 85.600,379.247 85.600 C 378.903 85.600,378.270 84.104,378.357 83.500 C 378.381 83.335,378.220 83.200,378.000 83.200 C 377.780 83.200,377.600 82.840,377.600 82.400 C 377.600 81.960,377.441 81.600,377.247 81.600 C 376.903 81.600,376.270 80.104,376.357 79.500 C 376.381 79.335,376.220 79.200,376.000 79.200 C 375.780 79.200,375.600 78.840,375.600 78.400 C 375.600 77.960,375.440 77.600,375.243 77.600 C 375.047 77.600,374.765 77.116,374.617 76.524 C 374.468 75.932,374.011 75.156,373.600 74.800 C 373.189 74.444,372.731 73.664,372.581 73.067 C 372.431 72.470,371.998 71.761,371.619 71.491 C 371.240 71.221,370.817 70.546,370.680 69.992 C 370.543 69.438,370.064 68.590,369.615 68.109 C 369.167 67.627,368.800 67.045,368.800 66.814 C 368.800 66.583,368.350 66.003,367.800 65.525 C 367.250 65.047,366.800 64.413,366.800 64.115 C 366.800 63.818,366.530 63.471,366.200 63.345 C 365.870 63.218,365.600 62.937,365.600 62.720 C 365.600 62.106,364.136 60.397,363.853 60.680 C 363.714 60.819,363.600 60.543,363.600 60.067 C 363.600 59.590,363.432 59.200,363.227 59.200 C 363.022 59.200,362.743 58.849,362.606 58.420 C 362.470 57.992,362.008 57.530,361.580 57.394 C 361.151 57.257,360.800 56.904,360.800 56.609 C 360.800 55.359,345.491 40.000,343.668 39.422 C 343.213 39.277,342.730 38.809,342.594 38.380 C 342.458 37.952,341.909 37.492,341.373 37.358 C 340.838 37.223,340.400 36.953,340.400 36.757 C 340.400 36.560,340.119 36.400,339.776 36.400 C 339.433 36.400,339.261 36.225,339.393 36.012 C 339.525 35.798,339.210 35.517,338.693 35.388 C 338.176 35.258,337.424 34.713,337.021 34.176 C 336.618 33.639,335.972 33.200,335.587 33.200 C 335.201 33.200,334.781 32.927,334.653 32.594 C 334.525 32.261,333.966 31.815,333.410 31.604 C 332.855 31.393,332.400 31.035,332.400 30.810 C 332.400 30.584,332.059 30.400,331.643 30.400 C 331.226 30.400,330.782 30.130,330.655 29.800 C 330.529 29.470,330.142 29.200,329.796 29.200 C 329.450 29.200,328.773 28.833,328.291 28.385 C 327.810 27.936,327.007 27.466,326.508 27.341 C 326.009 27.216,325.600 26.953,325.600 26.757 C 325.600 26.560,325.330 26.400,325.000 26.400 C 324.670 26.400,324.400 26.223,324.400 26.008 C 324.400 25.792,323.950 25.502,323.400 25.364 C 322.850 25.226,322.400 24.953,322.400 24.757 C 322.400 24.560,322.040 24.400,321.600 24.400 C 321.160 24.400,320.800 24.234,320.800 24.032 C 320.800 23.829,320.260 23.545,319.600 23.400 C 318.940 23.255,318.400 22.971,318.400 22.768 C 318.400 22.566,318.040 22.400,317.600 22.400 C 317.160 22.400,316.800 22.234,316.800 22.032 C 316.800 21.829,316.260 21.545,315.600 21.400 C 314.940 21.255,314.400 20.971,314.400 20.768 C 314.400 20.566,314.040 20.400,313.600 20.400 C 313.160 20.400,312.800 20.222,312.800 20.005 C 312.800 19.787,312.080 19.494,311.200 19.354 C 310.320 19.213,309.600 18.941,309.600 18.749 C 309.600 18.557,309.330 18.400,309.000 18.400 C 308.670 18.400,308.400 18.236,308.400 18.035 C 308.400 17.834,307.635 17.542,306.700 17.386 C 305.765 17.230,304.910 16.977,304.800 16.823 C 304.485 16.385,301.268 15.200,300.392 15.200 C 299.956 15.200,299.600 15.020,299.600 14.800 C 299.600 14.580,299.150 14.400,298.600 14.400 C 298.050 14.400,297.600 14.237,297.600 14.038 C 297.600 13.838,296.700 13.551,295.600 13.400 C 294.500 13.249,293.600 12.962,293.600 12.762 C 293.600 12.563,293.150 12.400,292.600 12.400 C 292.050 12.400,291.600 12.237,291.600 12.038 C 291.600 11.838,290.700 11.551,289.600 11.400 C 288.500 11.249,287.600 10.974,287.600 10.789 C 287.600 10.605,287.043 10.469,286.362 10.489 C 285.681 10.508,284.979 10.290,284.803 10.005 C 284.622 9.711,284.116 9.581,283.641 9.705 C 283.179 9.826,282.700 9.762,282.577 9.562 C 282.454 9.363,281.733 9.200,280.976 9.200 C 280.219 9.200,279.600 9.020,279.600 8.800 C 279.600 8.580,278.970 8.400,278.200 8.400 C 277.430 8.400,276.800 8.200,276.800 7.957 C 276.800 7.686,276.419 7.609,275.825 7.758 C 275.288 7.893,274.751 7.844,274.630 7.649 C 274.510 7.454,273.661 7.284,272.744 7.271 C 271.827 7.259,270.970 7.084,270.839 6.882 C 270.707 6.681,269.988 6.501,269.239 6.483 C 268.491 6.465,267.768 6.272,267.633 6.054 C 267.498 5.835,265.816 5.529,263.894 5.373 C 261.972 5.218,260.400 4.935,260.400 4.745 C 260.400 4.555,259.320 4.400,258.000 4.400 C 256.680 4.400,255.600 4.236,255.600 4.036 C 255.600 3.836,253.256 3.543,250.392 3.384 C 247.527 3.226,245.100 2.962,244.999 2.798 C 244.897 2.634,243.429 2.473,241.736 2.440 C 240.043 2.407,238.436 2.196,238.164 1.970 C 237.892 1.744,236.889 1.555,235.935 1.549 C 234.981 1.543,219.799 1.448,202.198 1.338 C 184.597 1.228,170.066 1.267,169.908 1.425 M221.200 17.939 C 221.200 18.126,225.475 18.407,230.700 18.563 C 235.999 18.721,240.259 19.013,240.333 19.223 C 240.407 19.431,241.802 19.600,243.433 19.600 C 245.306 19.600,246.400 19.761,246.400 20.036 C 246.400 20.316,247.253 20.423,248.801 20.336 C 250.121 20.261,251.201 20.335,251.201 20.500 C 251.200 20.665,252.179 20.800,253.376 20.800 C 254.573 20.800,255.663 20.978,255.798 21.196 C 255.932 21.414,256.744 21.565,257.602 21.531 C 258.460 21.498,259.395 21.661,259.681 21.895 C 259.966 22.128,261.775 22.449,263.700 22.607 C 265.625 22.765,267.200 23.053,267.200 23.247 C 267.200 23.441,267.729 23.600,268.376 23.600 C 269.023 23.600,269.663 23.779,269.799 23.998 C 269.934 24.217,270.620 24.389,271.322 24.381 C 273.223 24.358,275.600 24.838,275.600 25.244 C 275.600 25.440,276.230 25.600,277.000 25.600 C 277.770 25.600,278.400 25.769,278.400 25.975 C 278.400 26.181,278.715 26.360,279.100 26.371 C 281.417 26.441,285.200 27.509,285.200 28.093 C 285.200 28.313,285.650 28.407,286.200 28.302 C 286.750 28.197,287.200 28.266,287.200 28.455 C 287.200 28.645,287.650 28.800,288.200 28.800 C 288.750 28.800,289.200 28.980,289.200 29.200 C 289.200 29.420,289.639 29.600,290.176 29.600 C 290.713 29.600,291.261 29.775,291.393 29.988 C 291.525 30.202,292.522 30.495,293.609 30.639 C 294.696 30.783,295.488 31.058,295.369 31.251 C 295.250 31.443,295.513 31.600,295.953 31.600 C 296.393 31.600,296.852 31.760,296.973 31.956 C 297.094 32.151,297.689 32.431,298.296 32.578 C 299.975 32.984,301.600 33.754,301.600 34.144 C 301.600 34.336,301.951 34.401,302.381 34.289 C 302.810 34.177,303.215 34.201,303.281 34.342 C 303.470 34.752,306.900 36.396,307.999 36.603 C 308.548 36.707,309.058 36.974,309.132 37.196 C 309.206 37.418,309.522 37.600,309.833 37.600 C 310.145 37.600,310.400 37.766,310.400 37.968 C 310.400 38.171,310.921 38.451,311.559 38.591 C 312.196 38.731,313.024 39.185,313.400 39.600 C 313.776 40.015,314.604 40.469,315.241 40.609 C 315.879 40.749,316.400 41.029,316.400 41.232 C 316.400 41.434,316.670 41.600,317.000 41.600 C 317.330 41.600,317.600 41.777,317.600 41.992 C 317.600 42.208,318.050 42.498,318.600 42.636 C 319.150 42.774,319.600 43.047,319.600 43.243 C 319.600 43.440,319.848 43.600,320.151 43.600 C 320.454 43.600,320.926 43.870,321.200 44.200 C 321.474 44.530,321.993 44.800,322.353 44.800 C 322.713 44.800,323.232 45.160,323.507 45.600 C 323.782 46.040,324.266 46.400,324.584 46.400 C 324.901 46.400,325.304 46.629,325.480 46.910 C 325.656 47.190,326.307 47.742,326.926 48.136 C 327.546 48.530,328.407 49.156,328.839 49.527 C 329.272 49.897,329.800 50.223,330.013 50.250 C 330.226 50.278,330.559 50.323,330.753 50.350 C 330.948 50.377,331.201 50.762,331.317 51.204 C 331.433 51.646,332.129 52.269,332.864 52.588 C 333.599 52.908,334.058 53.176,333.885 53.184 C 333.491 53.204,337.161 56.800,337.574 56.800 C 338.021 56.800,342.024 60.785,343.352 62.551 C 343.986 63.394,345.246 64.840,346.152 65.766 C 348.073 67.727,349.600 69.641,349.600 70.087 C 349.600 70.259,349.881 70.400,350.224 70.400 C 350.567 70.400,350.730 70.589,350.587 70.821 C 350.444 71.052,350.794 71.673,351.364 72.201 C 351.934 72.730,352.400 73.440,352.400 73.781 C 352.400 74.121,352.670 74.400,353.000 74.400 C 353.330 74.400,353.600 74.750,353.600 75.177 C 353.600 75.605,353.934 76.190,354.343 76.477 C 354.751 76.765,355.214 77.408,355.371 77.906 C 355.529 78.404,355.825 78.708,356.029 78.582 C 356.233 78.456,356.400 78.794,356.400 79.334 C 356.400 79.873,356.670 80.418,357.000 80.545 C 357.330 80.671,357.600 81.141,357.600 81.587 C 357.600 82.034,357.780 82.400,358.000 82.400 C 358.220 82.400,358.400 82.670,358.400 83.000 C 358.400 83.330,358.560 83.600,358.757 83.600 C 358.953 83.600,359.226 84.050,359.364 84.600 C 359.502 85.150,359.792 85.600,360.008 85.600 C 360.223 85.600,360.400 85.855,360.400 86.167 C 360.400 86.478,360.606 86.802,360.857 86.886 C 361.109 86.970,361.371 87.567,361.440 88.213 C 361.509 88.860,361.753 89.451,361.983 89.528 C 362.212 89.604,362.400 89.922,362.400 90.233 C 362.400 90.545,362.560 90.800,362.755 90.800 C 362.951 90.800,363.229 91.430,363.374 92.200 C 363.518 92.970,363.808 93.600,364.018 93.600 C 364.228 93.600,364.400 93.849,364.400 94.154 C 364.400 94.459,364.669 95.224,364.998 95.854 C 365.326 96.484,365.596 97.315,365.598 97.700 C 365.599 98.085,365.780 98.400,366.000 98.400 C 366.220 98.400,366.400 98.738,366.400 99.151 C 366.400 99.564,366.668 100.124,366.996 100.396 C 367.323 100.668,367.493 101.050,367.372 101.245 C 367.251 101.440,367.338 101.600,367.564 101.600 C 367.790 101.600,367.869 101.877,367.739 102.215 C 367.609 102.553,367.823 103.183,368.213 103.615 C 368.604 104.047,368.784 104.400,368.613 104.400 C 368.442 104.400,368.496 104.634,368.733 104.920 C 368.971 105.206,369.286 106.196,369.434 107.120 C 369.581 108.044,369.859 108.800,370.051 108.800 C 370.243 108.800,370.400 109.250,370.400 109.800 C 370.400 110.350,370.562 110.800,370.761 110.800 C 370.959 110.800,371.247 111.880,371.400 113.200 C 371.553 114.520,371.841 115.600,372.039 115.600 C 372.238 115.600,372.400 116.039,372.400 116.576 C 372.400 117.113,372.580 117.664,372.800 117.800 C 373.020 117.936,373.200 118.566,373.200 119.200 C 373.200 119.834,373.363 120.454,373.562 120.577 C 373.762 120.700,373.826 121.179,373.705 121.641 C 373.584 122.104,373.673 122.598,373.902 122.741 C 374.131 122.883,374.375 123.540,374.444 124.200 C 374.513 124.860,374.694 125.580,374.846 125.800 C 374.997 126.020,375.251 127.460,375.409 129.000 C 375.568 130.540,375.891 132.041,376.128 132.337 C 376.365 132.632,376.517 133.487,376.467 134.237 C 376.416 134.986,376.543 135.600,376.749 135.600 C 376.955 135.600,377.252 137.493,377.410 139.806 C 377.567 142.120,377.855 144.110,378.048 144.230 C 378.242 144.349,378.400 145.481,378.400 146.744 C 378.400 148.007,378.569 149.211,378.776 149.420 C 378.982 149.629,379.279 152.725,379.435 156.300 C 379.591 159.875,379.872 162.800,380.059 162.800 C 380.247 162.800,380.400 165.320,380.400 168.400 C 380.400 171.867,380.552 174.000,380.800 174.000 C 381.064 174.000,381.200 187.800,381.200 214.600 C 381.200 239.225,381.054 255.200,380.830 255.200 C 380.622 255.200,380.455 257.558,380.450 260.589 C 380.444 263.730,380.257 266.321,379.999 266.801 C 379.757 267.254,379.569 268.744,379.581 270.112 C 379.619 274.311,379.113 280.800,378.747 280.800 C 378.556 280.800,378.400 281.959,378.400 283.376 C 378.400 284.793,378.219 286.064,377.998 286.201 C 377.778 286.337,377.598 287.203,377.599 288.125 C 377.602 290.760,377.161 294.163,376.763 294.580 C 376.563 294.789,376.400 295.734,376.400 296.680 C 376.400 297.626,376.241 298.400,376.047 298.400 C 375.853 298.400,375.568 299.749,375.413 301.397 C 375.259 303.046,374.967 304.496,374.766 304.621 C 374.565 304.745,374.400 305.467,374.400 306.224 C 374.400 306.981,374.222 307.600,374.004 307.600 C 373.787 307.600,373.619 308.005,373.632 308.500 C 373.672 310.064,373.109 312.800,372.747 312.800 C 372.556 312.800,372.400 313.325,372.400 313.967 C 372.400 314.608,372.242 315.193,372.049 315.267 C 371.856 315.340,371.590 316.299,371.459 317.397 C 371.327 318.495,371.035 319.455,370.809 319.530 C 370.584 319.605,370.400 320.102,370.400 320.633 C 370.400 321.165,370.237 321.600,370.038 321.600 C 369.838 321.600,369.551 322.500,369.400 323.600 C 369.249 324.700,368.962 325.600,368.762 325.600 C 368.563 325.600,368.400 325.949,368.400 326.376 C 368.400 326.803,368.236 327.254,368.035 327.378 C 367.834 327.503,367.548 328.323,367.400 329.202 C 367.251 330.081,366.966 330.800,366.765 330.800 C 366.564 330.800,366.400 331.160,366.400 331.600 C 366.400 332.040,366.240 332.400,366.045 332.400 C 365.849 332.400,365.562 333.075,365.408 333.899 C 365.253 334.724,364.954 335.505,364.743 335.635 C 364.532 335.765,364.332 336.248,364.297 336.708 C 364.262 337.168,364.106 337.465,363.950 337.369 C 363.793 337.272,363.546 337.735,363.401 338.397 C 363.255 339.058,363.013 339.600,362.863 339.600 C 362.565 339.600,361.200 342.557,361.200 343.203 C 361.200 343.421,361.020 343.600,360.800 343.600 C 360.580 343.600,360.400 343.870,360.400 344.200 C 360.400 344.530,360.220 344.800,360.000 344.800 C 359.780 344.800,359.600 345.138,359.600 345.551 C 359.600 345.964,359.330 346.526,359.000 346.800 C 358.670 347.074,358.400 347.546,358.400 347.849 C 358.400 348.152,358.240 348.400,358.043 348.400 C 357.847 348.400,357.574 348.850,357.436 349.400 C 357.298 349.950,357.008 350.400,356.792 350.400 C 356.577 350.400,356.400 350.670,356.400 351.000 C 356.400 351.330,356.223 351.600,356.008 351.600 C 355.792 351.600,355.502 352.050,355.364 352.600 C 355.226 353.150,354.981 353.600,354.820 353.600 C 354.658 353.600,354.187 354.230,353.772 355.000 C 353.357 355.770,352.879 356.400,352.709 356.400 C 352.539 356.400,352.400 356.579,352.400 356.797 C 352.400 357.015,351.995 357.660,351.500 358.229 C 351.005 358.798,350.600 359.389,350.600 359.542 C 350.600 359.695,349.968 360.445,349.195 361.210 C 348.422 361.974,347.570 363.095,347.303 363.700 C 347.036 364.305,346.543 364.800,346.209 364.800 C 345.874 364.800,345.600 364.962,345.600 365.160 C 345.600 365.604,336.417 374.800,335.974 374.800 C 335.798 374.800,335.540 375.160,335.400 375.600 C 335.260 376.040,334.849 376.400,334.486 376.400 C 334.123 376.400,333.460 376.810,333.013 377.310 C 332.566 377.811,331.660 378.559,331.000 378.973 C 330.340 379.387,329.656 379.968,329.480 380.263 C 329.304 380.558,328.932 380.800,328.652 380.800 C 328.373 380.800,327.753 381.250,327.275 381.800 C 326.797 382.350,326.134 382.800,325.803 382.800 C 325.471 382.800,325.200 382.942,325.200 383.116 C 325.200 383.290,324.300 383.958,323.200 384.600 C 322.100 385.242,321.200 385.910,321.200 386.084 C 321.200 386.258,320.862 386.400,320.449 386.400 C 320.036 386.400,319.474 386.670,319.200 387.000 C 318.926 387.330,318.469 387.600,318.184 387.600 C 317.900 387.600,317.607 387.735,317.533 387.900 C 317.460 388.065,316.140 388.830,314.600 389.600 C 313.060 390.370,311.740 391.135,311.667 391.300 C 311.593 391.465,311.278 391.600,310.967 391.600 C 310.655 391.600,310.400 391.780,310.400 392.000 C 310.400 392.220,310.085 392.404,309.700 392.409 C 309.315 392.414,307.920 392.950,306.600 393.600 C 305.280 394.250,303.975 394.786,303.700 394.791 C 303.425 394.796,303.200 394.980,303.200 395.200 C 303.200 395.420,302.750 395.600,302.200 395.600 C 301.650 395.600,301.200 395.780,301.200 396.000 C 301.200 396.220,300.882 396.400,300.494 396.400 C 300.106 396.400,299.136 396.750,298.338 397.177 C 297.540 397.605,296.778 397.845,296.644 397.711 C 296.510 397.576,296.400 397.677,296.400 397.933 C 296.400 398.190,295.950 398.400,295.400 398.400 C 294.850 398.400,294.400 398.563,294.400 398.763 C 294.400 398.962,294.060 399.036,293.645 398.928 C 293.230 398.819,292.769 398.926,292.622 399.165 C 292.474 399.404,291.913 399.600,291.376 399.600 C 290.839 399.600,290.400 399.780,290.400 400.000 C 290.400 400.220,289.939 400.400,289.376 400.400 C 288.813 400.400,288.444 400.547,288.555 400.728 C 288.667 400.908,288.227 400.977,287.579 400.882 C 286.876 400.779,286.400 400.889,286.400 401.155 C 286.400 401.400,285.950 401.600,285.400 401.600 C 284.850 401.600,284.400 401.780,284.400 402.000 C 284.400 402.220,283.770 402.400,283.000 402.400 C 282.230 402.400,281.600 402.555,281.600 402.745 C 281.600 402.934,281.171 403.007,280.647 402.907 C 280.123 402.807,279.572 402.922,279.423 403.162 C 279.275 403.403,278.634 403.600,278.000 403.600 C 277.366 403.600,276.745 403.766,276.619 403.969 C 276.494 404.171,275.223 404.462,273.796 404.615 C 272.368 404.768,271.200 405.052,271.200 405.247 C 271.200 405.441,270.491 405.600,269.624 405.600 C 268.757 405.600,267.948 405.761,267.826 405.958 C 267.704 406.155,266.162 406.444,264.400 406.600 C 262.638 406.756,261.096 407.045,260.974 407.242 C 260.852 407.439,259.964 407.600,259.000 407.600 C 258.036 407.600,257.153 407.753,257.037 407.940 C 256.807 408.313,251.082 408.930,248.700 408.838 C 247.875 408.807,247.200 408.965,247.200 409.190 C 247.200 409.433,245.981 409.600,244.200 409.600 C 242.550 409.600,241.200 409.758,241.200 409.951 C 241.200 410.351,233.685 410.786,226.641 410.794 C 223.994 410.797,221.664 410.981,221.390 411.208 C 220.691 411.788,179.141 411.752,178.782 411.171 C 178.618 410.906,176.875 410.768,174.159 410.805 C 168.732 410.879,159.868 410.384,159.600 409.993 C 159.490 409.832,158.155 409.675,156.633 409.644 C 155.112 409.613,153.642 409.401,153.368 409.174 C 153.094 408.946,152.089 408.766,151.135 408.774 C 148.362 408.797,143.600 408.334,143.600 408.042 C 143.600 407.895,142.757 407.737,141.727 407.692 C 140.697 407.648,139.741 407.428,139.602 407.204 C 139.464 406.980,138.912 406.802,138.375 406.808 C 136.348 406.833,132.800 406.287,132.800 405.950 C 132.800 405.758,132.080 405.600,131.200 405.600 C 130.277 405.600,129.600 405.409,129.600 405.148 C 129.600 404.854,129.109 404.775,128.200 404.923 C 127.430 405.047,126.800 404.981,126.800 404.775 C 126.800 404.569,126.271 404.400,125.624 404.400 C 124.977 404.400,124.336 404.220,124.200 404.000 C 124.064 403.780,123.434 403.600,122.800 403.600 C 122.166 403.600,121.549 403.441,121.429 403.247 C 121.309 403.052,120.221 402.770,119.012 402.619 C 117.802 402.468,116.709 402.177,116.583 401.972 C 116.456 401.767,115.913 401.600,115.376 401.600 C 114.839 401.600,114.400 401.399,114.400 401.153 C 114.400 400.893,113.984 400.786,113.400 400.898 C 112.850 401.003,112.400 400.934,112.400 400.745 C 112.400 400.555,111.950 400.400,111.400 400.400 C 110.850 400.400,110.400 400.220,110.400 400.000 C 110.400 399.780,109.961 399.600,109.424 399.600 C 108.887 399.600,108.346 399.436,108.222 399.235 C 108.097 399.034,107.278 398.748,106.400 398.600 C 105.522 398.452,104.703 398.166,104.578 397.965 C 104.454 397.764,104.003 397.600,103.576 397.600 C 103.149 397.600,102.800 397.443,102.800 397.251 C 102.800 397.059,102.080 396.787,101.200 396.646 C 100.320 396.506,99.600 396.213,99.600 395.995 C 99.600 395.778,99.351 395.600,99.046 395.600 C 98.741 395.600,97.976 395.331,97.346 395.002 C 96.716 394.674,95.900 394.404,95.533 394.402 C 95.167 394.401,94.807 394.265,94.733 394.100 C 94.523 393.627,92.144 392.400,91.438 392.400 C 91.087 392.400,90.799 392.265,90.797 392.100 C 90.792 391.632,88.736 390.793,88.282 391.073 C 88.051 391.216,87.999 391.125,88.162 390.862 C 88.342 390.570,88.144 390.400,87.624 390.400 C 87.171 390.400,86.800 390.209,86.800 389.976 C 86.800 389.743,86.619 389.665,86.397 389.802 C 86.176 389.939,85.891 389.780,85.764 389.450 C 85.637 389.119,84.963 388.724,84.267 388.571 C 83.570 388.418,82.775 387.971,82.500 387.578 C 82.224 387.185,81.494 386.752,80.877 386.617 C 80.260 386.481,79.501 386.017,79.189 385.585 C 78.878 385.153,78.297 384.800,77.899 384.800 C 77.501 384.800,77.071 384.530,76.945 384.200 C 76.818 383.870,76.464 383.600,76.157 383.600 C 75.851 383.600,75.600 383.432,75.600 383.227 C 75.600 383.022,75.195 382.726,74.700 382.570 C 74.205 382.413,73.515 381.958,73.166 381.558 C 72.818 381.158,72.053 380.648,71.466 380.425 C 70.880 380.202,70.400 379.749,70.400 379.418 C 70.400 379.086,69.950 378.702,69.400 378.564 C 68.850 378.426,68.400 378.153,68.400 377.957 C 68.400 377.760,68.100 377.600,67.733 377.600 C 67.367 377.600,67.176 377.491,67.309 377.358 C 67.566 377.101,65.692 375.200,65.182 375.200 C 65.016 375.200,64.250 374.570,63.480 373.800 C 62.710 373.030,61.852 372.400,61.573 372.400 C 61.295 372.400,61.176 372.291,61.310 372.157 C 61.635 371.831,58.226 368.400,57.577 368.400 C 57.297 368.400,57.181 368.286,57.320 368.147 C 57.459 368.008,56.679 367.019,55.586 365.949 C 54.494 364.879,53.600 363.905,53.600 363.785 C 53.600 363.552,53.095 362.906,51.799 361.481 C 51.359 360.996,50.676 360.099,50.282 359.487 C 49.887 358.875,49.412 358.469,49.225 358.584 C 49.038 358.700,48.767 358.324,48.623 357.749 C 48.329 356.576,47.425 355.508,47.048 355.886 C 46.911 356.022,46.800 355.756,46.800 355.295 C 46.800 354.834,46.558 354.215,46.263 353.920 C 45.967 353.624,45.217 352.576,44.597 351.591 C 43.976 350.606,43.183 349.581,42.834 349.313 C 42.485 349.045,42.345 348.820,42.523 348.813 C 42.700 348.806,42.532 348.270,42.149 347.622 C 41.766 346.974,41.306 346.534,41.127 346.645 C 40.947 346.756,40.800 346.387,40.800 345.824 C 40.800 345.261,40.626 344.800,40.413 344.800 C 40.199 344.800,40.129 344.530,40.255 344.200 C 40.382 343.870,40.286 343.600,40.043 343.600 C 39.799 343.600,39.600 343.345,39.600 343.033 C 39.600 342.722,39.465 342.407,39.300 342.333 C 39.007 342.203,37.034 338.298,35.948 335.700 C 35.649 334.985,35.269 334.400,35.102 334.400 C 34.936 334.400,34.799 334.085,34.798 333.700 C 34.796 333.315,34.526 332.484,34.198 331.854 C 33.869 331.224,33.600 330.459,33.600 330.154 C 33.600 329.849,33.420 329.600,33.200 329.600 C 32.980 329.600,32.800 329.251,32.800 328.824 C 32.800 328.397,32.628 327.941,32.417 327.811 C 32.207 327.681,32.136 327.310,32.260 326.987 C 32.384 326.664,32.286 326.400,32.043 326.400 C 31.799 326.400,31.600 325.950,31.600 325.400 C 31.600 324.850,31.437 324.400,31.238 324.400 C 31.038 324.400,30.751 323.500,30.600 322.400 C 30.449 321.300,30.162 320.400,29.962 320.400 C 29.763 320.400,29.600 319.965,29.600 319.433 C 29.600 318.902,29.425 318.407,29.212 318.333 C 28.998 318.260,28.741 317.750,28.641 317.200 C 28.541 316.650,28.425 316.110,28.384 316.000 C 28.342 315.890,28.337 315.501,28.373 315.135 C 28.409 314.770,28.250 314.354,28.019 314.212 C 27.789 314.069,27.600 313.423,27.600 312.776 C 27.600 312.129,27.441 311.600,27.247 311.600 C 27.052 311.600,26.768 310.430,26.615 309.000 C 26.462 307.570,26.171 306.400,25.968 306.400 C 25.766 306.400,25.600 305.770,25.600 305.000 C 25.600 304.230,25.441 303.600,25.247 303.600 C 25.053 303.600,24.765 302.205,24.607 300.500 C 24.449 298.795,24.153 297.196,23.950 296.946 C 23.746 296.697,23.555 295.842,23.525 295.046 C 23.495 294.251,23.346 293.600,23.193 293.600 C 22.892 293.600,22.315 288.582,22.380 286.530 C 22.403 285.832,22.236 285.146,22.011 285.006 C 21.785 284.867,21.600 283.694,21.600 282.400 C 21.600 281.106,21.448 279.953,21.262 279.838 C 20.902 279.616,20.286 271.501,20.384 268.267 C 20.416 267.203,20.241 266.090,19.994 265.793 C 19.710 265.451,19.547 263.256,19.550 259.826 C 19.553 256.687,19.396 254.400,19.177 254.400 C 18.943 254.400,18.800 238.688,18.800 213.000 C 18.800 187.280,18.943 171.600,19.178 171.600 C 19.398 171.600,19.565 168.982,19.577 165.324 C 19.591 161.363,19.755 158.952,20.022 158.786 C 20.262 158.638,20.434 157.243,20.420 155.562 C 20.382 151.136,20.863 144.809,21.255 144.566 C 21.445 144.449,21.600 143.204,21.600 141.800 C 21.600 140.396,21.785 139.133,22.011 138.994 C 22.236 138.854,22.408 138.168,22.392 137.470 C 22.339 135.162,22.903 130.800,23.255 130.800 C 23.445 130.800,23.600 129.900,23.600 128.800 C 23.600 127.700,23.783 126.800,24.006 126.800 C 24.230 126.800,24.396 126.305,24.376 125.700 C 24.315 123.850,24.846 120.608,25.234 120.467 C 25.435 120.393,25.600 119.718,25.600 118.967 C 25.600 118.215,25.759 117.600,25.953 117.600 C 26.148 117.600,26.432 116.430,26.585 115.000 C 26.738 113.570,27.029 112.400,27.232 112.400 C 27.434 112.400,27.600 111.961,27.600 111.424 C 27.600 110.887,27.777 110.338,27.994 110.204 C 28.211 110.070,28.385 109.564,28.381 109.080 C 28.370 107.609,28.869 105.600,29.245 105.600 C 29.440 105.600,29.600 105.150,29.600 104.600 C 29.600 104.050,29.757 103.600,29.949 103.600 C 30.141 103.600,30.413 102.882,30.553 102.005 C 30.693 101.128,31.155 99.792,31.580 99.035 C 32.005 98.279,32.473 97.017,32.621 96.230 C 32.768 95.444,33.049 94.800,33.245 94.800 C 33.440 94.800,33.600 94.350,33.600 93.800 C 33.600 93.250,33.780 92.800,34.000 92.800 C 34.220 92.800,34.381 92.665,34.357 92.500 C 34.270 91.896,34.903 90.400,35.247 90.400 C 35.441 90.400,35.600 90.040,35.600 89.600 C 35.600 89.160,35.780 88.800,36.000 88.800 C 36.220 88.800,36.400 88.621,36.400 88.403 C 36.400 87.757,37.765 84.800,38.063 84.800 C 38.213 84.800,38.455 84.260,38.600 83.600 C 38.745 82.940,39.029 82.400,39.232 82.400 C 39.434 82.400,39.600 82.040,39.600 81.600 C 39.600 81.160,39.777 80.800,39.992 80.800 C 40.208 80.800,40.498 80.350,40.636 79.800 C 40.774 79.250,41.047 78.800,41.243 78.800 C 41.440 78.800,41.600 78.530,41.600 78.200 C 41.600 77.870,41.777 77.600,41.992 77.600 C 42.208 77.600,42.498 77.150,42.636 76.600 C 42.774 76.050,43.047 75.600,43.243 75.600 C 43.440 75.600,43.600 75.330,43.600 75.000 C 43.600 74.670,43.791 74.400,44.024 74.400 C 44.257 74.400,44.336 74.220,44.200 74.000 C 44.064 73.780,44.173 73.600,44.443 73.600 C 44.713 73.600,44.831 73.498,44.706 73.373 C 44.582 73.248,45.002 72.612,45.640 71.959 C 46.278 71.307,46.800 70.551,46.800 70.281 C 46.800 70.011,47.250 69.452,47.800 69.039 C 48.350 68.626,48.800 67.965,48.800 67.571 C 48.800 67.177,49.160 66.740,49.600 66.600 C 50.040 66.460,50.400 66.186,50.400 65.991 C 50.400 65.796,50.850 65.186,51.400 64.636 C 51.950 64.086,52.400 63.523,52.400 63.385 C 52.400 63.246,54.290 61.252,56.600 58.954 C 58.910 56.655,60.800 54.589,60.800 54.363 C 60.800 54.138,60.946 54.043,61.125 54.154 C 61.304 54.264,61.962 53.915,62.587 53.377 C 63.213 52.840,63.864 52.400,64.035 52.400 C 64.206 52.400,64.460 52.040,64.600 51.600 C 64.740 51.160,65.093 50.800,65.385 50.800 C 65.677 50.800,66.493 50.260,67.200 49.600 C 67.907 48.940,68.696 48.400,68.954 48.400 C 69.212 48.400,69.683 48.040,70.000 47.600 C 70.317 47.160,70.794 46.800,71.060 46.800 C 71.325 46.800,71.785 46.558,72.080 46.263 C 72.376 45.967,73.424 45.220,74.409 44.603 C 75.394 43.985,76.290 43.372,76.400 43.240 C 76.510 43.108,77.275 42.657,78.100 42.237 C 78.925 41.817,79.600 41.322,79.600 41.137 C 79.600 40.952,79.798 40.800,80.040 40.800 C 80.519 40.800,83.277 39.577,83.600 39.221 C 84.010 38.769,86.485 37.600,87.032 37.600 C 87.345 37.600,87.600 37.420,87.600 37.200 C 87.600 36.980,87.779 36.800,87.997 36.800 C 88.659 36.800,91.600 35.432,91.600 35.124 C 91.600 34.966,92.232 34.718,93.004 34.573 C 93.777 34.428,94.507 34.150,94.628 33.955 C 94.749 33.760,95.197 33.600,95.624 33.600 C 96.051 33.600,96.400 33.422,96.400 33.205 C 96.400 32.987,97.120 32.694,98.000 32.554 C 98.880 32.413,99.600 32.141,99.600 31.949 C 99.600 31.757,99.849 31.600,100.154 31.600 C 100.459 31.600,101.224 31.331,101.854 31.002 C 102.484 30.674,103.390 30.404,103.867 30.402 C 104.343 30.401,104.796 30.212,104.873 29.982 C 104.949 29.752,105.414 29.534,105.906 29.497 C 106.398 29.460,106.800 29.301,106.800 29.144 C 106.800 28.986,107.792 28.734,109.005 28.582 C 110.218 28.430,111.309 28.148,111.429 27.953 C 111.549 27.759,112.087 27.600,112.624 27.600 C 113.161 27.600,113.600 27.438,113.600 27.239 C 113.600 27.041,114.680 26.753,116.001 26.600 C 117.321 26.447,118.502 26.159,118.624 25.961 C 118.747 25.762,119.276 25.600,119.800 25.600 C 120.324 25.600,120.853 25.438,120.975 25.241 C 121.097 25.043,122.458 24.755,123.998 24.600 C 125.539 24.445,126.800 24.157,126.800 23.959 C 126.800 23.762,127.610 23.600,128.600 23.600 C 129.590 23.600,130.400 23.445,130.400 23.256 C 130.400 22.890,134.211 22.313,136.169 22.382 C 136.812 22.405,137.451 22.241,137.589 22.018 C 137.727 21.795,138.686 21.581,139.720 21.541 C 140.754 21.502,141.600 21.319,141.600 21.135 C 141.600 20.951,142.669 20.800,143.976 20.800 C 145.283 20.800,146.442 20.655,146.552 20.478 C 146.661 20.301,147.789 20.206,149.059 20.267 C 150.328 20.328,151.475 20.202,151.607 19.988 C 151.739 19.775,153.187 19.581,154.824 19.559 C 156.461 19.536,157.980 19.376,158.200 19.204 C 158.666 18.838,169.415 18.294,174.464 18.380 C 176.515 18.415,178.034 18.268,178.188 18.020 C 178.506 17.505,221.200 17.425,221.200 17.939 M195.613 107.471 C 195.070 107.585,194.329 108.021,193.966 108.439 C 193.603 108.858,193.102 109.200,192.853 109.200 C 192.604 109.200,192.400 109.470,192.400 109.800 C 192.400 110.130,192.223 110.400,192.008 110.400 C 191.792 110.400,191.502 110.850,191.364 111.400 C 191.226 111.950,190.953 112.400,190.757 112.400 C 190.560 112.400,190.400 112.850,190.400 113.400 C 190.400 113.950,190.237 114.400,190.038 114.400 C 189.838 114.400,189.551 115.300,189.400 116.400 C 189.249 117.500,188.962 118.400,188.762 118.400 C 188.563 118.400,188.400 118.850,188.400 119.400 C 188.400 119.950,188.220 120.400,188.000 120.400 C 187.780 120.400,187.600 120.778,187.600 121.240 C 187.600 122.003,186.894 123.933,185.974 125.683 C 185.777 126.058,185.499 127.093,185.356 127.983 C 185.214 128.872,184.941 129.600,184.749 129.600 C 184.557 129.600,184.400 130.050,184.400 130.600 C 184.400 131.150,184.199 131.600,183.953 131.600 C 183.693 131.600,183.586 132.016,183.698 132.600 C 183.803 133.150,183.734 133.600,183.545 133.600 C 183.355 133.600,183.200 134.050,183.200 134.600 C 183.200 135.150,183.020 135.600,182.800 135.600 C 182.580 135.600,182.400 136.050,182.400 136.600 C 182.400 137.150,182.231 137.600,182.025 137.600 C 181.818 137.600,181.528 138.410,181.379 139.400 C 181.231 140.390,180.950 141.200,180.755 141.200 C 180.560 141.200,180.400 141.650,180.400 142.200 C 180.400 142.750,180.220 143.200,180.000 143.200 C 179.780 143.200,179.600 143.442,179.600 143.738 C 179.600 144.460,172.292 144.800,156.760 144.800 C 149.250 144.800,144.756 144.948,144.600 145.200 C 144.464 145.420,143.913 145.600,143.376 145.600 C 142.839 145.600,142.400 145.780,142.400 146.000 C 142.400 146.220,142.138 146.400,141.818 146.400 C 141.086 146.400,139.114 148.337,139.390 148.784 C 139.503 148.967,139.326 149.219,138.998 149.346 C 138.669 149.472,138.400 149.941,138.400 150.387 C 138.400 150.834,138.229 151.200,138.021 151.200 C 137.534 151.200,137.544 155.918,138.032 156.220 C 138.235 156.345,138.400 156.786,138.400 157.201 C 138.400 157.615,138.800 158.235,139.289 158.577 C 139.778 158.920,140.035 159.200,139.860 159.200 C 139.686 159.200,139.813 159.470,140.143 159.800 C 140.473 160.130,140.936 160.400,141.171 160.400 C 141.407 160.400,141.600 160.670,141.600 161.000 C 141.600 161.330,141.827 161.600,142.104 161.600 C 142.381 161.600,143.059 162.018,143.611 162.530 C 144.162 163.041,145.150 163.806,145.806 164.230 C 147.152 165.098,148.048 165.793,149.510 167.100 C 150.064 167.595,150.626 168.000,150.758 168.001 C 150.891 168.001,151.630 168.546,152.400 169.211 C 153.170 169.876,154.204 170.524,154.697 170.653 C 155.191 170.781,155.508 171.026,155.402 171.197 C 155.111 171.668,156.300 172.509,156.809 172.194 C 157.065 172.036,157.345 172.268,157.468 172.738 C 157.586 173.189,158.429 173.927,159.341 174.378 C 160.253 174.830,160.852 175.200,160.671 175.200 C 160.491 175.200,160.613 175.470,160.943 175.800 C 161.273 176.130,161.709 176.400,161.912 176.400 C 162.115 176.400,162.834 176.895,163.510 177.500 C 165.526 179.306,165.903 179.564,166.157 179.309 C 166.291 179.176,166.400 179.367,166.400 179.733 C 166.400 180.100,166.649 180.400,166.953 180.400 C 167.598 180.400,168.097 181.893,167.562 182.223 C 167.363 182.346,167.200 182.887,167.200 183.424 C 167.200 183.961,167.020 184.400,166.800 184.400 C 166.580 184.400,166.400 184.839,166.400 185.376 C 166.400 185.913,166.237 186.454,166.037 186.577 C 165.838 186.700,165.551 187.700,165.400 188.800 C 165.249 189.900,164.962 190.900,164.763 191.023 C 164.563 191.146,164.400 191.687,164.400 192.224 C 164.400 192.761,164.199 193.200,163.953 193.200 C 163.692 193.200,163.587 193.618,163.700 194.210 C 163.806 194.765,163.737 195.315,163.546 195.433 C 163.356 195.551,163.200 196.087,163.200 196.624 C 163.200 197.161,163.020 197.600,162.800 197.600 C 162.580 197.600,162.400 198.039,162.400 198.576 C 162.400 199.113,162.233 199.656,162.028 199.783 C 161.823 199.909,161.533 201.000,161.382 202.206 C 161.231 203.413,160.949 204.400,160.754 204.400 C 160.559 204.400,160.400 204.850,160.400 205.400 C 160.400 205.950,160.199 206.400,159.953 206.400 C 159.693 206.400,159.586 206.816,159.698 207.400 C 159.803 207.950,159.734 208.400,159.545 208.400 C 159.355 208.400,159.200 208.940,159.200 209.600 C 159.200 210.260,159.020 210.800,158.800 210.800 C 158.580 210.800,158.400 211.340,158.400 212.000 C 158.400 212.660,158.220 213.200,158.000 213.200 C 157.780 213.200,157.600 214.190,157.600 215.400 C 157.600 216.610,157.780 217.600,158.000 217.600 C 158.220 217.600,158.400 218.050,158.400 218.600 C 158.400 219.150,158.560 219.600,158.757 219.600 C 158.953 219.600,159.219 220.023,159.349 220.539 C 159.867 222.604,169.600 225.171,169.600 223.243 C 169.600 223.047,170.094 222.763,170.698 222.611 C 172.039 222.275,172.867 221.631,172.572 221.155 C 172.451 220.960,172.695 220.800,173.114 220.800 C 173.533 220.800,174.399 220.349,175.038 219.798 C 175.677 219.246,176.518 218.693,176.906 218.569 C 177.294 218.444,177.508 218.175,177.382 217.971 C 177.256 217.767,177.523 217.600,177.976 217.600 C 178.478 217.600,178.800 217.340,178.800 216.933 C 178.800 216.567,178.915 216.382,179.056 216.523 C 179.355 216.821,181.600 215.578,181.600 215.114 C 181.600 214.941,181.862 214.800,182.182 214.800 C 182.502 214.800,183.192 214.372,183.716 213.848 C 184.239 213.324,185.058 212.772,185.534 212.621 C 186.010 212.470,186.400 212.178,186.400 211.973 C 186.400 211.768,186.670 211.600,187.000 211.600 C 187.330 211.600,187.600 211.459,187.600 211.286 C 187.600 211.114,188.185 210.629,188.900 210.209 C 189.615 209.789,190.438 209.210,190.729 208.922 C 191.019 208.635,191.493 208.400,191.782 208.400 C 192.071 208.400,192.401 208.040,192.516 207.600 C 192.640 207.127,193.062 206.800,193.548 206.800 C 194.001 206.800,194.573 206.425,194.818 205.966 C 195.064 205.507,195.362 205.229,195.482 205.348 C 195.601 205.468,196.279 205.123,196.987 204.583 C 198.287 203.591,199.600 203.285,199.600 203.973 C 199.600 204.178,199.990 204.470,200.466 204.621 C 200.942 204.772,201.761 205.324,202.284 205.848 C 202.808 206.372,203.599 206.800,204.042 206.800 C 204.485 206.800,204.752 206.954,204.635 207.143 C 204.518 207.332,205.048 207.823,205.811 208.234 C 206.575 208.645,207.200 209.121,207.200 209.291 C 207.200 209.461,207.470 209.600,207.800 209.600 C 208.130 209.600,208.400 209.768,208.400 209.973 C 208.400 210.178,208.715 210.447,209.100 210.571 C 209.485 210.694,210.323 211.246,210.962 211.798 C 211.601 212.349,212.347 212.800,212.619 212.800 C 212.892 212.800,213.219 213.073,213.347 213.406 C 213.475 213.739,214.034 214.185,214.590 214.396 C 215.145 214.607,215.600 214.965,215.600 215.190 C 215.600 215.416,215.870 215.600,216.200 215.600 C 216.530 215.600,217.115 215.875,217.500 216.210 C 219.951 218.346,220.575 218.800,221.058 218.800 C 221.356 218.800,221.600 218.952,221.600 219.137 C 221.600 219.322,222.230 219.813,223.000 220.228 C 223.770 220.643,224.400 221.121,224.400 221.291 C 224.400 221.461,224.670 221.600,225.000 221.600 C 225.330 221.600,225.600 221.777,225.600 221.992 C 225.600 222.208,226.050 222.498,226.600 222.636 C 227.150 222.774,227.600 223.047,227.600 223.243 C 227.600 223.440,229.220 223.600,231.200 223.600 C 233.333 223.600,234.800 223.437,234.800 223.200 C 234.800 222.980,235.096 222.800,235.457 222.800 C 236.331 222.800,238.312 220.688,238.632 219.416 C 238.772 218.857,239.047 218.400,239.243 218.400 C 239.440 218.400,239.600 217.050,239.600 215.400 C 239.600 213.750,239.433 212.400,239.229 212.400 C 239.025 212.400,238.734 211.408,238.582 210.195 C 238.430 208.982,238.148 207.891,237.953 207.771 C 237.759 207.651,237.600 207.113,237.600 206.576 C 237.600 206.039,237.437 205.600,237.238 205.600 C 237.038 205.600,236.751 204.700,236.600 203.600 C 236.449 202.501,236.162 201.500,235.963 201.377 C 235.763 201.254,235.600 200.713,235.600 200.176 C 235.600 199.639,235.441 199.200,235.246 199.200 C 235.051 199.200,234.768 198.210,234.617 197.000 C 234.466 195.790,234.175 194.800,233.971 194.800 C 233.767 194.800,233.600 194.260,233.600 193.600 C 233.600 192.940,233.437 192.400,233.238 192.400 C 233.038 192.400,232.751 191.500,232.600 190.400 C 232.449 189.300,232.162 188.400,231.962 188.400 C 231.763 188.400,231.600 187.871,231.600 187.224 C 231.600 186.577,231.441 185.949,231.246 185.829 C 231.052 185.708,230.764 184.753,230.607 183.705 C 230.450 182.657,230.142 181.689,229.923 181.553 C 229.494 181.287,231.704 178.800,232.368 178.800 C 232.586 178.800,233.192 178.372,233.716 177.848 C 234.239 177.324,235.048 176.775,235.513 176.627 C 235.979 176.480,236.470 176.008,236.606 175.580 C 236.743 175.151,237.177 174.800,237.571 174.800 C 237.965 174.800,238.626 174.350,239.039 173.800 C 239.452 173.250,240.009 172.800,240.277 172.800 C 240.545 172.800,241.192 172.372,241.716 171.848 C 242.239 171.324,243.058 170.772,243.534 170.621 C 244.010 170.470,244.400 170.084,244.400 169.763 C 244.400 169.443,244.880 168.998,245.466 168.775 C 246.053 168.552,246.818 168.042,247.166 167.642 C 247.515 167.242,248.205 166.787,248.700 166.630 C 249.195 166.474,249.600 166.058,249.600 165.706 C 249.600 165.355,249.709 165.176,249.843 165.309 C 250.097 165.564,250.474 165.306,252.490 163.500 C 253.166 162.895,253.896 162.400,254.112 162.400 C 254.329 162.400,254.797 162.068,255.153 161.663 C 255.509 161.257,256.205 160.711,256.700 160.449 C 257.195 160.186,257.600 159.727,257.600 159.429 C 257.600 159.130,257.870 158.782,258.200 158.655 C 258.530 158.529,258.800 158.059,258.800 157.613 C 258.800 157.166,258.960 156.800,259.157 156.800 C 259.353 156.800,259.534 155.360,259.560 153.600 C 259.588 151.684,259.445 150.400,259.203 150.400 C 258.982 150.400,258.800 150.112,258.800 149.760 C 258.800 149.408,258.215 148.552,257.500 147.857 C 256.267 146.659,255.559 146.240,253.170 145.290 C 252.548 145.043,245.733 144.829,235.970 144.751 C 217.677 144.603,217.600 144.598,217.600 143.578 C 217.600 143.176,217.443 142.750,217.252 142.632 C 216.969 142.457,216.478 140.949,216.244 139.533 C 216.220 139.387,216.065 139.132,215.900 138.967 C 215.735 138.802,215.600 138.247,215.600 137.733 C 215.600 137.220,215.420 136.800,215.200 136.800 C 214.980 136.800,214.800 136.350,214.800 135.800 C 214.800 135.250,214.637 134.800,214.437 134.800 C 214.238 134.800,214.169 134.440,214.284 134.000 C 214.401 133.553,214.296 133.200,214.047 133.200 C 213.801 133.200,213.600 132.750,213.600 132.200 C 213.600 131.650,213.420 131.200,213.200 131.200 C 212.980 131.200,212.800 130.761,212.800 130.224 C 212.800 129.687,212.617 129.134,212.393 128.996 C 212.170 128.858,212.087 128.582,212.210 128.384 C 212.333 128.185,212.141 127.577,211.784 127.032 C 211.428 126.488,211.145 125.945,211.157 125.825 C 211.180 125.590,210.952 124.807,210.539 123.700 C 210.395 123.315,210.316 122.685,210.364 122.300 C 210.411 121.915,210.259 121.600,210.025 121.600 C 209.791 121.600,209.600 121.150,209.600 120.600 C 209.600 120.050,209.443 119.600,209.251 119.600 C 209.059 119.600,208.786 118.872,208.644 117.983 C 208.501 117.093,208.229 116.058,208.039 115.683 C 207.471 114.562,206.867 113.058,206.598 112.100 C 206.460 111.605,206.178 111.200,205.973 111.200 C 205.768 111.200,205.600 110.930,205.600 110.600 C 205.600 109.840,204.181 108.400,203.433 108.400 C 203.122 108.400,202.802 108.206,202.723 107.970 C 202.568 107.504,197.233 107.130,195.613 107.471 M200.055 145.600 C 200.497 146.577,200.821 147.381,201.427 149.000 C 201.591 149.440,201.690 150.025,201.646 150.300 C 201.601 150.575,201.753 150.800,201.982 150.800 C 202.212 150.800,202.400 151.250,202.400 151.800 C 202.400 152.350,202.563 152.800,202.762 152.800 C 202.962 152.800,203.249 153.700,203.400 154.800 C 203.551 155.900,203.810 156.800,203.975 156.800 C 204.139 156.800,204.613 157.430,205.028 158.200 C 205.443 158.970,205.989 159.600,206.242 159.600 C 206.495 159.600,206.926 159.870,207.200 160.200 C 207.474 160.530,208.306 160.800,209.049 160.800 C 209.792 160.800,210.400 160.994,210.400 161.230 C 210.400 161.480,211.112 161.632,212.100 161.593 C 213.035 161.556,216.588 161.543,219.996 161.563 L 226.192 161.600 225.196 162.507 C 224.648 163.005,223.210 164.121,222.000 164.987 C 220.790 165.853,219.377 166.968,218.860 167.466 C 218.342 167.964,217.577 168.480,217.160 168.613 C 216.742 168.745,216.400 169.122,216.400 169.451 C 216.400 169.779,216.220 169.936,216.000 169.800 C 215.780 169.664,215.600 169.743,215.600 169.976 C 215.600 170.209,215.360 170.400,215.066 170.400 C 213.829 170.400,211.354 174.215,211.709 175.574 C 211.828 176.028,211.744 176.400,211.523 176.400 C 211.057 176.400,211.512 181.282,212.008 181.600 C 212.180 181.710,212.383 182.160,212.460 182.600 C 212.537 183.040,212.724 183.494,212.876 183.609 C 213.028 183.724,213.270 184.714,213.414 185.809 C 213.558 186.904,213.838 187.971,214.038 188.180 C 214.237 188.389,214.400 188.974,214.400 189.480 C 214.400 189.986,214.580 190.400,214.800 190.400 C 215.020 190.400,215.200 190.940,215.200 191.600 C 215.200 192.267,215.413 192.800,215.680 192.800 C 216.013 192.800,216.032 192.928,215.743 193.217 C 215.314 193.646,212.808 192.523,212.803 191.900 C 212.801 191.735,212.429 191.600,211.976 191.600 C 211.523 191.600,211.256 191.433,211.382 191.229 C 211.508 191.025,211.219 190.733,210.740 190.581 C 210.260 190.429,209.439 189.876,208.916 189.352 C 208.392 188.828,207.702 188.400,207.382 188.400 C 207.062 188.400,206.800 188.238,206.800 188.040 C 206.800 187.681,204.087 185.868,203.485 185.823 C 203.312 185.810,203.017 185.550,202.828 185.245 C 202.049 183.985,195.568 184.225,194.128 185.567 C 193.694 185.971,192.947 186.426,192.469 186.578 C 191.991 186.730,191.600 187.022,191.600 187.227 C 191.600 187.432,191.330 187.600,191.000 187.600 C 190.670 187.600,190.400 187.741,190.400 187.914 C 190.400 188.086,189.815 188.572,189.100 188.994 C 187.611 189.871,187.109 190.246,185.744 191.500 C 185.205 191.995,184.496 192.400,184.169 192.400 C 183.842 192.400,183.478 192.652,183.360 192.961 C 183.121 193.582,181.600 194.123,181.600 193.586 C 181.600 193.400,181.763 193.146,181.963 193.023 C 182.162 192.900,182.449 191.899,182.600 190.800 C 182.751 189.700,183.038 188.800,183.238 188.800 C 183.437 188.800,183.600 188.361,183.600 187.824 C 183.600 187.287,183.763 186.746,183.963 186.623 C 184.162 186.500,184.449 185.499,184.600 184.400 C 184.751 183.300,185.038 182.400,185.238 182.400 C 185.437 182.400,185.600 181.871,185.600 181.224 C 185.600 180.577,185.756 179.951,185.947 179.833 C 186.437 179.530,186.484 175.200,185.998 175.200 C 185.779 175.200,185.600 174.924,185.600 174.586 C 185.600 173.390,182.534 169.600,181.567 169.600 C 181.344 169.600,180.745 169.150,180.235 168.600 C 179.725 168.050,179.104 167.600,178.854 167.600 C 178.604 167.600,178.400 167.401,178.400 167.157 C 178.400 166.914,178.121 166.822,177.779 166.953 C 177.438 167.084,177.247 167.048,177.355 166.872 C 177.464 166.697,177.076 166.204,176.493 165.777 C 175.911 165.350,175.137 164.710,174.773 164.355 C 174.408 164.001,173.546 163.377,172.855 162.969 C 170.749 161.725,171.327 161.600,179.200 161.600 C 183.380 161.600,186.800 161.443,186.800 161.252 C 186.800 161.061,187.586 160.815,188.546 160.707 C 190.426 160.495,192.800 158.681,192.800 157.457 C 192.800 157.096,192.980 156.800,193.200 156.800 C 193.420 156.800,193.600 156.530,193.600 156.200 C 193.600 155.870,193.763 155.600,193.962 155.600 C 194.162 155.600,194.449 154.700,194.600 153.600 C 194.751 152.500,195.057 151.600,195.280 151.600 C 195.503 151.600,195.584 151.335,195.460 151.012 C 195.336 150.688,195.469 150.188,195.756 149.902 C 196.042 149.615,196.406 148.696,196.562 147.860 C 196.719 147.024,197.167 145.768,197.558 145.070 C 197.948 144.371,198.414 143.260,198.592 142.600 L 198.915 141.400 199.259 143.000 C 199.449 143.880,199.807 145.050,200.055 145.600 M84.100 145.344 C 83.605 145.589,83.200 145.927,83.200 146.095 C 83.200 146.263,82.880 146.400,82.489 146.400 C 81.724 146.400,80.590 147.545,79.736 149.182 C 78.571 151.414,79.327 158.790,80.693 158.513 C 80.928 158.466,81.231 158.868,81.366 159.407 C 81.517 160.007,81.998 160.485,82.606 160.637 C 83.153 160.774,83.600 161.047,83.600 161.243 C 83.600 161.445,89.254 161.600,96.600 161.600 C 108.709 161.600,109.601 161.648,109.613 162.300 C 109.620 162.685,109.877 163.332,110.185 163.739 C 110.493 164.145,110.648 164.730,110.530 165.039 C 110.411 165.347,110.514 165.600,110.757 165.600 C 111.001 165.600,111.200 166.140,111.200 166.800 C 111.200 167.460,111.355 168.000,111.545 168.000 C 111.734 168.000,111.807 168.429,111.707 168.953 C 111.607 169.477,111.722 170.028,111.962 170.177 C 112.203 170.325,112.400 170.887,112.400 171.424 C 112.400 171.961,112.559 172.400,112.754 172.400 C 112.949 172.400,113.232 173.390,113.383 174.600 C 113.534 175.810,113.825 176.800,114.029 176.800 C 114.233 176.800,114.400 177.250,114.400 177.800 C 114.400 178.350,114.580 178.800,114.800 178.800 C 115.020 178.800,115.200 179.419,115.200 180.176 C 115.200 180.933,115.372 181.659,115.583 181.789 C 115.793 181.919,115.857 182.308,115.724 182.653 C 115.592 182.998,115.699 183.414,115.962 183.576 C 116.225 183.739,116.469 184.261,116.505 184.736 C 116.541 185.211,116.691 185.600,116.839 185.600 C 116.987 185.600,117.231 186.587,117.382 187.794 C 117.533 189.000,117.823 190.091,118.028 190.217 C 118.233 190.344,118.400 190.876,118.400 191.400 C 118.400 191.924,118.563 192.454,118.763 192.577 C 118.962 192.700,119.249 193.701,119.400 194.800 C 119.551 195.900,119.838 196.800,120.038 196.800 C 120.237 196.800,120.400 197.329,120.400 197.976 C 120.400 198.623,120.563 199.254,120.763 199.377 C 120.962 199.500,121.249 200.501,121.400 201.600 C 121.551 202.700,121.838 203.600,122.038 203.600 C 122.237 203.600,122.400 204.140,122.400 204.800 C 122.400 205.460,122.580 206.000,122.800 206.000 C 123.020 206.000,123.200 206.529,123.200 207.176 C 123.200 207.823,123.372 208.459,123.583 208.589 C 123.793 208.719,123.857 209.108,123.724 209.453 C 123.592 209.798,123.712 210.222,123.992 210.395 C 124.271 210.568,124.500 211.179,124.500 211.755 C 124.500 212.330,124.641 212.800,124.812 212.800 C 124.984 212.800,125.249 213.700,125.400 214.800 C 125.551 215.899,125.838 216.900,126.037 217.023 C 126.237 217.146,126.400 217.777,126.400 218.424 C 126.400 219.071,126.560 219.600,126.755 219.600 C 127.100 219.600,127.610 221.503,127.637 222.892 C 127.645 223.273,127.819 223.688,128.025 223.816 C 128.231 223.943,128.400 224.476,128.400 225.000 C 128.400 225.524,128.559 226.051,128.754 226.171 C 128.948 226.292,129.235 227.241,129.391 228.281 C 129.547 229.321,129.914 230.514,130.207 230.932 C 130.500 231.350,130.644 231.941,130.527 232.246 C 130.410 232.551,130.514 232.800,130.757 232.800 C 131.001 232.800,131.200 233.239,131.200 233.776 C 131.200 234.313,131.356 234.849,131.546 234.967 C 131.737 235.085,131.810 235.614,131.709 236.144 C 131.607 236.673,131.722 237.228,131.962 237.377 C 132.203 237.525,132.400 238.072,132.400 238.590 C 132.400 239.109,132.594 239.598,132.830 239.677 C 133.067 239.756,133.351 240.716,133.462 241.810 C 133.573 242.905,133.829 243.971,134.032 244.180 C 134.234 244.389,134.400 244.974,134.400 245.480 C 134.400 245.986,134.560 246.400,134.755 246.400 C 135.134 246.400,135.631 248.416,135.617 249.900 C 135.613 250.395,135.787 250.800,136.004 250.800 C 136.222 250.800,136.400 251.520,136.400 252.400 C 136.400 253.280,136.580 254.000,136.800 254.000 C 137.020 254.000,137.200 254.360,137.200 254.800 C 137.200 255.240,137.363 255.600,137.563 255.600 C 137.762 255.600,137.833 255.954,137.720 256.386 C 137.607 256.818,137.796 257.453,138.140 257.797 C 138.484 258.141,138.664 258.688,138.540 259.012 C 138.416 259.335,138.490 259.600,138.706 259.600 C 138.921 259.600,139.218 260.516,139.367 261.635 C 139.515 262.754,139.840 263.995,140.089 264.393 C 140.612 265.231,139.739 266.400,138.590 266.400 C 137.951 266.400,135.617 267.534,135.200 268.046 C 135.090 268.181,134.595 268.419,134.100 268.573 C 133.605 268.728,133.200 269.112,133.200 269.427 C 133.200 269.742,133.065 269.962,132.900 269.915 C 132.052 269.675,127.380 273.647,127.900 274.167 C 128.028 274.295,127.932 274.400,127.685 274.400 C 127.015 274.400,124.400 277.252,124.400 277.983 C 124.400 278.212,124.223 278.400,124.008 278.400 C 123.792 278.400,123.502 278.850,123.364 279.400 C 123.226 279.950,122.953 280.400,122.757 280.400 C 122.560 280.400,122.400 280.670,122.400 281.000 C 122.400 281.330,122.234 281.600,122.032 281.600 C 121.829 281.600,121.536 282.179,121.381 282.887 C 121.113 284.109,120.960 284.495,119.986 286.417 C 119.759 286.866,119.462 288.666,119.327 290.417 C 119.192 292.168,118.928 293.600,118.741 293.600 C 118.273 293.600,118.308 299.044,118.782 299.905 C 118.991 300.287,119.277 301.995,119.416 303.700 C 119.555 305.405,119.833 306.800,120.034 306.800 C 120.235 306.800,120.400 307.250,120.400 307.800 C 120.400 308.350,120.560 308.800,120.755 308.800 C 120.951 308.800,121.229 309.430,121.374 310.200 C 121.528 311.021,121.872 311.600,122.206 311.600 C 122.547 311.600,122.683 311.840,122.545 312.200 C 122.418 312.530,122.494 312.800,122.714 312.800 C 122.934 312.800,123.226 313.250,123.364 313.800 C 123.502 314.350,123.792 314.800,124.008 314.800 C 124.223 314.800,124.400 315.060,124.400 315.377 C 124.400 315.695,124.759 316.206,125.197 316.513 C 125.636 316.820,125.876 317.191,125.731 317.336 C 125.586 317.481,125.677 317.600,125.933 317.600 C 126.190 317.600,126.400 317.802,126.400 318.048 C 126.400 318.678,129.719 321.765,133.000 324.184 C 133.440 324.509,134.216 324.780,134.724 324.787 C 135.232 324.794,135.548 324.960,135.427 325.156 C 135.182 325.552,137.560 326.800,138.560 326.800 C 138.912 326.800,139.200 326.980,139.200 327.200 C 139.200 327.420,139.650 327.600,140.200 327.600 C 140.750 327.600,141.200 327.767,141.200 327.971 C 141.200 328.175,142.235 328.454,143.500 328.591 C 144.765 328.727,146.090 328.997,146.445 329.189 C 147.267 329.634,155.658 329.649,156.196 329.206 C 156.418 329.023,157.583 328.765,158.785 328.632 C 161.208 328.364,163.600 327.613,163.600 327.120 C 163.600 326.944,164.005 326.792,164.500 326.783 C 164.995 326.773,166.120 326.325,167.000 325.787 C 167.880 325.249,169.010 324.629,169.510 324.410 C 170.011 324.191,170.525 323.739,170.653 323.406 C 170.781 323.073,171.114 322.800,171.393 322.800 C 172.327 322.800,178.800 315.940,178.800 314.950 C 178.800 314.647,178.991 314.400,179.224 314.400 C 179.457 314.400,179.548 314.239,179.426 314.042 C 179.304 313.845,179.457 313.587,179.765 313.469 C 180.073 313.351,180.446 312.702,180.594 312.027 C 180.742 311.352,181.029 310.800,181.232 310.800 C 181.434 310.800,181.600 310.365,181.600 309.833 C 181.600 309.302,181.798 308.801,182.039 308.720 C 182.281 308.640,182.574 307.725,182.691 306.687 C 182.808 305.649,183.061 304.800,183.252 304.800 C 183.443 304.800,183.600 304.091,183.600 303.224 C 183.600 302.357,183.758 301.550,183.950 301.431 C 184.441 301.127,184.483 292.098,183.994 291.797 C 183.778 291.662,183.600 290.843,183.600 289.976 C 183.600 289.109,183.440 288.400,183.245 288.400 C 183.050 288.400,182.765 287.562,182.612 286.538 C 182.458 285.513,182.076 284.419,181.762 284.105 C 181.449 283.792,181.295 283.370,181.420 283.168 C 181.545 282.965,181.502 282.799,181.324 282.797 C 181.146 282.795,180.792 282.345,180.538 281.797 L 180.075 280.800 208.828 280.800 L 237.580 280.800 237.327 282.100 C 237.188 282.815,236.968 283.490,236.837 283.600 C 236.173 284.160,235.530 285.871,235.322 287.631 C 235.194 288.714,234.940 289.600,234.759 289.600 C 234.577 289.600,234.434 292.750,234.440 296.600 C 234.446 300.675,234.607 303.600,234.825 303.600 C 235.031 303.600,235.200 304.219,235.200 304.976 C 235.200 305.733,235.372 306.459,235.583 306.589 C 235.793 306.719,235.871 307.072,235.755 307.372 C 235.640 307.673,235.738 308.038,235.973 308.183 C 236.208 308.328,236.400 308.797,236.400 309.224 C 236.400 309.651,236.580 310.000,236.800 310.000 C 237.020 310.000,237.200 310.360,237.200 310.800 C 237.200 311.240,237.374 311.600,237.587 311.600 C 237.801 311.600,237.871 311.870,237.745 312.200 C 237.618 312.530,237.714 312.800,237.957 312.800 C 238.201 312.800,238.400 313.030,238.400 313.312 C 238.400 313.593,238.750 314.076,239.179 314.385 C 239.607 314.693,239.887 315.059,239.801 315.198 C 239.535 315.629,244.023 320.800,244.664 320.800 C 244.929 320.800,245.257 321.151,245.394 321.580 C 245.530 322.008,245.992 322.470,246.420 322.606 C 246.849 322.743,247.200 323.041,247.200 323.270 C 247.200 323.498,247.470 323.582,247.800 323.455 C 248.157 323.318,248.400 323.452,248.400 323.786 C 248.400 324.094,248.805 324.472,249.300 324.627 C 249.795 324.781,250.290 325.028,250.400 325.175 C 250.678 325.546,253.425 326.800,253.960 326.800 C 254.202 326.800,254.400 326.999,254.400 327.243 C 254.400 327.486,254.649 327.590,254.954 327.473 C 255.259 327.356,255.880 327.521,256.335 327.840 C 256.790 328.158,258.206 328.523,259.481 328.651 C 260.756 328.778,262.000 329.045,262.244 329.244 C 262.782 329.681,271.600 329.663,271.600 329.224 C 271.600 329.054,272.661 328.803,273.958 328.667 C 275.255 328.532,276.830 328.211,277.458 327.954 C 278.086 327.698,279.230 327.231,280.000 326.917 C 282.291 325.982,283.369 325.429,283.929 324.900 C 284.219 324.625,284.675 324.400,284.940 324.400 C 285.206 324.400,285.683 324.040,286.000 323.600 C 286.317 323.160,286.777 322.800,287.022 322.800 C 287.267 322.800,287.936 322.305,288.509 321.700 C 289.081 321.095,289.786 320.389,290.075 320.130 C 291.862 318.531,294.800 314.790,294.800 314.113 C 294.800 313.831,294.938 313.600,295.106 313.600 C 295.427 313.600,296.800 310.680,296.800 309.997 C 296.800 309.779,296.980 309.600,297.200 309.600 C 297.420 309.600,297.600 309.150,297.600 308.600 C 297.600 308.050,297.767 307.600,297.971 307.600 C 298.175 307.600,298.454 306.565,298.591 305.300 C 298.727 304.035,299.017 302.676,299.235 302.281 C 299.709 301.419,299.661 291.723,299.178 290.828 C 298.992 290.483,298.727 289.165,298.591 287.900 C 298.454 286.635,298.175 285.600,297.971 285.600 C 297.767 285.600,297.600 285.328,297.600 284.995 C 297.600 284.662,297.429 284.077,297.219 283.695 C 297.010 283.313,296.522 282.280,296.135 281.400 C 295.317 279.542,294.619 278.721,294.198 279.119 C 294.034 279.274,294.012 279.037,294.148 278.593 C 294.324 278.018,294.108 277.570,293.397 277.037 C 292.849 276.625,292.400 276.076,292.400 275.816 C 292.400 275.557,291.995 274.961,291.500 274.492 C 291.005 274.023,290.420 273.446,290.200 273.211 C 288.983 271.907,287.501 270.814,287.201 270.999 C 287.012 271.116,286.755 270.894,286.630 270.506 C 286.385 269.747,284.298 268.400,283.368 268.400 C 283.055 268.400,282.800 268.220,282.800 268.000 C 282.800 267.780,282.545 267.600,282.233 267.600 C 281.922 267.600,281.607 267.431,281.533 267.224 C 281.460 267.016,280.861 266.750,280.203 266.632 C 279.545 266.514,278.945 266.234,278.870 266.009 C 278.795 265.784,278.309 265.600,277.790 265.600 C 277.272 265.600,276.725 265.403,276.576 265.162 C 276.427 264.920,275.796 264.798,275.174 264.889 C 274.551 264.981,274.133 264.908,274.245 264.728 C 274.356 264.547,273.357 264.400,272.024 264.400 C 270.567 264.400,269.600 264.229,269.600 263.971 C 269.600 263.712,268.850 263.585,267.700 263.649 C 256.747 264.258,157.600 263.524,157.600 262.833 C 157.600 262.412,157.447 262.007,157.261 261.933 C 157.074 261.860,156.805 261.055,156.663 260.144 L 156.404 258.487 157.902 258.211 C 158.726 258.059,160.795 257.845,162.500 257.737 C 164.205 257.628,165.600 257.395,165.600 257.218 C 165.600 257.041,168.255 256.766,171.500 256.606 C 174.745 256.447,177.612 256.144,177.871 255.933 C 178.130 255.722,179.565 255.550,181.060 255.550 C 182.555 255.550,183.965 255.395,184.194 255.205 C 184.670 254.810,190.361 254.313,193.534 254.390 C 194.707 254.419,195.923 254.230,196.236 253.970 C 196.568 253.694,197.952 253.522,199.574 253.556 C 201.098 253.587,202.445 253.450,202.568 253.252 C 202.691 253.053,205.493 252.760,208.795 252.600 C 212.098 252.440,214.800 252.150,214.800 251.955 C 214.800 251.760,216.072 251.600,217.626 251.600 C 219.181 251.600,220.790 251.420,221.202 251.199 C 221.614 250.979,223.222 250.779,224.775 250.755 C 226.329 250.731,227.600 250.578,227.600 250.413 C 227.600 250.249,228.843 250.188,230.363 250.279 C 232.048 250.380,233.227 250.280,233.386 250.022 C 233.532 249.787,234.967 249.600,236.624 249.600 C 238.261 249.600,239.600 249.442,239.600 249.248 C 239.600 249.055,242.391 248.766,245.802 248.606 C 249.214 248.446,252.104 248.155,252.226 247.958 C 252.348 247.761,253.787 247.600,255.424 247.600 C 257.141 247.600,258.400 247.431,258.400 247.200 C 258.400 246.980,258.895 246.798,259.500 246.795 C 261.233 246.786,262.400 246.357,262.400 245.730 C 262.400 245.412,262.590 245.270,262.821 245.413 C 263.305 245.712,264.800 244.145,264.800 243.339 C 264.800 243.042,264.980 242.800,265.200 242.800 C 265.420 242.800,265.600 242.551,265.600 242.246 C 265.600 241.941,265.869 241.176,266.198 240.546 C 266.526 239.916,266.796 238.995,266.798 238.500 C 266.799 238.005,266.936 237.600,267.102 237.600 C 267.496 237.600,268.311 235.743,268.641 234.097 C 268.783 233.384,269.058 232.800,269.250 232.800 C 269.443 232.800,269.600 232.350,269.600 231.800 C 269.600 231.250,269.764 230.800,269.965 230.800 C 270.166 230.800,270.451 230.080,270.600 229.200 C 270.749 228.320,271.034 227.600,271.235 227.600 C 271.436 227.600,271.600 227.150,271.600 226.600 C 271.600 226.050,271.778 225.600,271.995 225.600 C 272.213 225.600,272.506 224.880,272.646 224.000 C 272.787 223.120,273.059 222.400,273.251 222.400 C 273.443 222.400,273.600 222.040,273.600 221.600 C 273.600 221.160,273.791 220.800,274.025 220.800 C 274.259 220.800,274.400 220.485,274.338 220.100 C 274.276 219.715,274.535 218.787,274.913 218.039 C 275.291 217.290,275.600 216.435,275.600 216.139 C 275.600 215.842,275.780 215.600,276.000 215.600 C 276.220 215.600,276.401 215.195,276.402 214.700 C 276.404 214.205,276.674 213.284,277.002 212.654 C 277.331 212.024,277.600 211.259,277.600 210.954 C 277.600 210.649,277.769 210.400,277.975 210.400 C 278.182 210.400,278.472 209.590,278.621 208.600 C 278.769 207.610,279.031 206.800,279.202 206.800 C 279.462 206.800,280.049 205.299,280.167 204.333 C 280.185 204.187,280.335 203.932,280.500 203.767 C 280.665 203.602,280.800 203.047,280.800 202.533 C 280.800 202.020,280.936 201.600,281.102 201.600 C 281.496 201.600,282.311 199.743,282.641 198.097 C 282.783 197.384,283.058 196.800,283.250 196.800 C 283.443 196.800,283.600 196.350,283.600 195.800 C 283.600 195.250,283.764 194.800,283.965 194.800 C 284.166 194.800,284.451 194.080,284.600 193.200 C 284.749 192.320,285.034 191.600,285.235 191.600 C 285.436 191.600,285.600 191.150,285.600 190.600 C 285.600 190.050,285.801 189.600,286.047 189.600 C 286.296 189.600,286.401 189.247,286.284 188.800 C 286.169 188.360,286.238 188.000,286.437 188.000 C 286.848 188.000,286.927 183.937,286.553 182.066 C 286.298 180.792,284.080 178.180,282.505 177.300 C 281.431 176.699,275.200 176.614,275.200 177.200 C 275.200 177.420,274.927 177.600,274.593 177.600 C 273.836 177.600,271.200 180.268,271.200 181.034 C 271.200 181.345,271.001 181.600,270.757 181.600 C 270.514 181.600,270.413 181.857,270.533 182.171 C 270.654 182.485,270.492 182.958,270.173 183.223 C 269.854 183.487,269.481 184.401,269.345 185.252 C 269.209 186.103,268.922 186.800,268.706 186.800 C 268.491 186.800,268.416 187.065,268.541 187.389 C 268.665 187.714,268.510 188.122,268.197 188.298 C 267.883 188.473,267.581 189.219,267.525 189.955 C 267.469 190.691,267.193 191.381,266.911 191.489 C 266.630 191.597,266.400 192.116,266.400 192.643 C 266.400 193.169,266.199 193.600,265.953 193.600 C 265.704 193.600,265.599 193.953,265.716 194.400 C 265.831 194.840,265.762 195.200,265.563 195.200 C 265.363 195.200,265.200 195.549,265.200 195.976 C 265.200 196.403,265.020 196.864,264.800 197.000 C 264.580 197.136,264.400 197.597,264.400 198.024 C 264.400 198.451,264.201 198.800,263.957 198.800 C 263.714 198.800,263.616 199.064,263.740 199.387 C 263.864 199.710,263.793 200.081,263.583 200.211 C 263.372 200.341,263.200 200.887,263.200 201.424 C 263.200 201.961,263.064 202.400,262.898 202.400 C 262.504 202.400,261.689 204.257,261.359 205.903 C 261.217 206.616,260.943 207.200,260.750 207.200 C 260.558 207.200,260.400 207.549,260.400 207.976 C 260.400 208.403,260.236 208.854,260.035 208.978 C 259.834 209.103,259.548 209.923,259.400 210.802 C 259.251 211.681,258.966 212.400,258.765 212.400 C 258.564 212.400,258.400 212.850,258.400 213.400 C 258.400 213.950,258.222 214.400,258.005 214.400 C 257.787 214.400,257.494 215.120,257.354 216.000 C 257.213 216.880,256.941 217.600,256.749 217.600 C 256.557 217.600,256.400 217.960,256.400 218.400 C 256.400 218.840,256.236 219.200,256.035 219.200 C 255.834 219.200,255.549 219.919,255.400 220.798 C 255.252 221.677,254.966 222.497,254.765 222.622 C 254.564 222.746,254.400 223.197,254.400 223.624 C 254.400 224.051,254.243 224.400,254.051 224.400 C 253.859 224.400,253.587 225.120,253.446 226.000 C 253.306 226.880,253.013 227.600,252.795 227.600 C 252.578 227.600,252.400 228.050,252.400 228.600 C 252.400 229.150,252.201 229.600,251.957 229.600 C 251.714 229.600,251.618 229.870,251.745 230.200 C 251.928 230.679,251.609 230.800,250.161 230.800 C 249.164 230.800,248.003 230.985,247.581 231.210 C 247.160 231.436,245.552 231.632,244.008 231.646 C 242.463 231.661,241.200 231.815,241.200 231.988 C 241.200 232.161,238.545 232.434,235.300 232.594 C 232.055 232.753,229.196 233.049,228.947 233.252 C 228.698 233.454,227.214 233.631,225.649 233.646 C 224.083 233.661,222.716 233.813,222.610 233.985 C 222.503 234.156,219.848 234.428,216.708 234.588 C 213.545 234.749,210.757 235.078,210.455 235.326 C 210.143 235.581,208.646 235.743,206.955 235.703 C 205.330 235.665,204.000 235.781,204.000 235.961 C 204.000 236.140,201.441 236.418,198.313 236.576 C 195.185 236.735,192.317 237.030,191.939 237.233 C 191.562 237.435,189.991 237.600,188.450 237.600 C 186.908 237.600,185.550 237.758,185.430 237.951 C 185.311 238.145,182.599 238.433,179.404 238.593 C 176.210 238.753,173.496 239.045,173.374 239.242 C 173.252 239.439,171.849 239.600,170.256 239.600 C 168.663 239.600,167.189 239.763,166.980 239.962 C 166.771 240.161,164.080 240.450,161.000 240.603 C 157.920 240.756,155.097 241.043,154.726 241.241 C 152.654 242.345,150.905 241.697,150.608 239.714 C 150.453 238.677,150.086 237.486,149.793 237.068 C 149.500 236.650,149.356 236.059,149.473 235.754 C 149.590 235.449,149.506 235.200,149.287 235.200 C 148.921 235.200,148.420 233.182,148.370 231.508 C 148.358 231.127,148.181 230.712,147.975 230.584 C 147.769 230.457,147.600 229.913,147.600 229.376 C 147.600 228.839,147.443 228.400,147.251 228.400 C 146.906 228.400,146.218 225.439,146.352 224.530 C 146.390 224.272,146.236 223.946,146.011 223.807 C 145.785 223.667,145.600 223.113,145.600 222.576 C 145.600 222.039,145.420 221.600,145.200 221.600 C 144.980 221.600,144.800 221.150,144.800 220.600 C 144.800 220.050,144.625 219.600,144.410 219.600 C 144.190 219.600,144.125 219.077,144.260 218.400 C 144.413 217.636,144.337 217.200,144.050 217.200 C 143.803 217.200,143.600 216.761,143.600 216.224 C 143.600 215.687,143.420 215.136,143.200 215.000 C 142.980 214.864,142.800 214.324,142.800 213.800 C 142.800 213.276,142.644 212.751,142.454 212.633 C 142.263 212.515,142.194 211.965,142.300 211.410 C 142.413 210.818,142.308 210.400,142.047 210.400 C 141.801 210.400,141.600 209.950,141.600 209.400 C 141.600 208.850,141.440 208.400,141.244 208.400 C 140.882 208.400,140.388 206.143,140.390 204.500 C 140.391 204.005,140.213 203.600,139.996 203.600 C 139.778 203.600,139.600 203.150,139.600 202.600 C 139.600 202.050,139.440 201.600,139.244 201.600 C 138.913 201.600,138.418 199.507,138.370 197.908 C 138.358 197.527,138.181 197.112,137.975 196.984 C 137.769 196.857,137.600 196.313,137.600 195.776 C 137.600 195.239,137.440 194.800,137.244 194.800 C 136.912 194.800,136.416 192.700,136.370 191.100 C 136.359 190.715,136.181 190.400,135.975 190.400 C 135.769 190.400,135.600 189.950,135.600 189.400 C 135.600 188.850,135.443 188.400,135.252 188.400 C 135.060 188.400,134.781 187.320,134.632 186.000 C 134.482 184.680,134.189 183.600,133.980 183.600 C 133.771 183.600,133.600 183.161,133.600 182.624 C 133.600 182.087,133.437 181.546,133.237 181.423 C 133.038 181.300,132.751 180.300,132.600 179.200 C 132.449 178.100,132.162 177.100,131.963 176.977 C 131.763 176.854,131.600 176.324,131.600 175.800 C 131.600 175.276,131.437 174.746,131.237 174.623 C 131.038 174.500,130.751 173.499,130.600 172.400 C 130.449 171.300,130.162 170.400,129.962 170.400 C 129.763 170.400,129.600 169.871,129.600 169.224 C 129.600 168.577,129.437 167.946,129.237 167.823 C 129.038 167.700,128.751 166.699,128.600 165.600 C 128.449 164.500,128.162 163.600,127.962 163.600 C 127.763 163.600,127.600 163.060,127.600 162.400 C 127.600 161.740,127.420 161.200,127.200 161.200 C 126.980 161.200,126.800 160.671,126.800 160.024 C 126.800 159.377,126.637 158.746,126.438 158.623 C 126.238 158.500,126.169 158.039,126.284 157.600 C 126.401 157.153,126.296 156.800,126.047 156.800 C 125.801 156.800,125.600 156.260,125.600 155.600 C 125.600 154.940,125.420 154.400,125.200 154.400 C 124.980 154.400,124.800 153.961,124.800 153.424 C 124.800 152.887,124.637 152.346,124.438 152.223 C 124.238 152.100,124.177 151.611,124.301 151.137 C 124.455 150.546,124.380 150.365,124.063 150.561 C 123.758 150.749,123.600 150.497,123.600 149.824 C 123.600 149.261,123.463 148.800,123.295 148.800 C 123.127 148.800,122.812 148.395,122.595 147.900 C 122.378 147.405,121.795 146.822,121.300 146.605 C 120.805 146.388,120.400 146.073,120.400 145.905 C 120.400 145.737,120.040 145.600,119.600 145.600 C 119.160 145.600,118.800 145.420,118.800 145.200 C 118.800 144.616,85.290 144.755,84.100 145.344 M154.400 281.200 C 154.400 281.420,154.929 281.600,155.576 281.600 C 156.223 281.600,156.852 281.760,156.973 281.956 C 157.094 282.151,157.678 282.433,158.273 282.582 C 158.867 282.732,159.633 283.169,159.976 283.555 C 160.319 283.941,161.185 284.598,161.900 285.015 C 162.615 285.431,163.200 285.995,163.200 286.268 C 163.200 286.541,163.650 287.214,164.200 287.764 C 164.750 288.314,165.200 288.952,165.200 289.182 C 165.200 289.412,165.374 289.600,165.587 289.600 C 165.801 289.600,165.871 289.870,165.745 290.200 C 165.618 290.530,165.714 290.800,165.957 290.800 C 166.201 290.800,166.400 291.235,166.400 291.767 C 166.400 292.298,166.580 292.793,166.800 292.867 C 167.363 293.054,167.399 300.134,166.839 300.320 C 166.597 300.401,166.400 300.797,166.400 301.201 C 166.400 301.997,165.187 304.517,164.700 304.733 C 164.535 304.807,164.400 305.098,164.400 305.381 C 164.400 306.050,160.850 309.600,160.181 309.600 C 159.898 309.600,159.607 309.735,159.533 309.900 C 159.460 310.065,158.680 310.535,157.800 310.944 C 156.920 311.354,155.864 311.863,155.454 312.076 C 154.398 312.625,147.925 312.526,147.572 311.955 C 147.417 311.704,147.104 311.612,146.877 311.752 C 146.650 311.893,146.202 311.745,145.881 311.423 C 145.559 311.102,144.810 310.717,144.215 310.568 C 143.620 310.419,142.732 309.915,142.243 309.448 C 141.754 308.982,140.974 308.346,140.510 308.036 C 140.046 307.725,139.444 307.056,139.173 306.549 C 138.901 306.042,138.529 305.721,138.344 305.834 C 138.160 305.948,138.116 305.762,138.247 305.421 C 138.378 305.079,138.286 304.800,138.043 304.800 C 137.799 304.800,137.600 304.530,137.600 304.200 C 137.600 303.870,137.428 303.600,137.218 303.600 C 137.008 303.600,136.728 302.925,136.596 302.100 C 136.464 301.275,136.186 300.287,135.978 299.905 C 135.433 298.905,135.491 293.600,136.047 293.600 C 136.296 293.600,136.401 293.247,136.284 292.800 C 136.169 292.361,136.238 291.900,136.438 291.777 C 136.637 291.654,136.800 291.237,136.800 290.852 C 136.800 290.466,137.176 289.748,137.635 289.255 C 138.094 288.762,138.367 288.092,138.242 287.767 C 138.100 287.394,138.346 287.047,138.908 286.830 C 139.971 286.419,141.642 284.576,141.280 284.213 C 141.139 284.073,141.334 284.076,141.712 284.222 C 142.107 284.373,142.400 284.297,142.400 284.043 C 142.400 283.799,142.593 283.600,142.829 283.600 C 143.064 283.600,143.527 283.330,143.857 283.000 C 144.187 282.670,144.782 282.400,145.180 282.400 C 145.577 282.400,146.111 282.149,146.366 281.841 C 146.621 281.534,147.183 281.375,147.615 281.488 C 148.049 281.601,148.400 281.494,148.400 281.247 C 148.400 280.957,149.458 280.800,151.400 280.800 C 153.133 280.800,154.400 280.969,154.400 281.200 M270.000 281.227 C 270.000 281.464,270.337 281.547,270.758 281.413 C 271.203 281.272,271.785 281.442,272.168 281.825 C 272.527 282.184,273.095 282.372,273.431 282.243 C 273.779 282.110,273.936 282.179,273.797 282.405 C 273.663 282.622,273.880 282.800,274.280 282.800 C 274.680 282.800,275.232 283.160,275.507 283.600 C 275.782 284.040,276.211 284.400,276.460 284.400 C 277.467 284.400,280.928 288.977,281.429 290.971 C 281.572 291.541,281.849 292.106,282.044 292.227 C 282.240 292.348,282.400 293.157,282.400 294.024 C 282.400 294.891,282.580 295.600,282.800 295.600 C 283.020 295.600,283.200 296.050,283.200 296.600 C 283.200 297.150,283.020 297.600,282.800 297.600 C 282.580 297.600,282.400 298.309,282.400 299.176 C 282.400 300.043,282.213 300.869,281.984 301.010 C 281.755 301.152,281.677 301.612,281.811 302.034 C 281.947 302.462,281.866 302.800,281.627 302.800 C 281.392 302.800,281.200 303.078,281.200 303.417 C 281.200 303.756,280.840 304.420,280.400 304.892 C 279.960 305.364,279.600 305.987,279.600 306.275 C 279.600 306.564,279.408 306.800,279.173 306.800 C 278.938 306.800,278.152 307.430,277.426 308.200 C 276.700 308.970,275.902 309.600,275.653 309.600 C 275.404 309.600,275.200 309.745,275.200 309.923 C 275.200 310.268,272.420 311.600,271.699 311.600 C 271.461 311.600,271.207 311.776,271.133 311.992 C 270.927 312.601,263.166 312.593,262.790 311.984 C 262.620 311.709,262.186 311.597,261.825 311.735 C 261.441 311.882,261.081 311.756,260.956 311.429 C 260.838 311.123,260.281 310.756,259.717 310.615 C 258.603 310.335,253.600 305.637,253.600 304.871 C 253.600 304.612,253.434 304.400,253.232 304.400 C 253.029 304.400,252.737 303.815,252.582 303.100 C 252.426 302.385,252.147 301.702,251.960 301.583 C 251.773 301.463,251.560 300.973,251.487 300.493 C 251.414 300.013,251.229 299.496,251.077 299.344 C 250.646 298.912,250.752 294.477,251.200 294.200 C 251.420 294.064,251.600 293.423,251.600 292.776 C 251.600 292.129,251.772 291.600,251.982 291.600 C 252.192 291.600,252.482 290.970,252.626 290.200 C 252.771 289.430,253.049 288.800,253.245 288.800 C 253.440 288.800,253.600 288.608,253.600 288.374 C 253.600 287.819,257.819 283.600,258.374 283.600 C 258.608 283.600,258.800 283.440,258.800 283.245 C 258.800 283.049,259.430 282.771,260.200 282.626 C 260.970 282.482,261.600 282.192,261.600 281.982 C 261.600 281.772,262.050 281.600,262.600 281.600 C 263.150 281.600,263.600 281.420,263.600 281.200 C 263.600 280.967,264.933 280.800,266.800 280.800 C 268.801 280.800,270.000 280.960,270.000 281.227 " stroke="none" fill="#fcfcfc" fill-rule="evenodd"></path><path id="path1" d="" stroke="none" fill="#80848c" fill-rule="evenodd"></path><path id="path2" d="" stroke="none" fill="#80848c" fill-rule="evenodd"></path><path id="path3" d="" stroke="none" fill="#80848c" fill-rule="evenodd"></path><path id="path4" d="" stroke="none" fill="#80848c" fill-rule="evenodd"></path></g></svg>