<svg id="svg" version="1.1" xmlns="http://www.w3.org/2000/svg" xmlns:xlink="http://www.w3.org/1999/xlink" width="400" height="429.3333333333333" viewBox="0, 0, 400,429.3333333333333"><g id="svgg"><path id="path0" d="M169.908 1.425 C 169.750 1.583,167.616 1.682,165.166 1.645 C 162.463 1.603,160.506 1.746,160.191 2.008 C 159.904 2.245,158.215 2.455,156.435 2.475 C 154.656 2.494,153.200 2.641,153.200 2.801 C 153.200 2.961,150.725 3.223,147.700 3.382 C 144.675 3.542,141.981 3.853,141.713 4.075 C 141.445 4.296,140.320 4.470,139.213 4.461 C 138.106 4.453,137.200 4.599,137.200 4.786 C 137.200 5.127,133.795 5.574,131.234 5.569 C 130.483 5.567,129.747 5.762,129.599 6.002 C 129.451 6.241,128.581 6.467,127.665 6.504 C 126.749 6.540,126.000 6.696,126.000 6.851 C 126.000 7.005,124.647 7.258,122.994 7.413 C 121.341 7.568,119.890 7.854,119.771 8.048 C 119.651 8.241,119.023 8.400,118.376 8.400 C 117.729 8.400,117.200 8.580,117.200 8.800 C 117.200 9.020,116.570 9.200,115.800 9.200 C 115.030 9.200,114.400 9.349,114.400 9.531 C 114.400 9.713,113.881 9.785,113.247 9.692 C 112.613 9.599,111.973 9.720,111.824 9.962 C 111.675 10.203,111.023 10.400,110.376 10.400 C 109.729 10.400,109.200 10.580,109.200 10.800 C 109.200 11.020,108.780 11.200,108.267 11.200 C 107.753 11.200,107.212 11.321,107.064 11.470 C 106.916 11.618,106.391 11.789,105.897 11.851 C 103.923 12.096,102.400 12.507,102.400 12.794 C 102.400 12.961,101.672 13.214,100.783 13.356 C 99.893 13.499,98.858 13.777,98.483 13.974 C 96.733 14.894,94.803 15.600,94.040 15.600 C 93.578 15.600,93.200 15.780,93.200 16.000 C 93.200 16.220,92.750 16.400,92.200 16.400 C 91.650 16.400,91.200 16.580,91.200 16.800 C 91.200 17.020,90.885 17.201,90.500 17.202 C 90.115 17.204,89.284 17.474,88.654 17.802 C 88.024 18.131,87.259 18.400,86.954 18.400 C 86.649 18.400,86.400 18.572,86.400 18.782 C 86.400 18.992,85.770 19.282,85.000 19.426 C 84.230 19.571,83.600 19.849,83.600 20.045 C 83.600 20.240,83.366 20.400,83.080 20.400 C 82.357 20.400,80.407 21.338,80.403 21.687 C 80.401 21.846,80.130 21.871,79.800 21.745 C 79.470 21.618,79.200 21.714,79.200 21.957 C 79.200 22.201,78.840 22.400,78.400 22.400 C 77.960 22.400,77.600 22.566,77.600 22.768 C 77.600 22.971,77.060 23.255,76.400 23.400 C 75.740 23.545,75.200 23.829,75.200 24.032 C 75.200 24.234,74.970 24.400,74.688 24.400 C 74.407 24.400,73.934 24.737,73.637 25.149 C 73.315 25.596,72.795 25.819,72.348 25.702 C 71.937 25.595,71.600 25.708,71.600 25.953 C 71.600 26.199,71.330 26.400,71.000 26.400 C 70.670 26.400,70.400 26.560,70.400 26.757 C 70.400 26.953,69.950 27.226,69.400 27.364 C 68.850 27.502,68.400 27.792,68.400 28.008 C 68.400 28.223,68.130 28.400,67.800 28.400 C 67.470 28.400,67.200 28.577,67.200 28.792 C 67.200 29.008,66.750 29.298,66.200 29.436 C 65.650 29.574,65.200 29.847,65.200 30.043 C 65.200 30.240,65.008 30.400,64.773 30.400 C 64.365 30.400,61.983 32.048,60.871 33.100 C 60.581 33.375,60.168 33.600,59.953 33.600 C 59.739 33.600,59.114 34.050,58.564 34.600 C 58.014 35.150,57.342 35.600,57.070 35.600 C 56.799 35.600,56.312 35.978,55.988 36.439 C 55.665 36.900,54.990 37.438,54.489 37.633 C 53.988 37.829,53.439 38.364,53.269 38.824 C 53.099 39.283,52.834 39.646,52.680 39.630 C 51.847 39.541,51.631 39.671,51.400 40.400 C 51.260 40.840,50.911 41.200,50.623 41.200 C 49.960 41.200,47.409 43.573,47.076 44.500 C 46.938 44.885,46.545 45.200,46.203 45.200 C 45.860 45.200,45.409 45.650,45.200 46.200 C 44.991 46.750,44.605 47.200,44.342 47.200 C 43.727 47.200,39.703 51.444,39.394 52.418 C 39.265 52.826,38.808 53.270,38.380 53.406 C 37.951 53.543,37.600 53.794,37.600 53.966 C 37.600 54.137,37.285 54.652,36.900 55.110 C 34.854 57.542,34.026 58.630,34.016 58.902 C 34.009 59.068,33.468 59.764,32.814 60.448 C 32.160 61.133,31.517 62.032,31.385 62.447 C 31.254 62.861,30.978 63.200,30.773 63.200 C 30.568 63.200,30.400 63.470,30.400 63.800 C 30.400 64.130,30.223 64.400,30.008 64.400 C 29.792 64.400,29.502 64.850,29.364 65.400 C 29.226 65.950,28.992 66.400,28.843 66.400 C 28.694 66.400,28.254 66.940,27.864 67.600 C 27.474 68.260,27.279 68.800,27.432 68.800 C 27.584 68.800,27.223 69.286,26.628 69.881 C 26.034 70.475,25.447 71.465,25.324 72.081 C 25.201 72.696,24.942 73.200,24.750 73.200 C 24.557 73.200,24.400 73.470,24.400 73.800 C 24.400 74.130,24.238 74.400,24.039 74.400 C 23.841 74.400,23.489 74.895,23.258 75.500 C 23.027 76.105,22.569 77.050,22.240 77.600 C 21.025 79.631,19.200 83.941,19.200 84.781 C 19.200 85.257,19.020 85.536,18.800 85.400 C 18.580 85.264,18.400 85.433,18.400 85.776 C 18.400 86.119,18.243 86.400,18.051 86.400 C 17.859 86.400,17.587 87.120,17.446 88.000 C 17.306 88.880,17.013 89.600,16.795 89.600 C 16.578 89.600,16.400 90.050,16.400 90.600 C 16.400 91.150,16.231 91.600,16.025 91.600 C 15.818 91.600,15.528 92.410,15.379 93.400 C 15.231 94.390,14.950 95.200,14.755 95.200 C 14.560 95.200,14.400 95.650,14.400 96.200 C 14.400 96.750,14.199 97.200,13.953 97.200 C 13.693 97.200,13.586 97.616,13.698 98.200 C 13.803 98.750,13.734 99.200,13.545 99.200 C 13.355 99.200,13.200 99.650,13.200 100.200 C 13.200 100.750,13.020 101.200,12.800 101.200 C 12.580 101.200,12.400 101.639,12.400 102.176 C 12.400 102.713,12.233 103.256,12.028 103.383 C 11.823 103.509,11.532 104.602,11.381 105.812 C 11.230 107.021,10.948 108.109,10.753 108.229 C 10.559 108.349,10.400 108.876,10.400 109.400 C 10.400 109.924,10.203 110.475,9.962 110.623 C 9.722 110.772,9.607 111.327,9.709 111.856 C 9.810 112.386,9.737 112.915,9.546 113.033 C 9.356 113.151,9.200 113.957,9.200 114.824 C 9.200 115.691,9.020 116.400,8.800 116.400 C 8.580 116.400,8.400 117.019,8.400 117.776 C 8.400 118.533,8.203 119.275,7.962 119.424 C 7.721 119.573,7.595 120.303,7.681 121.047 C 7.768 121.791,7.696 122.400,7.520 122.400 C 7.344 122.400,7.200 123.300,7.200 124.400 C 7.200 125.500,7.020 126.400,6.800 126.400 C 6.580 126.400,6.400 127.300,6.400 128.400 C 6.400 129.500,6.217 130.400,5.994 130.400 C 5.770 130.400,5.605 130.895,5.626 131.500 C 5.700 133.597,5.080 139.600,4.789 139.600 C 4.628 139.600,4.484 140.875,4.470 142.433 C 4.455 143.991,4.259 145.487,4.035 145.758 C 3.810 146.029,3.610 147.499,3.591 149.025 C 3.499 156.179,3.089 163.200,2.762 163.200 C 2.555 163.200,2.400 167.740,2.400 173.776 C 2.400 180.396,2.250 184.445,2.000 184.600 C 1.454 184.937,1.448 243.482,1.993 243.667 C 2.234 243.748,2.398 247.286,2.417 252.788 C 2.434 257.731,2.615 261.977,2.820 262.224 C 3.025 262.471,3.209 264.772,3.229 267.337 C 3.249 269.902,3.385 272.000,3.533 272.000 C 3.680 271.999,3.750 273.529,3.690 275.400 C 3.621 277.527,3.733 278.800,3.990 278.800 C 4.230 278.800,4.400 279.929,4.400 281.520 C 4.400 283.016,4.565 284.411,4.766 284.620 C 5.143 285.011,5.658 289.452,5.632 292.082 C 5.624 292.897,5.793 293.672,6.009 293.805 C 6.224 293.938,6.400 294.836,6.400 295.800 C 6.400 296.764,6.558 297.651,6.752 297.770 C 6.946 297.890,7.232 299.521,7.388 301.394 C 7.544 303.267,7.836 304.800,8.036 304.800 C 8.236 304.800,8.400 305.430,8.400 306.200 C 8.400 306.970,8.557 307.600,8.748 307.600 C 8.940 307.600,9.220 308.856,9.372 310.391 C 9.523 311.926,9.816 313.286,10.023 313.414 C 10.230 313.542,10.400 314.177,10.400 314.824 C 10.400 315.471,10.560 316.000,10.756 316.000 C 11.087 316.000,11.582 318.093,11.630 319.692 C 11.642 320.073,11.819 320.488,12.025 320.616 C 12.231 320.743,12.400 321.287,12.400 321.824 C 12.400 322.361,12.560 322.800,12.755 322.800 C 13.072 322.800,13.522 324.377,13.667 326.000 C 13.697 326.330,13.883 326.706,14.081 326.836 C 14.278 326.966,14.469 327.461,14.505 327.936 C 14.541 328.411,14.692 328.800,14.840 328.800 C 14.988 328.800,15.235 329.638,15.388 330.662 C 15.542 331.687,15.924 332.781,16.238 333.095 C 16.551 333.408,16.713 333.818,16.597 334.005 C 16.482 334.192,16.570 334.458,16.793 334.596 C 17.017 334.734,17.201 335.152,17.202 335.524 C 17.204 335.896,17.474 336.716,17.802 337.346 C 18.131 337.976,18.400 338.741,18.400 339.046 C 18.400 339.351,18.572 339.600,18.782 339.600 C 18.992 339.600,19.282 340.230,19.426 341.000 C 19.571 341.770,19.849 342.400,20.045 342.400 C 20.240 342.400,20.400 342.760,20.400 343.200 C 20.400 343.640,20.560 344.000,20.755 344.000 C 20.951 344.000,21.229 344.630,21.374 345.400 C 21.518 346.170,21.766 346.800,21.924 346.800 C 22.232 346.800,23.600 349.741,23.600 350.403 C 23.600 350.621,23.780 350.800,24.000 350.800 C 24.220 350.800,24.400 351.070,24.400 351.400 C 24.400 351.730,24.553 352.000,24.740 352.000 C 24.927 352.000,25.413 352.810,25.822 353.800 C 26.230 354.790,26.688 355.600,26.839 355.600 C 26.990 355.600,27.226 356.050,27.364 356.600 C 27.502 357.150,27.792 357.600,28.008 357.600 C 28.223 357.600,28.400 357.870,28.400 358.200 C 28.400 358.530,28.560 358.800,28.757 358.800 C 28.953 358.800,29.226 359.250,29.364 359.800 C 29.502 360.350,29.792 360.800,30.008 360.800 C 30.223 360.800,30.400 361.070,30.400 361.400 C 30.400 361.730,30.568 362.000,30.773 362.000 C 30.978 362.000,31.274 362.405,31.430 362.900 C 31.587 363.395,32.049 364.091,32.457 364.447 C 32.866 364.803,33.200 365.270,33.200 365.486 C 33.200 366.247,34.708 367.669,34.930 367.116 C 35.044 366.832,35.151 367.093,35.168 367.697 C 35.188 368.364,35.669 369.241,36.400 369.940 C 37.060 370.571,37.600 371.292,37.600 371.543 C 37.600 371.794,37.900 372.000,38.267 372.000 C 38.633 372.000,38.822 372.111,38.686 372.248 C 38.550 372.384,38.655 372.732,38.919 373.021 C 39.184 373.311,39.850 374.095,40.400 374.764 C 42.669 377.524,44.702 379.565,44.943 379.324 C 45.084 379.182,45.200 379.327,45.200 379.644 C 45.200 380.315,46.620 381.647,46.966 381.300 C 47.095 381.172,47.200 381.302,47.200 381.590 C 47.200 382.192,49.649 384.649,50.100 384.500 C 50.265 384.445,50.400 384.594,50.400 384.831 C 50.400 385.386,52.260 387.239,53.800 388.218 C 54.460 388.638,55.146 389.214,55.325 389.499 C 55.503 389.784,55.823 389.910,56.034 389.779 C 56.246 389.648,56.370 389.750,56.310 390.005 C 56.249 390.261,56.827 390.814,57.594 391.235 C 58.360 391.656,58.831 392.000,58.640 392.000 C 58.449 392.000,58.750 392.360,59.309 392.800 C 59.869 393.240,60.441 393.600,60.582 393.600 C 60.723 393.600,61.236 394.005,61.722 394.500 C 62.613 395.407,63.694 396.173,64.800 396.680 C 65.130 396.831,65.640 397.192,65.932 397.481 C 66.225 397.771,66.658 397.888,66.894 397.742 C 67.149 397.585,67.207 397.664,67.038 397.938 C 66.881 398.192,66.931 398.400,67.148 398.400 C 67.365 398.400,67.788 398.625,68.088 398.900 C 68.885 399.630,70.099 400.389,70.900 400.658 C 71.285 400.788,71.600 401.052,71.600 401.247 C 71.600 401.441,71.941 401.600,72.357 401.600 C 72.774 401.600,73.218 401.870,73.345 402.200 C 73.471 402.530,73.941 402.800,74.387 402.800 C 74.834 402.800,75.200 402.980,75.200 403.200 C 75.200 403.420,75.455 403.600,75.767 403.600 C 76.078 403.600,76.393 403.735,76.467 403.900 C 76.540 404.065,77.860 404.830,79.400 405.600 C 80.940 406.370,82.290 407.095,82.400 407.211 C 82.583 407.404,83.391 407.758,87.100 409.266 C 87.815 409.557,88.400 409.923,88.400 410.080 C 88.400 410.236,89.032 410.482,89.804 410.627 C 90.577 410.772,91.307 411.050,91.428 411.245 C 91.549 411.440,91.997 411.600,92.424 411.600 C 92.851 411.600,93.200 411.778,93.200 411.995 C 93.200 412.213,93.920 412.506,94.800 412.646 C 95.680 412.787,96.400 413.059,96.400 413.251 C 96.400 413.443,96.649 413.600,96.954 413.600 C 97.259 413.600,98.024 413.869,98.654 414.198 C 99.284 414.526,100.205 414.796,100.700 414.798 C 101.195 414.799,101.600 414.980,101.600 415.200 C 101.600 415.420,102.039 415.600,102.576 415.600 C 103.113 415.600,103.654 415.764,103.778 415.965 C 103.903 416.166,104.768 416.456,105.702 416.610 C 106.636 416.764,107.629 417.076,107.910 417.302 C 108.190 417.529,108.536 417.598,108.678 417.456 C 108.820 417.313,109.314 417.445,109.777 417.748 C 110.239 418.051,111.424 418.432,112.409 418.595 C 113.394 418.757,114.423 419.070,114.695 419.290 C 114.967 419.510,115.445 419.592,115.756 419.472 C 116.067 419.353,116.655 419.504,117.061 419.810 C 117.468 420.115,118.835 420.485,120.100 420.634 C 121.365 420.782,122.400 421.042,122.400 421.212 C 122.400 421.381,123.035 421.520,123.811 421.520 C 124.587 421.520,125.455 421.714,125.741 421.951 C 126.026 422.188,127.557 422.502,129.142 422.649 C 130.728 422.797,132.120 423.071,132.236 423.259 C 132.352 423.446,133.121 423.600,133.944 423.600 C 134.767 423.600,135.611 423.763,135.820 423.961 C 136.029 424.160,137.820 424.445,139.799 424.595 C 141.779 424.744,143.580 425.017,143.802 425.201 C 144.023 425.385,145.237 425.527,146.498 425.515 C 147.759 425.504,149.029 425.692,149.319 425.933 C 149.613 426.177,152.409 426.481,155.621 426.619 C 158.797 426.756,161.486 427.010,161.597 427.183 C 161.709 427.357,163.741 427.519,166.114 427.543 C 168.487 427.567,170.771 427.770,171.188 427.994 C 172.276 428.576,228.171 428.551,229.261 427.967 C 229.712 427.726,231.999 427.550,234.435 427.569 C 236.836 427.588,238.800 427.448,238.800 427.258 C 238.800 427.068,241.545 426.783,244.900 426.626 C 248.255 426.469,251.171 426.174,251.380 425.970 C 251.589 425.767,252.793 425.600,254.056 425.600 C 255.319 425.600,256.451 425.442,256.570 425.248 C 256.690 425.054,258.513 424.767,260.622 424.609 C 262.948 424.434,264.526 424.136,264.636 423.851 C 264.747 423.561,265.430 423.439,266.416 423.533 C 267.295 423.617,268.257 423.484,268.553 423.239 C 268.849 422.993,270.331 422.693,271.846 422.573 C 273.361 422.452,274.660 422.184,274.733 421.977 C 274.807 421.770,275.561 421.600,276.410 421.600 C 277.258 421.600,278.053 421.438,278.176 421.239 C 278.298 421.041,279.479 420.753,280.800 420.600 C 282.121 420.447,283.302 420.159,283.424 419.961 C 283.547 419.762,284.166 419.600,284.800 419.600 C 285.434 419.600,286.054 419.437,286.177 419.237 C 286.300 419.038,287.300 418.751,288.400 418.600 C 289.500 418.449,290.500 418.162,290.623 417.963 C 290.746 417.763,291.287 417.600,291.824 417.600 C 292.361 417.600,292.800 417.437,292.800 417.238 C 292.800 417.038,293.700 416.751,294.800 416.600 C 295.900 416.449,296.800 416.162,296.800 415.962 C 296.800 415.763,297.250 415.600,297.800 415.600 C 298.350 415.600,298.800 415.441,298.800 415.247 C 298.800 414.798,300.335 414.300,301.462 414.383 C 301.936 414.419,302.441 414.257,302.585 414.024 C 302.729 413.791,303.197 413.600,303.624 413.600 C 304.051 413.600,304.400 413.443,304.400 413.251 C 304.400 413.059,305.128 412.786,306.019 412.643 C 306.923 412.499,307.531 412.211,307.395 411.992 C 307.257 411.769,307.679 411.600,308.376 411.600 C 309.049 411.600,309.600 411.428,309.600 411.218 C 309.600 411.008,310.230 410.718,311.000 410.574 C 311.770 410.429,312.400 410.151,312.400 409.955 C 312.400 409.760,312.636 409.600,312.925 409.600 C 313.642 409.600,316.690 408.102,317.002 407.596 C 317.141 407.371,317.443 407.303,317.672 407.445 C 317.902 407.586,318.204 407.544,318.345 407.351 C 318.723 406.832,321.176 405.600,321.832 405.600 C 322.145 405.600,322.400 405.440,322.400 405.243 C 322.400 405.047,322.850 404.774,323.400 404.636 C 323.950 404.498,324.400 404.208,324.400 403.992 C 324.400 403.777,324.670 403.600,325.000 403.600 C 325.330 403.600,325.600 403.456,325.600 403.280 C 325.600 403.105,326.242 402.729,327.026 402.445 C 327.810 402.161,328.550 401.675,328.669 401.365 C 328.788 401.054,329.143 400.800,329.457 400.800 C 330.002 400.800,331.979 399.701,332.400 399.163 C 332.510 399.023,333.005 398.781,333.500 398.627 C 333.995 398.472,334.400 398.178,334.400 397.973 C 334.400 397.768,334.670 397.600,335.000 397.600 C 335.330 397.600,335.600 397.459,335.600 397.286 C 335.600 397.114,336.165 396.639,336.855 396.231 C 337.546 395.823,338.446 395.199,338.855 394.845 C 339.265 394.490,339.935 393.910,340.345 393.555 C 340.754 393.201,341.654 392.577,342.345 392.169 C 343.035 391.761,343.600 391.207,343.600 390.937 C 343.600 390.668,343.808 390.319,344.062 390.162 C 344.369 389.972,344.420 390.065,344.215 390.438 C 344.045 390.747,344.353 390.505,344.900 389.900 C 345.446 389.295,346.072 388.800,346.292 388.800 C 346.858 388.800,355.583 380.116,355.300 379.834 C 355.172 379.705,355.377 379.600,355.757 379.600 C 356.137 379.600,356.336 379.420,356.200 379.200 C 356.064 378.980,356.144 378.800,356.377 378.800 C 357.017 378.800,360.001 375.567,360.623 374.200 C 360.923 373.540,361.176 373.163,361.184 373.361 C 361.200 373.732,362.203 372.672,363.734 370.665 C 364.210 370.041,364.825 369.289,365.100 368.994 C 365.375 368.699,365.600 368.264,365.600 368.029 C 365.600 367.793,365.810 367.600,366.067 367.600 C 366.323 367.600,366.428 367.495,366.300 367.366 C 366.171 367.238,366.366 366.772,366.733 366.333 C 367.100 365.893,367.715 365.160,368.100 364.705 C 368.485 364.250,368.800 363.635,368.800 363.339 C 368.800 363.042,368.952 362.800,369.137 362.800 C 369.322 362.800,369.817 362.125,370.237 361.300 C 370.657 360.475,371.289 359.530,371.643 359.200 C 371.996 358.870,372.423 358.164,372.592 357.631 C 372.760 357.098,373.248 356.288,373.676 355.831 C 374.105 355.374,374.555 354.505,374.677 353.900 C 374.800 353.295,375.058 352.800,375.250 352.800 C 375.442 352.800,375.600 352.530,375.600 352.200 C 375.600 351.870,375.772 351.600,375.982 351.600 C 376.192 351.600,376.482 350.970,376.626 350.200 C 376.771 349.430,377.049 348.800,377.245 348.800 C 377.440 348.800,377.600 348.530,377.600 348.200 C 377.600 347.870,377.772 347.600,377.982 347.600 C 378.192 347.600,378.482 346.970,378.626 346.200 C 378.771 345.430,379.049 344.800,379.245 344.800 C 379.440 344.800,379.600 344.530,379.600 344.200 C 379.600 343.870,379.780 343.600,380.000 343.600 C 380.220 343.600,380.401 343.285,380.402 342.900 C 380.404 342.515,380.674 341.684,381.002 341.054 C 381.331 340.424,381.600 339.659,381.600 339.354 C 381.600 339.049,381.778 338.800,381.995 338.800 C 382.213 338.800,382.506 338.080,382.646 337.200 C 382.787 336.320,383.059 335.600,383.251 335.600 C 383.443 335.600,383.600 335.240,383.600 334.800 C 383.600 334.360,383.757 334.000,383.949 334.000 C 384.141 334.000,384.414 333.272,384.556 332.383 C 384.699 331.493,384.992 330.413,385.208 329.983 C 385.423 329.552,385.777 328.848,385.992 328.417 C 386.208 327.987,386.502 326.903,386.645 326.009 C 386.788 325.114,387.061 324.286,387.253 324.168 C 387.444 324.049,387.600 323.513,387.600 322.976 C 387.600 322.439,387.801 322.000,388.047 322.000 C 388.308 322.000,388.413 321.582,388.300 320.990 C 388.194 320.435,388.263 319.885,388.454 319.767 C 388.644 319.649,388.800 319.023,388.800 318.376 C 388.800 317.729,388.980 317.200,389.200 317.200 C 389.420 317.200,389.600 316.671,389.600 316.024 C 389.600 315.377,389.769 314.743,389.975 314.616 C 390.181 314.488,390.354 314.073,390.360 313.692 C 390.387 311.990,390.929 308.800,391.190 308.800 C 391.349 308.800,391.494 308.248,391.513 307.572 C 391.532 306.897,391.733 306.122,391.958 305.850 C 392.184 305.579,392.491 303.881,392.642 302.078 C 392.792 300.275,393.069 298.800,393.258 298.800 C 393.446 298.800,393.600 297.915,393.600 296.833 C 393.600 295.752,393.769 294.807,393.975 294.733 C 394.181 294.660,394.476 292.575,394.632 290.100 C 394.787 287.625,395.068 285.600,395.257 285.600 C 395.446 285.600,395.600 284.351,395.600 282.824 C 395.600 281.297,395.788 279.931,396.017 279.790 C 396.246 279.648,396.419 278.782,396.401 277.866 C 396.322 273.825,396.950 262.800,397.259 262.800 C 397.447 262.800,397.600 258.300,397.600 252.800 C 397.600 246.400,397.744 242.800,398.000 242.800 C 398.544 242.800,398.553 184.519,398.010 184.333 C 397.773 184.253,397.602 180.689,397.575 175.300 C 397.550 170.223,397.374 166.400,397.166 166.400 C 396.965 166.400,396.800 164.330,396.800 161.800 C 396.800 159.270,396.665 157.200,396.500 157.201 C 396.335 157.201,396.241 155.671,396.292 153.801 C 396.346 151.785,396.224 150.400,395.992 150.400 C 395.771 150.400,395.600 149.092,395.600 147.400 C 395.600 145.750,395.447 144.400,395.259 144.400 C 394.950 144.400,394.295 138.652,394.361 136.520 C 394.376 136.036,394.211 135.530,393.994 135.396 C 393.777 135.262,393.600 134.353,393.600 133.376 C 393.600 132.399,393.455 131.600,393.277 131.600 C 393.099 131.600,392.737 130.025,392.472 128.100 C 391.684 122.374,391.532 121.600,391.190 121.600 C 391.010 121.600,390.738 120.427,390.585 118.994 C 390.431 117.561,390.147 116.291,389.953 116.171 C 389.759 116.051,389.600 115.423,389.600 114.776 C 389.600 114.129,389.420 113.600,389.200 113.600 C 388.980 113.600,388.800 113.071,388.800 112.424 C 388.800 111.777,388.637 111.146,388.438 111.023 C 388.238 110.900,388.169 110.439,388.284 110.000 C 388.401 109.553,388.296 109.200,388.047 109.200 C 387.801 109.200,387.600 108.671,387.600 108.024 C 387.600 107.377,387.437 106.746,387.237 106.623 C 387.038 106.500,386.751 105.499,386.600 104.400 C 386.449 103.300,386.162 102.400,385.962 102.400 C 385.763 102.400,385.600 101.969,385.600 101.443 C 385.600 100.916,385.344 100.387,385.031 100.267 C 384.683 100.134,384.546 99.729,384.678 99.224 C 384.798 98.766,384.701 98.400,384.459 98.400 C 384.220 98.400,384.129 98.130,384.255 97.800 C 384.382 97.470,384.286 97.200,384.043 97.200 C 383.799 97.200,383.600 96.750,383.600 96.200 C 383.600 95.650,383.420 95.200,383.200 95.200 C 382.980 95.200,382.800 94.851,382.800 94.424 C 382.800 93.997,382.637 93.546,382.438 93.423 C 382.238 93.300,382.169 92.839,382.284 92.400 C 382.401 91.953,382.296 91.600,382.047 91.600 C 381.801 91.600,381.600 91.330,381.600 91.000 C 381.600 90.670,381.443 90.400,381.251 90.400 C 381.059 90.400,380.787 89.680,380.646 88.800 C 380.506 87.920,380.213 87.200,379.995 87.200 C 379.778 87.200,379.600 86.840,379.600 86.400 C 379.600 85.960,379.441 85.600,379.247 85.600 C 378.903 85.600,378.270 84.104,378.357 83.500 C 378.381 83.335,378.220 83.200,378.000 83.200 C 377.780 83.200,377.600 82.840,377.600 82.400 C 377.600 81.960,377.441 81.600,377.247 81.600 C 376.903 81.600,376.270 80.104,376.357 79.500 C 376.381 79.335,376.220 79.200,376.000 79.200 C 375.780 79.200,375.600 78.840,375.600 78.400 C 375.600 77.960,375.440 77.600,375.243 77.600 C 375.047 77.600,374.765 77.116,374.617 76.524 C 374.468 75.932,374.011 75.156,373.600 74.800 C 373.189 74.444,372.731 73.664,372.581 73.067 C 372.431 72.470,371.998 71.761,371.619 71.491 C 371.240 71.221,370.817 70.546,370.680 69.992 C 370.543 69.438,370.064 68.590,369.615 68.109 C 369.167 67.627,368.800 67.045,368.800 66.814 C 368.800 66.583,368.350 66.003,367.800 65.525 C 367.250 65.047,366.800 64.413,366.800 64.115 C 366.800 63.818,366.530 63.471,366.200 63.345 C 365.870 63.218,365.600 62.937,365.600 62.720 C 365.600 62.106,364.136 60.397,363.853 60.680 C 363.714 60.819,363.600 60.543,363.600 60.067 C 363.600 59.590,363.432 59.200,363.227 59.200 C 363.022 59.200,362.743 58.849,362.606 58.420 C 362.470 57.992,362.008 57.530,361.580 57.394 C 361.151 57.257,360.800 56.904,360.800 56.609 C 360.800 55.359,345.491 40.000,343.668 39.422 C 343.213 39.277,342.730 38.809,342.594 38.380 C 342.458 37.952,341.909 37.492,341.373 37.358 C 340.838 37.223,340.400 36.953,340.400 36.757 C 340.400 36.560,340.119 36.400,339.776 36.400 C 339.433 36.400,339.261 36.225,339.393 36.012 C 339.525 35.798,339.210 35.517,338.693 35.388 C 338.176 35.258,337.424 34.713,337.021 34.176 C 336.618 33.639,335.972 33.200,335.587 33.200 C 335.201 33.200,334.781 32.927,334.653 32.594 C 334.525 32.261,333.966 31.815,333.410 31.604 C 332.855 31.393,332.400 31.035,332.400 30.810 C 332.400 30.584,332.059 30.400,331.643 30.400 C 331.226 30.400,330.782 30.130,330.655 29.800 C 330.529 29.470,330.142 29.200,329.796 29.200 C 329.450 29.200,328.773 28.833,328.291 28.385 C 327.810 27.936,327.007 27.466,326.508 27.341 C 326.009 27.216,325.600 26.953,325.600 26.757 C 325.600 26.560,325.330 26.400,325.000 26.400 C 324.670 26.400,324.400 26.223,324.400 26.008 C 324.400 25.792,323.950 25.502,323.400 25.364 C 322.850 25.226,322.400 24.953,322.400 24.757 C 322.400 24.560,322.040 24.400,321.600 24.400 C 321.160 24.400,320.800 24.234,320.800 24.032 C 320.800 23.829,320.260 23.545,319.600 23.400 C 318.940 23.255,318.400 22.971,318.400 22.768 C 318.400 22.566,318.040 22.400,317.600 22.400 C 317.160 22.400,316.800 22.234,316.800 22.032 C 316.800 21.829,316.260 21.545,315.600 21.400 C 314.940 21.255,314.400 20.971,314.400 20.768 C 314.400 20.566,314.040 20.400,313.600 20.400 C 313.160 20.400,312.800 20.222,312.800 20.005 C 312.800 19.787,312.080 19.494,311.200 19.354 C 310.320 19.213,309.600 18.941,309.600 18.749 C 309.600 18.557,309.330 18.400,309.000 18.400 C 308.670 18.400,308.400 18.236,308.400 18.035 C 308.400 17.834,307.635 17.542,306.700 17.386 C 305.765 17.230,304.910 16.977,304.800 16.823 C 304.485 16.385,301.268 15.200,300.392 15.200 C 299.956 15.200,299.600 15.020,299.600 14.800 C 299.600 14.580,299.150 14.400,298.600 14.400 C 298.050 14.400,297.600 14.237,297.600 14.038 C 297.600 13.838,296.700 13.551,295.600 13.400 C 294.500 13.249,293.600 12.962,293.600 12.762 C 293.600 12.563,293.150 12.400,292.600 12.400 C 292.050 12.400,291.600 12.237,291.600 12.038 C 291.600 11.838,290.700 11.551,289.600 11.400 C 288.500 11.249,287.600 10.974,287.600 10.789 C 287.600 10.605,287.043 10.469,286.362 10.489 C 285.681 10.508,284.979 10.290,284.803 10.005 C 284.622 9.711,284.116 9.581,283.641 9.705 C 283.179 9.826,282.700 9.762,282.577 9.562 C 282.454 9.363,281.733 9.200,280.976 9.200 C 280.219 9.200,279.600 9.020,279.600 8.800 C 279.600 8.580,278.970 8.400,278.200 8.400 C 277.430 8.400,276.800 8.200,276.800 7.957 C 276.800 7.686,276.419 7.609,275.825 7.758 C 275.288 7.893,274.751 7.844,274.630 7.649 C 274.510 7.454,273.661 7.284,272.744 7.271 C 271.827 7.259,270.970 7.084,270.839 6.882 C 270.707 6.681,269.988 6.501,269.239 6.483 C 268.491 6.465,267.768 6.272,267.633 6.054 C 267.498 5.835,265.816 5.529,263.894 5.373 C 261.972 5.218,260.400 4.935,260.400 4.745 C 260.400 4.555,259.320 4.400,258.000 4.400 C 256.680 4.400,255.600 4.236,255.600 4.036 C 255.600 3.836,253.256 3.543,250.392 3.384 C 247.527 3.226,245.100 2.962,244.999 2.798 C 244.897 2.634,243.429 2.473,241.736 2.440 C 240.043 2.407,238.436 2.196,238.164 1.970 C 237.892 1.744,236.889 1.555,235.935 1.549 C 234.981 1.543,219.799 1.448,202.198 1.338 C 184.597 1.228,170.066 1.267,169.908 1.425 M221.200 17.939 C 221.200 18.126,225.475 18.407,230.700 18.563 C 235.999 18.721,240.259 19.013,240.333 19.223 C 240.407 19.431,241.802 19.600,243.433 19.600 C 245.306 19.600,246.400 19.761,246.400 20.036 C 246.400 20.316,247.253 20.423,248.801 20.336 C 250.121 20.261,251.201 20.335,251.201 20.500 C 251.200 20.665,252.179 20.800,253.376 20.800 C 254.573 20.800,255.663 20.978,255.798 21.196 C 255.932 21.414,256.744 21.565,257.602 21.531 C 258.460 21.498,259.395 21.661,259.681 21.895 C 259.966 22.128,261.775 22.449,263.700 22.607 C 265.625 22.765,267.200 23.053,267.200 23.247 C 267.200 23.441,267.729 23.600,268.376 23.600 C 269.023 23.600,269.663 23.779,269.799 23.998 C 269.934 24.217,270.620 24.389,271.322 24.381 C 273.223 24.358,275.600 24.838,275.600 25.244 C 275.600 25.440,276.230 25.600,277.000 25.600 C 277.770 25.600,278.400 25.769,278.400 25.975 C 278.400 26.181,278.715 26.360,279.100 26.371 C 281.417 26.441,285.200 27.509,285.200 28.093 C 285.200 28.313,285.650 28.407,286.200 28.302 C 286.750 28.197,287.200 28.266,287.200 28.455 C 287.200 28.645,287.650 28.800,288.200 28.800 C 288.750 28.800,289.200 28.980,289.200 29.200 C 289.200 29.420,289.639 29.600,290.176 29.600 C 290.713 29.600,291.261 29.775,291.393 29.988 C 291.525 30.202,292.522 30.495,293.609 30.639 C 294.696 30.783,295.488 31.058,295.369 31.251 C 295.250 31.443,295.513 31.600,295.953 31.600 C 296.393 31.600,296.852 31.760,296.973 31.956 C 297.094 32.151,297.689 32.431,298.296 32.578 C 299.975 32.984,301.600 33.754,301.600 34.144 C 301.600 34.336,301.951 34.401,302.381 34.289 C 302.810 34.177,303.215 34.201,303.281 34.342 C 303.470 34.752,306.900 36.396,307.999 36.603 C 308.548 36.707,309.058 36.974,309.132 37.196 C 309.206 37.418,309.522 37.600,309.833 37.600 C 310.145 37.600,310.400 37.766,310.400 37.968 C 310.400 38.171,310.921 38.451,311.559 38.591 C 312.196 38.731,313.024 39.185,313.400 39.600 C 313.776 40.015,314.604 40.469,315.241 40.609 C 315.879 40.749,316.400 41.029,316.400 41.232 C 316.400 41.434,316.670 41.600,317.000 41.600 C 317.330 41.600,317.600 41.777,317.600 41.992 C 317.600 42.208,318.050 42.498,318.600 42.636 C 319.150 42.774,319.600 43.047,319.600 43.243 C 319.600 43.440,319.848 43.600,320.151 43.600 C 320.454 43.600,320.926 43.870,321.200 44.200 C 321.474 44.530,321.993 44.800,322.353 44.800 C 322.713 44.800,323.232 45.160,323.507 45.600 C 323.782 46.040,324.266 46.400,324.584 46.400 C 324.901 46.400,325.304 46.629,325.480 46.910 C 325.656 47.190,326.307 47.742,326.926 48.136 C 327.546 48.530,328.407 49.156,328.839 49.527 C 329.272 49.897,329.800 50.223,330.013 50.250 C 330.226 50.278,330.559 50.323,330.753 50.350 C 330.948 50.377,331.201 50.762,331.317 51.204 C 331.433 51.646,332.129 52.269,332.864 52.588 C 333.599 52.908,334.058 53.176,333.885 53.184 C 333.491 53.204,337.161 56.800,337.574 56.800 C 338.021 56.800,342.024 60.785,343.352 62.551 C 343.986 63.394,345.246 64.840,346.152 65.766 C 348.073 67.727,349.600 69.641,349.600 70.087 C 349.600 70.259,349.881 70.400,350.224 70.400 C 350.567 70.400,350.730 70.589,350.587 70.821 C 350.444 71.052,350.794 71.673,351.364 72.201 C 351.934 72.730,352.400 73.440,352.400 73.781 C 352.400 74.121,352.670 74.400,353.000 74.400 C 353.330 74.400,353.600 74.750,353.600 75.177 C 353.600 75.605,353.934 76.190,354.343 76.477 C 354.751 76.765,355.214 77.408,355.371 77.906 C 355.529 78.404,355.825 78.708,356.029 78.582 C 356.233 78.456,356.400 78.794,356.400 79.334 C 356.400 79.873,356.670 80.418,357.000 80.545 C 357.330 80.671,357.600 81.141,357.600 81.587 C 357.600 82.034,357.780 82.400,358.000 82.400 C 358.220 82.400,358.400 82.670,358.400 83.000 C 358.400 83.330,358.560 83.600,358.757 83.600 C 358.953 83.600,359.226 84.050,359.364 84.600 C 359.502 85.150,359.792 85.600,360.008 85.600 C 360.223 85.600,360.400 85.855,360.400 86.167 C 360.400 86.478,360.606 86.802,360.857 86.886 C 361.109 86.970,361.371 87.567,361.440 88.213 C 361.509 88.860,361.753 89.451,361.983 89.528 C 362.212 89.604,362.400 89.922,362.400 90.233 C 362.400 90.545,362.560 90.800,362.755 90.800 C 362.951 90.800,363.229 91.430,363.374 92.200 C 363.518 92.970,363.808 93.600,364.018 93.600 C 364.228 93.600,364.400 93.849,364.400 94.154 C 364.400 94.459,364.669 95.224,364.998 95.854 C 365.326 96.484,365.596 97.315,365.598 97.700 C 365.599 98.085,365.780 98.400,366.000 98.400 C 366.220 98.400,366.400 98.738,366.400 99.151 C 366.400 99.564,366.668 100.124,366.996 100.396 C 367.323 100.668,367.493 101.050,367.372 101.245 C 367.251 101.440,367.338 101.600,367.564 101.600 C 367.790 101.600,367.869 101.877,367.739 102.215 C 367.609 102.553,367.823 103.183,368.213 103.615 C 368.604 104.047,368.784 104.400,368.613 104.400 C 368.442 104.400,368.496 104.634,368.733 104.920 C 368.971 105.206,369.286 106.196,369.434 107.120 C 369.581 108.044,369.859 108.800,370.051 108.800 C 370.243 108.800,370.400 109.250,370.400 109.800 C 370.400 110.350,370.562 110.800,370.761 110.800 C 370.959 110.800,371.247 111.880,371.400 113.200 C 371.553 114.520,371.841 115.600,372.039 115.600 C 372.238 115.600,372.400 116.039,372.400 116.576 C 372.400 117.113,372.580 117.664,372.800 117.800 C 373.020 117.936,373.200 118.566,373.200 119.200 C 373.200 119.834,373.363 120.454,373.562 120.577 C 373.762 120.700,373.826 121.179,373.705 121.641 C 373.584 122.104,373.673 122.598,373.902 122.741 C 374.131 122.883,374.375 123.540,374.444 124.200 C 374.513 124.860,374.694 125.580,374.846 125.800 C 374.997 126.020,375.251 127.460,375.409 129.000 C 375.568 130.540,375.891 132.041,376.128 132.337 C 376.365 132.632,376.517 133.487,376.467 134.237 C 376.416 134.986,376.543 135.600,376.749 135.600 C 376.955 135.600,377.252 137.493,377.410 139.806 C 377.567 142.120,377.855 144.110,378.048 144.230 C 378.242 144.349,378.400 145.481,378.400 146.744 C 378.400 148.007,378.569 149.211,378.776 149.420 C 378.982 149.629,379.279 152.725,379.435 156.300 C 379.591 159.875,379.872 162.800,380.059 162.800 C 380.247 162.800,380.400 165.320,380.400 168.400 C 380.400 171.867,380.552 174.000,380.800 174.000 C 381.064 174.000,381.200 187.800,381.200 214.600 C 381.200 239.225,381.054 255.200,380.830 255.200 C 380.622 255.200,380.455 257.558,380.450 260.589 C 380.444 263.730,380.257 266.321,379.999 266.801 C 379.757 267.254,379.569 268.744,379.581 270.112 C 379.619 274.311,379.113 280.800,378.747 280.800 C 378.556 280.800,378.400 281.959,378.400 283.376 C 378.400 284.793,378.219 286.064,377.998 286.201 C 377.778 286.337,377.598 287.203,377.599 288.125 C 377.602 290.760,377.161 294.163,376.763 294.580 C 376.563 294.789,376.400 295.734,376.400 296.680 C 376.400 297.626,376.241 298.400,376.047 298.400 C 375.853 298.400,375.568 299.749,375.413 301.397 C 375.259 303.046,374.967 304.496,374.766 304.621 C 374.565 304.745,374.400 305.467,374.400 306.224 C 374.400 306.981,374.222 307.600,374.004 307.600 C 373.787 307.600,373.619 308.005,373.632 308.500 C 373.672 310.064,373.109 312.800,372.747 312.800 C 372.556 312.800,372.400 313.325,372.400 313.967 C 372.400 314.608,372.242 315.193,372.049 315.267 C 371.856 315.340,371.590 316.299,371.459 317.397 C 371.327 318.495,371.035 319.455,370.809 319.530 C 370.584 319.605,370.400 320.102,370.400 320.633 C 370.400 321.165,370.237 321.600,370.038 321.600 C 369.838 321.600,369.551 322.500,369.400 323.600 C 369.249 324.700,368.962 325.600,368.762 325.600 C 368.563 325.600,368.400 325.949,368.400 326.376 C 368.400 326.803,368.236 327.254,368.035 327.378 C 367.834 327.503,367.548 328.323,367.400 329.202 C 367.251 330.081,366.966 330.800,366.765 330.800 C 366.564 330.800,366.400 331.160,366.400 331.600 C 366.400 332.040,366.240 332.400,366.045 332.400 C 365.849 332.400,365.562 333.075,365.408 333.899 C 365.253 334.724,364.954 335.505,364.743 335.635 C 364.532 335.765,364.332 336.248,364.297 336.708 C 364.262 337.168,364.106 337.465,363.950 337.369 C 363.793 337.272,363.546 337.735,363.401 338.397 C 363.255 339.058,363.013 339.600,362.863 339.600 C 362.565 339.600,361.200 342.557,361.200 343.203 C 361.200 343.421,361.020 343.600,360.800 343.600 C 360.580 343.600,360.400 343.870,360.400 344.200 C 360.400 344.530,360.220 344.800,360.000 344.800 C 359.780 344.800,359.600 345.138,359.600 345.551 C 359.600 345.964,359.330 346.526,359.000 346.800 C 358.670 347.074,358.400 347.546,358.400 347.849 C 358.400 348.152,358.240 348.400,358.043 348.400 C 357.847 348.400,357.574 348.850,357.436 349.400 C 357.298 349.950,357.008 350.400,356.792 350.400 C 356.577 350.400,356.400 350.670,356.400 351.000 C 356.400 351.330,356.223 351.600,356.008 351.600 C 355.792 351.600,355.502 352.050,355.364 352.600 C 355.226 353.150,354.981 353.600,354.820 353.600 C 354.658 353.600,354.187 354.230,353.772 355.000 C 353.357 355.770,352.879 356.400,352.709 356.400 C 352.539 356.400,352.400 356.579,352.400 356.797 C 352.400 357.015,351.995 357.660,351.500 358.229 C 351.005 358.798,350.600 359.389,350.600 359.542 C 350.600 359.695,349.968 360.445,349.195 361.210 C 348.422 361.974,347.570 363.095,347.303 363.700 C 347.036 364.305,346.543 364.800,346.209 364.800 C 345.874 364.800,345.600 364.962,345.600 365.160 C 345.600 365.604,336.417 374.800,335.974 374.800 C 335.798 374.800,335.540 375.160,335.400 375.600 C 335.260 376.040,334.849 376.400,334.486 376.400 C 334.123 376.400,333.460 376.810,333.013 377.310 C 332.566 377.811,331.660 378.559,331.000 378.973 C 330.340 379.387,329.656 379.968,329.480 380.263 C 329.304 380.558,328.932 380.800,328.652 380.800 C 328.373 380.800,327.753 381.250,327.275 381.800 C 326.797 382.350,326.134 382.800,325.803 382.800 C 325.471 382.800,325.200 382.942,325.200 383.116 C 325.200 383.290,324.300 383.958,323.200 384.600 C 322.100 385.242,321.200 385.910,321.200 386.084 C 321.200 386.258,320.862 386.400,320.449 386.400 C 320.036 386.400,319.474 386.670,319.200 387.000 C 318.926 387.330,318.469 387.600,318.184 387.600 C 317.900 387.600,317.607 387.735,317.533 387.900 C 317.460 388.065,316.140 388.830,314.600 389.600 C 313.060 390.370,311.740 391.135,311.667 391.300 C 311.593 391.465,311.278 391.600,310.967 391.600 C 310.655 391.600,310.400 391.780,310.400 392.000 C 310.400 392.220,310.085 392.404,309.700 392.409 C 309.315 392.414,307.920 392.950,306.600 393.600 C 305.280 394.250,303.975 394.786,303.700 394.791 C 303.425 394.796,303.200 394.980,303.200 395.200 C 303.200 395.420,302.750 395.600,302.200 395.600 C 301.650 395.600,301.200 395.780,301.200 396.000 C 301.200 396.220,300.882 396.400,300.494 396.400 C 300.106 396.400,299.136 396.750,298.338 397.177 C 297.540 397.605,296.778 397.845,296.644 397.711 C 296.510 397.576,296.400 397.677,296.400 397.933 C 296.400 398.190,295.950 398.400,295.400 398.400 C 294.850 398.400,294.400 398.563,294.400 398.763 C 294.400 398.962,294.060 399.036,293.645 398.928 C 293.230 398.819,292.769 398.926,292.622 399.165 C 292.474 399.404,291.913 399.600,291.376 399.600 C 290.839 399.600,290.400 399.780,290.400 400.000 C 290.400 400.220,289.939 400.400,289.376 400.400 C 288.813 400.400,288.444 400.547,288.555 400.728 C 288.667 400.908,288.227 400.977,287.579 400.882 C 286.876 400.779,286.400 400.889,286.400 401.155 C 286.400 401.400,285.950 401.600,285.400 401.600 C 284.850 401.600,284.400 401.780,284.400 402.000 C 284.400 402.220,283.770 402.400,283.000 402.400 C 282.230 402.400,281.600 402.555,281.600 402.745 C 281.600 402.934,281.171 403.007,280.647 402.907 C 280.123 402.807,279.572 402.922,279.423 403.162 C 279.275 403.403,278.634 403.600,278.000 403.600 C 277.366 403.600,276.745 403.766,276.619 403.969 C 276.494 404.171,275.223 404.462,273.796 404.615 C 272.368 404.768,271.200 405.052,271.200 405.247 C 271.200 405.441,270.491 405.600,269.624 405.600 C 268.757 405.600,267.948 405.761,267.826 405.958 C 267.704 406.155,266.162 406.444,264.400 406.600 C 262.638 406.756,261.096 407.045,260.974 407.242 C 260.852 407.439,259.964 407.600,259.000 407.600 C 258.036 407.600,257.153 407.753,257.037 407.940 C 256.807 408.313,251.082 408.930,248.700 408.838 C 247.875 408.807,247.200 408.965,247.200 409.190 C 247.200 409.433,245.981 409.600,244.200 409.600 C 242.550 409.600,241.200 409.758,241.200 409.951 C 241.200 410.351,233.685 410.786,226.641 410.794 C 223.994 410.797,221.664 410.981,221.390 411.208 C 220.691 411.788,179.141 411.752,178.782 411.171 C 178.618 410.906,176.875 410.768,174.159 410.805 C 168.732 410.879,159.868 410.384,159.600 409.993 C 159.490 409.832,158.155 409.675,156.633 409.644 C 155.112 409.613,153.642 409.401,153.368 409.174 C 153.094 408.946,152.089 408.766,151.135 408.774 C 148.362 408.797,143.600 408.334,143.600 408.042 C 143.600 407.895,142.757 407.737,141.727 407.692 C 140.697 407.648,139.741 407.428,139.602 407.204 C 139.464 406.980,138.912 406.802,138.375 406.808 C 136.348 406.833,132.800 406.287,132.800 405.950 C 132.800 405.758,132.080 405.600,131.200 405.600 C 130.277 405.600,129.600 405.409,129.600 405.148 C 129.600 404.854,129.109 404.775,128.200 404.923 C 127.430 405.047,126.800 404.981,126.800 404.775 C 126.800 404.569,126.271 404.400,125.624 404.400 C 124.977 404.400,124.336 404.220,124.200 404.000 C 124.064 403.780,123.434 403.600,122.800 403.600 C 122.166 403.600,121.549 403.441,121.429 403.247 C 121.309 403.052,120.221 402.770,119.012 402.619 C 117.802 402.468,116.709 402.177,116.583 401.972 C 116.456 401.767,115.913 401.600,115.376 401.600 C 114.839 401.600,114.400 401.399,114.400 401.153 C 114.400 400.893,113.984 400.786,113.400 400.898 C 112.850 401.003,112.400 400.934,112.400 400.745 C 112.400 400.555,111.950 400.400,111.400 400.400 C 110.850 400.400,110.400 400.220,110.400 400.000 C 110.400 399.780,109.961 399.600,109.424 399.600 C 108.887 399.600,108.346 399.436,108.222 399.235 C 108.097 399.034,107.278 398.748,106.400 398.600 C 105.522 398.452,104.703 398.166,104.578 397.965 C 104.454 397.764,104.003 397.600,103.576 397.600 C 103.149 397.600,102.800 397.443,102.800 397.251 C 102.800 397.059,102.080 396.787,101.200 396.646 C 100.320 396.506,99.600 396.213,99.600 395.995 C 99.600 395.778,99.351 395.600,99.046 395.600 C 98.741 395.600,97.976 395.331,97.346 395.002 C 96.716 394.674,95.900 394.404,95.533 394.402 C 95.167 394.401,94.807 394.265,94.733 394.100 C 94.523 393.627,92.144 392.400,91.438 392.400 C 91.087 392.400,90.799 392.265,90.797 392.100 C 90.792 391.632,88.736 390.793,88.282 391.073 C 88.051 391.216,87.999 391.125,88.162 390.862 C 88.342 390.570,88.144 390.400,87.624 390.400 C 87.171 390.400,86.800 390.209,86.800 389.976 C 86.800 389.743,86.619 389.665,86.397 389.802 C 86.176 389.939,85.891 389.780,85.764 389.450 C 85.637 389.119,84.963 388.724,84.267 388.571 C 83.570 388.418,82.775 387.971,82.500 387.578 C 82.224 387.185,81.494 386.752,80.877 386.617 C 80.260 386.481,79.501 386.017,79.189 385.585 C 78.878 385.153,78.297 384.800,77.899 384.800 C 77.501 384.800,77.071 384.530,76.945 384.200 C 76.818 383.870,76.464 383.600,76.157 383.600 C 75.851 383.600,75.600 383.432,75.600 383.227 C 75.600 383.022,75.195 382.726,74.700 382.570 C 74.205 382.413,73.515 381.958,73.166 381.558 C 72.818 381.158,72.053 380.648,71.466 380.425 C 70.880 380.202,70.400 379.749,70.400 379.418 C 70.400 379.086,69.950 378.702,69.400 378.564 C 68.850 378.426,68.400 378.153,68.400 377.957 C 68.400 377.760,68.100 377.600,67.733 377.600 C 67.367 377.600,67.176 377.491,67.309 377.358 C 67.566 377.101,65.692 375.200,65.182 375.200 C 65.016 375.200,64.250 374.570,63.480 373.800 C 62.710 373.030,61.852 372.400,61.573 372.400 C 61.295 372.400,61.176 372.291,61.310 372.157 C 61.635 371.831,58.226 368.400,57.577 368.400 C 57.297 368.400,57.181 368.286,57.320 368.147 C 57.459 368.008,56.679 367.019,55.586 365.949 C 54.494 364.879,53.600 363.905,53.600 363.785 C 53.600 363.552,53.095 362.906,51.799 361.481 C 51.359 360.996,50.676 360.099,50.282 359.487 C 49.887 358.875,49.412 358.469,49.225 358.584 C 49.038 358.700,48.767 358.324,48.623 357.749 C 48.329 356.576,47.425 355.508,47.048 355.886 C 46.911 356.022,46.800 355.756,46.800 355.295 C 46.800 354.834,46.558 354.215,46.263 353.920 C 45.967 353.624,45.217 352.576,44.597 351.591 C 43.976 350.606,43.183 349.581,42.834 349.313 C 42.485 349.045,42.345 348.820,42.523 348.813 C 42.700 348.806,42.532 348.270,42.149 347.622 C 41.766 346.974,41.306 346.534,41.127 346.645 C 40.947 346.756,40.800 346.387,40.800 345.824 C 40.800 345.261,40.626 344.800,40.413 344.800 C 40.199 344.800,40.129 344.530,40.255 344.200 C 40.382 343.870,40.286 343.600,40.043 343.600 C 39.799 343.600,39.600 343.345,39.600 343.033 C 39.600 342.722,39.465 342.407,39.300 342.333 C 39.007 342.203,37.034 338.298,35.948 335.700 C 35.649 334.985,35.269 334.400,35.102 334.400 C 34.936 334.400,34.799 334.085,34.798 333.700 C 34.796 333.315,34.526 332.484,34.198 331.854 C 33.869 331.224,33.600 330.459,33.600 330.154 C 33.600 329.849,33.420 329.600,33.200 329.600 C 32.980 329.600,32.800 329.251,32.800 328.824 C 32.800 328.397,32.628 327.941,32.417 327.811 C 32.207 327.681,32.136 327.310,32.260 326.987 C 32.384 326.664,32.286 326.400,32.043 326.400 C 31.799 326.400,31.600 325.950,31.600 325.400 C 31.600 324.850,31.437 324.400,31.238 324.400 C 31.038 324.400,30.751 323.500,30.600 322.400 C 30.449 321.300,30.162 320.400,29.962 320.400 C 29.763 320.400,29.600 319.965,29.600 319.433 C 29.600 318.902,29.425 318.407,29.212 318.333 C 28.998 318.260,28.741 317.750,28.641 317.200 C 28.541 316.650,28.425 316.110,28.384 316.000 C 28.342 315.890,28.337 315.501,28.373 315.135 C 28.409 314.770,28.250 314.354,28.019 314.212 C 27.789 314.069,27.600 313.423,27.600 312.776 C 27.600 312.129,27.441 311.600,27.247 311.600 C 27.052 311.600,26.768 310.430,26.615 309.000 C 26.462 307.570,26.171 306.400,25.968 306.400 C 25.766 306.400,25.600 305.770,25.600 305.000 C 25.600 304.230,25.441 303.600,25.247 303.600 C 25.053 303.600,24.765 302.205,24.607 300.500 C 24.449 298.795,24.153 297.196,23.950 296.946 C 23.746 296.697,23.555 295.842,23.525 295.046 C 23.495 294.251,23.346 293.600,23.193 293.600 C 22.892 293.600,22.315 288.582,22.380 286.530 C 22.403 285.832,22.236 285.146,22.011 285.006 C 21.785 284.867,21.600 283.694,21.600 282.400 C 21.600 281.106,21.448 279.953,21.262 279.838 C 20.902 279.616,20.286 271.501,20.384 268.267 C 20.416 267.203,20.241 266.090,19.994 265.793 C 19.710 265.451,19.547 263.256,19.550 259.826 C 19.553 256.687,19.396 254.400,19.177 254.400 C 18.943 254.400,18.800 238.688,18.800 213.000 C 18.800 187.280,18.943 171.600,19.178 171.600 C 19.398 171.600,19.565 168.982,19.577 165.324 C 19.591 161.363,19.755 158.952,20.022 158.786 C 20.262 158.638,20.434 157.243,20.420 155.562 C 20.382 151.136,20.863 144.809,21.255 144.566 C 21.445 144.449,21.600 143.204,21.600 141.800 C 21.600 140.396,21.785 139.133,22.011 138.994 C 22.236 138.854,22.408 138.168,22.392 137.470 C 22.339 135.162,22.903 130.800,23.255 130.800 C 23.445 130.800,23.600 129.900,23.600 128.800 C 23.600 127.700,23.783 126.800,24.006 126.800 C 24.230 126.800,24.396 126.305,24.376 125.700 C 24.315 123.850,24.846 120.608,25.234 120.467 C 25.435 120.393,25.600 119.718,25.600 118.967 C 25.600 118.215,25.759 117.600,25.953 117.600 C 26.148 117.600,26.432 116.430,26.585 115.000 C 26.738 113.570,27.029 112.400,27.232 112.400 C 27.434 112.400,27.600 111.961,27.600 111.424 C 27.600 110.887,27.777 110.338,27.994 110.204 C 28.211 110.070,28.385 109.564,28.381 109.080 C 28.370 107.609,28.869 105.600,29.245 105.600 C 29.440 105.600,29.600 105.150,29.600 104.600 C 29.600 104.050,29.757 103.600,29.949 103.600 C 30.141 103.600,30.413 102.882,30.553 102.005 C 30.693 101.128,31.155 99.792,31.580 99.035 C 32.005 98.279,32.473 97.017,32.621 96.230 C 32.768 95.444,33.049 94.800,33.245 94.800 C 33.440 94.800,33.600 94.350,33.600 93.800 C 33.600 93.250,33.780 92.800,34.000 92.800 C 34.220 92.800,34.381 92.665,34.357 92.500 C 34.270 91.896,34.903 90.400,35.247 90.400 C 35.441 90.400,35.600 90.040,35.600 89.600 C 35.600 89.160,35.780 88.800,36.000 88.800 C 36.220 88.800,36.400 88.621,36.400 88.403 C 36.400 87.757,37.765 84.800,38.063 84.800 C 38.213 84.800,38.455 84.260,38.600 83.600 C 38.745 82.940,39.029 82.400,39.232 82.400 C 39.434 82.400,39.600 82.040,39.600 81.600 C 39.600 81.160,39.777 80.800,39.992 80.800 C 40.208 80.800,40.498 80.350,40.636 79.800 C 40.774 79.250,41.047 78.800,41.243 78.800 C 41.440 78.800,41.600 78.530,41.600 78.200 C 41.600 77.870,41.777 77.600,41.992 77.600 C 42.208 77.600,42.498 77.150,42.636 76.600 C 42.774 76.050,43.047 75.600,43.243 75.600 C 43.440 75.600,43.600 75.330,43.600 75.000 C 43.600 74.670,43.791 74.400,44.024 74.400 C 44.257 74.400,44.336 74.220,44.200 74.000 C 44.064 73.780,44.173 73.600,44.443 73.600 C 44.713 73.600,44.831 73.498,44.706 73.373 C 44.582 73.248,45.002 72.612,45.640 71.959 C 46.278 71.307,46.800 70.551,46.800 70.281 C 46.800 70.011,47.250 69.452,47.800 69.039 C 48.350 68.626,48.800 67.965,48.800 67.571 C 48.800 67.177,49.160 66.740,49.600 66.600 C 50.040 66.460,50.400 66.186,50.400 65.991 C 50.400 65.796,50.850 65.186,51.400 64.636 C 51.950 64.086,52.400 63.523,52.400 63.385 C 52.400 63.246,54.290 61.252,56.600 58.954 C 58.910 56.655,60.800 54.589,60.800 54.363 C 60.800 54.138,60.946 54.043,61.125 54.154 C 61.304 54.264,61.962 53.915,62.587 53.377 C 63.213 52.840,63.864 52.400,64.035 52.400 C 64.206 52.400,64.460 52.040,64.600 51.600 C 64.740 51.160,65.093 50.800,65.385 50.800 C 65.677 50.800,66.493 50.260,67.200 49.600 C 67.907 48.940,68.696 48.400,68.954 48.400 C 69.212 48.400,69.683 48.040,70.000 47.600 C 70.317 47.160,70.794 46.800,71.060 46.800 C 71.325 46.800,71.785 46.558,72.080 46.263 C 72.376 45.967,73.424 45.220,74.409 44.603 C 75.394 43.985,76.290 43.372,76.400 43.240 C 76.510 43.108,77.275 42.657,78.100 42.237 C 78.925 41.817,79.600 41.322,79.600 41.137 C 79.600 40.952,79.798 40.800,80.040 40.800 C 80.519 40.800,83.277 39.577,83.600 39.221 C 84.010 38.769,86.485 37.600,87.032 37.600 C 87.345 37.600,87.600 37.420,87.600 37.200 C 87.600 36.980,87.779 36.800,87.997 36.800 C 88.659 36.800,91.600 35.432,91.600 35.124 C 91.600 34.966,92.232 34.718,93.004 34.573 C 93.777 34.428,94.507 34.150,94.628 33.955 C 94.749 33.760,95.197 33.600,95.624 33.600 C 96.051 33.600,96.400 33.422,96.400 33.205 C 96.400 32.987,97.120 32.694,98.000 32.554 C 98.880 32.413,99.600 32.141,99.600 31.949 C 99.600 31.757,99.849 31.600,100.154 31.600 C 100.459 31.600,101.224 31.331,101.854 31.002 C 102.484 30.674,103.390 30.404,103.867 30.402 C 104.343 30.401,104.796 30.212,104.873 29.982 C 104.949 29.752,105.414 29.534,105.906 29.497 C 106.398 29.460,106.800 29.301,106.800 29.144 C 106.800 28.986,107.792 28.734,109.005 28.582 C 110.218 28.430,111.309 28.148,111.429 27.953 C 111.549 27.759,112.087 27.600,112.624 27.600 C 113.161 27.600,113.600 27.438,113.600 27.239 C 113.600 27.041,114.680 26.753,116.001 26.600 C 117.321 26.447,118.502 26.159,118.624 25.961 C 118.747 25.762,119.276 25.600,119.800 25.600 C 120.324 25.600,120.853 25.438,120.975 25.241 C 121.097 25.043,122.458 24.755,123.998 24.600 C 125.539 24.445,126.800 24.157,126.800 23.959 C 126.800 23.762,127.610 23.600,128.600 23.600 C 129.590 23.600,130.400 23.445,130.400 23.256 C 130.400 22.890,134.211 22.313,136.169 22.382 C 136.812 22.405,137.451 22.241,137.589 22.018 C 137.727 21.795,138.686 21.581,139.720 21.541 C 140.754 21.502,141.600 21.319,141.600 21.135 C 141.600 20.951,142.669 20.800,143.976 20.800 C 145.283 20.800,146.442 20.655,146.552 20.478 C 146.661 20.301,147.789 20.206,149.059 20.267 C 150.328 20.328,151.475 20.202,151.607 19.988 C 151.739 19.775,153.187 19.581,154.824 19.559 C 156.461 19.536,157.980 19.376,158.200 19.204 C 158.666 18.838,169.415 18.294,174.464 18.380 C 176.515 18.415,178.034 18.268,178.188 18.020 C 178.506 17.505,221.200 17.425,221.200 17.939 M173.300 80.144 C 172.805 80.389,172.400 80.727,172.400 80.895 C 172.400 81.063,172.138 81.200,171.818 81.200 C 171.064 81.200,169.200 83.064,169.200 83.818 C 169.200 84.138,169.020 84.400,168.800 84.400 C 168.539 84.400,168.400 90.758,168.400 102.674 C 168.400 122.374,168.562 123.895,170.751 124.704 C 171.108 124.836,171.730 125.317,172.134 125.772 C 173.015 126.767,179.985 127.046,180.300 126.100 C 180.392 125.825,180.646 125.600,180.865 125.600 C 181.084 125.600,182.014 124.842,182.931 123.915 L 184.600 122.229 184.600 103.215 L 184.600 84.200 183.122 82.800 C 180.835 80.634,180.493 80.400,179.617 80.400 C 179.168 80.400,178.800 80.244,178.800 80.052 C 178.800 79.546,174.358 79.620,173.300 80.144 M130.600 98.000 C 130.464 98.220,130.012 98.400,129.596 98.400 C 129.180 98.400,128.656 98.715,128.432 99.100 C 128.208 99.485,128.019 99.659,128.012 99.487 C 127.990 98.912,125.200 101.964,125.200 102.563 C 125.200 102.887,125.020 103.264,124.800 103.400 C 124.310 103.703,124.263 108.668,124.748 108.968 C 124.940 109.086,125.208 109.739,125.344 110.418 C 125.481 111.105,125.770 111.542,125.995 111.403 C 126.218 111.265,126.400 111.421,126.400 111.749 C 126.400 112.078,126.763 112.461,127.206 112.602 C 127.649 112.743,127.938 112.980,127.848 113.129 C 127.758 113.278,127.935 113.632,128.242 113.916 C 128.549 114.199,128.800 114.327,128.800 114.200 C 128.800 114.073,129.052 114.201,129.360 114.484 C 129.667 114.768,129.858 115.064,129.784 115.143 C 129.594 115.342,130.555 116.342,130.800 116.200 C 130.910 116.136,131.232 116.335,131.516 116.642 C 131.799 116.949,131.927 117.200,131.800 117.200 C 131.673 117.200,131.801 117.451,132.084 117.758 C 132.368 118.065,132.690 118.264,132.800 118.200 C 132.910 118.136,133.232 118.335,133.516 118.642 C 133.799 118.949,133.940 119.200,133.827 119.200 C 133.715 119.200,137.139 122.710,141.435 127.000 C 145.732 131.290,149.507 134.800,149.824 134.800 C 150.141 134.800,150.400 134.980,150.400 135.200 C 150.400 135.420,150.850 135.600,151.400 135.600 C 151.950 135.600,152.400 135.780,152.400 136.000 C 152.400 136.220,153.120 136.400,154.000 136.400 C 154.880 136.400,155.600 136.220,155.600 136.000 C 155.600 135.780,156.034 135.600,156.564 135.600 C 157.733 135.600,160.800 133.666,160.800 132.929 C 160.800 132.638,160.980 132.400,161.200 132.400 C 161.420 132.400,161.600 132.040,161.600 131.600 C 161.600 131.160,161.787 130.800,162.017 130.800 C 162.766 130.800,162.360 124.747,161.530 123.538 C 161.128 122.954,160.800 122.356,160.800 122.209 C 160.800 121.642,137.985 99.200,137.409 99.200 C 137.074 99.200,136.800 99.020,136.800 98.800 C 136.800 98.580,136.350 98.400,135.800 98.400 C 135.250 98.400,134.800 98.220,134.800 98.000 C 134.800 97.780,133.911 97.600,132.824 97.600 C 131.737 97.600,130.736 97.780,130.600 98.000 M218.200 98.000 C 218.064 98.220,217.603 98.400,217.176 98.400 C 216.749 98.400,216.400 98.580,216.400 98.800 C 216.400 99.020,216.139 99.200,215.820 99.200 C 215.146 99.200,201.200 113.019,201.200 113.686 C 201.200 113.932,201.083 114.017,200.941 113.874 C 200.644 113.577,199.200 115.115,199.200 115.728 C 199.200 115.951,199.083 116.017,198.941 115.874 C 198.644 115.577,197.200 117.115,197.200 117.728 C 197.200 117.951,197.083 118.017,196.941 117.874 C 196.644 117.577,195.200 119.115,195.200 119.728 C 195.200 119.951,195.089 120.022,194.952 119.886 C 194.651 119.584,193.892 120.306,193.249 121.508 C 192.987 121.999,192.508 122.400,192.186 122.400 C 191.864 122.400,191.586 122.625,191.569 122.900 C 191.499 124.046,191.230 124.930,190.828 125.332 C 190.318 125.842,190.248 129.600,190.748 129.600 C 190.939 129.600,191.196 130.218,191.318 130.973 C 191.564 132.487,193.513 134.800,194.543 134.800 C 194.904 134.800,195.200 134.980,195.200 135.200 C 195.200 135.420,195.639 135.600,196.176 135.600 C 196.713 135.600,197.264 135.780,197.400 136.000 C 197.536 136.220,198.256 136.400,199.000 136.400 C 199.744 136.400,200.464 136.220,200.600 136.000 C 200.736 135.780,201.287 135.600,201.824 135.600 C 202.361 135.600,202.800 135.420,202.800 135.200 C 202.800 134.980,203.083 134.800,203.428 134.800 C 204.131 134.800,215.600 123.490,215.600 122.796 C 215.600 122.552,215.748 122.444,215.929 122.556 C 216.304 122.788,217.600 121.404,217.600 120.772 C 217.600 120.541,217.748 120.444,217.929 120.556 C 218.304 120.788,219.600 119.404,219.600 118.772 C 219.600 118.541,219.748 118.444,219.929 118.556 C 220.304 118.788,221.600 117.404,221.600 116.772 C 221.600 116.541,221.748 116.444,221.929 116.556 C 222.304 116.788,223.600 115.404,223.600 114.772 C 223.600 114.541,223.748 114.444,223.929 114.556 C 224.304 114.788,225.600 113.404,225.600 112.772 C 225.600 112.541,225.748 112.444,225.929 112.556 C 226.285 112.776,227.600 111.418,227.600 110.829 C 227.600 110.630,227.825 110.392,228.100 110.300 C 228.452 110.183,228.600 109.031,228.600 106.400 C 228.600 103.769,228.452 102.617,228.100 102.500 C 227.825 102.408,227.600 102.078,227.600 101.767 C 227.600 101.455,227.432 101.200,227.227 101.200 C 227.022 101.200,226.740 100.840,226.600 100.401 C 226.461 99.961,225.909 99.492,225.373 99.358 C 224.838 99.223,224.400 98.953,224.400 98.757 C 224.400 98.560,223.950 98.400,223.400 98.400 C 222.850 98.400,222.400 98.220,222.400 98.000 C 222.400 97.780,221.511 97.600,220.424 97.600 C 219.337 97.600,218.336 97.780,218.200 98.000 M253.800 124.000 C 253.664 124.220,252.663 124.400,251.576 124.400 C 250.489 124.400,249.600 124.557,249.600 124.748 C 249.600 124.940,248.700 125.216,247.600 125.362 C 246.500 125.508,245.600 125.801,245.600 126.014 C 245.600 126.226,245.330 126.400,245.000 126.400 C 244.670 126.400,244.400 126.566,244.400 126.768 C 244.400 126.971,243.851 127.257,243.181 127.404 C 242.510 127.551,241.747 128.016,241.485 128.436 C 241.222 128.856,240.808 129.200,240.565 129.200 C 239.925 129.200,238.367 130.634,238.674 130.941 C 238.817 131.083,238.677 131.200,238.363 131.200 C 238.049 131.200,237.254 131.841,236.596 132.625 C 235.938 133.409,235.213 134.264,234.984 134.525 C 233.868 135.798,233.200 137.066,233.200 137.913 C 233.200 138.434,233.023 138.738,232.800 138.600 C 232.580 138.464,232.400 138.618,232.400 138.943 C 232.400 139.268,232.240 139.593,232.045 139.667 C 231.850 139.740,231.580 140.601,231.446 141.579 C 231.311 142.558,231.021 143.539,230.801 143.759 C 230.570 143.990,230.400 146.594,230.400 149.880 L 230.400 155.600 216.500 155.603 C 208.855 155.605,191.539 155.608,178.021 155.609 C 152.035 155.612,150.400 155.724,150.400 157.501 C 150.400 157.801,150.244 157.951,150.053 157.833 C 149.641 157.578,147.911 159.719,147.540 160.943 C 147.138 162.268,147.155 166.800,147.563 166.800 C 147.762 166.800,147.831 167.160,147.716 167.600 C 147.599 168.047,147.704 168.400,147.953 168.400 C 148.199 168.400,148.400 168.604,148.400 168.854 C 148.400 169.104,148.805 169.700,149.300 170.179 C 149.795 170.657,150.458 171.488,150.773 172.024 C 151.389 173.072,152.015 179.200,151.506 179.200 C 151.338 179.200,151.200 179.470,151.200 179.800 C 151.200 180.130,151.020 180.400,150.800 180.400 C 150.580 180.400,150.400 180.608,150.400 180.861 C 150.400 181.594,147.144 184.403,146.020 184.640 C 145.459 184.759,144.550 185.051,144.000 185.289 C 142.541 185.921,141.661 185.936,141.429 185.332 C 141.317 185.039,140.932 184.800,140.573 184.800 C 138.497 184.800,134.945 181.921,134.527 179.900 C 134.402 179.295,134.143 178.800,133.950 178.800 C 133.758 178.800,133.600 177.630,133.600 176.200 C 133.600 174.566,133.764 173.600,134.043 173.600 C 134.286 173.600,134.382 173.330,134.255 173.000 C 134.129 172.670,134.199 172.400,134.413 172.400 C 134.626 172.400,134.800 172.052,134.800 171.627 C 134.800 171.202,135.115 170.752,135.500 170.628 C 136.254 170.385,137.600 168.295,137.600 167.368 C 137.600 167.055,137.780 166.800,138.000 166.800 C 138.229 166.800,138.400 165.600,138.400 164.000 C 138.400 162.400,138.229 161.200,138.000 161.200 C 137.780 161.200,137.600 160.840,137.600 160.400 C 137.600 159.960,137.420 159.600,137.200 159.600 C 136.980 159.600,136.800 159.339,136.800 159.020 C 136.800 158.307,134.370 156.400,133.462 156.400 C 133.098 156.400,132.800 156.231,132.800 156.025 C 132.800 155.798,124.882 155.636,112.659 155.614 L 92.518 155.577 90.535 156.606 C 88.603 157.608,87.200 159.272,87.200 160.562 C 87.200 160.913,87.020 161.200,86.800 161.200 C 86.540 161.200,86.400 166.851,86.400 177.353 C 86.400 194.543,86.308 195.305,84.472 193.339 C 83.840 192.663,79.493 192.614,78.274 193.270 C 77.793 193.529,76.725 193.702,75.900 193.654 C 75.072 193.606,74.400 193.754,74.400 193.984 C 74.400 194.213,74.044 194.400,73.608 194.400 C 72.739 194.400,69.519 195.582,69.200 196.019 C 69.090 196.169,68.592 196.419,68.094 196.575 C 67.596 196.730,67.292 197.025,67.418 197.229 C 67.617 197.551,67.126 197.755,66.360 197.667 C 65.935 197.619,61.599 201.866,61.834 202.100 C 61.958 202.225,61.726 202.433,61.317 202.563 C 60.908 202.693,60.233 203.384,59.817 204.099 C 59.401 204.815,58.947 205.490,58.809 205.600 C 58.315 205.994,57.200 208.737,57.200 209.560 C 57.200 210.022,57.020 210.400,56.800 210.400 C 56.580 210.400,56.400 210.850,56.400 211.400 C 56.400 211.950,56.238 212.400,56.040 212.400 C 55.597 212.400,55.469 214.003,55.493 219.300 C 55.517 224.765,55.612 225.960,56.040 226.224 C 56.238 226.347,56.400 226.887,56.400 227.424 C 56.400 227.961,56.557 228.400,56.749 228.400 C 56.941 228.400,57.213 229.120,57.354 230.000 C 57.494 230.880,57.787 231.600,58.005 231.600 C 58.222 231.600,58.400 231.870,58.400 232.200 C 58.400 232.530,58.568 232.800,58.773 232.800 C 58.978 232.800,59.270 233.190,59.421 233.666 C 59.572 234.142,60.079 234.926,60.548 235.407 C 61.017 235.889,61.779 236.714,62.243 237.241 C 63.375 238.528,64.720 239.600,65.205 239.600 C 65.422 239.600,65.555 239.814,65.500 240.076 C 65.445 240.338,65.758 240.630,66.196 240.724 C 66.633 240.818,67.219 241.220,67.496 241.616 C 67.774 242.012,68.541 242.455,69.200 242.600 C 69.860 242.745,70.400 243.029,70.400 243.232 C 70.400 243.434,70.749 243.600,71.176 243.600 C 71.603 243.600,72.074 243.796,72.222 244.035 C 72.369 244.274,72.830 244.381,73.245 244.272 C 73.660 244.164,74.077 244.201,74.172 244.354 C 74.266 244.507,75.026 244.679,75.860 244.735 C 76.693 244.791,77.471 244.988,77.588 245.172 C 77.903 245.670,84.800 245.707,84.800 245.211 C 84.800 244.985,85.160 244.800,85.600 244.800 C 86.387 244.800,86.400 245.067,86.400 261.200 C 86.400 270.537,86.554 277.600,86.757 277.600 C 86.953 277.600,87.230 278.066,87.373 278.634 C 87.644 279.713,89.282 281.600,89.948 281.600 C 90.160 281.600,90.408 281.825,90.500 282.100 C 90.629 282.487,94.500 282.625,107.651 282.712 L 124.636 282.825 124.474 284.212 C 124.385 284.976,124.152 285.600,123.956 285.600 C 123.760 285.600,123.600 286.950,123.600 288.600 C 123.600 290.333,123.769 291.600,124.000 291.600 C 124.220 291.600,124.400 292.500,124.400 293.600 C 124.400 294.700,124.556 295.600,124.748 295.600 C 124.939 295.600,125.200 296.243,125.327 297.030 C 125.601 298.717,126.469 300.800,126.898 300.800 C 127.064 300.800,127.200 301.063,127.200 301.384 C 127.200 301.706,127.594 302.336,128.075 302.784 C 128.557 303.233,128.820 303.600,128.660 303.600 C 128.294 303.600,128.832 304.242,131.629 307.138 C 133.785 309.371,136.684 311.498,137.300 311.298 C 137.465 311.244,137.600 311.351,137.600 311.536 C 137.600 311.979,139.430 312.800,140.419 312.800 C 140.848 312.800,141.200 312.980,141.200 313.200 C 141.200 313.420,141.614 313.600,142.120 313.600 C 142.626 313.600,143.261 313.821,143.531 314.091 C 144.323 314.883,155.464 314.711,156.971 313.884 C 157.616 313.530,158.291 313.332,158.471 313.444 C 158.652 313.556,158.800 313.480,158.800 313.275 C 158.800 313.070,159.527 312.786,160.415 312.644 C 161.304 312.502,162.129 312.130,162.248 311.818 C 162.368 311.506,162.721 311.348,163.033 311.468 C 163.345 311.588,163.600 311.498,163.600 311.270 C 163.600 311.041,163.919 310.753,164.309 310.629 C 164.698 310.505,165.576 309.908,166.258 309.302 C 166.941 308.696,167.837 307.911,168.250 307.557 C 168.662 307.204,169.270 306.573,169.600 306.156 C 172.300 302.743,172.800 302.006,172.800 301.442 C 172.800 301.089,172.980 300.800,173.200 300.800 C 173.420 300.800,173.600 300.530,173.600 300.200 C 173.600 299.870,173.769 299.600,173.975 299.600 C 174.182 299.600,174.473 298.788,174.622 297.795 C 174.771 296.802,175.052 295.892,175.246 295.771 C 175.441 295.651,175.600 294.944,175.600 294.200 C 175.600 293.456,175.762 292.747,175.959 292.625 C 176.472 292.308,176.519 284.400,176.008 284.400 C 175.784 284.400,175.600 284.040,175.600 283.600 C 175.600 282.807,175.867 282.800,208.350 282.800 C 241.939 282.800,243.600 282.747,243.600 281.683 C 243.600 281.344,243.702 281.169,243.827 281.294 C 244.256 281.723,246.419 279.207,246.661 277.996 C 246.794 277.329,247.060 276.686,247.252 276.568 C 247.738 276.267,247.690 272.400,247.200 272.400 C 246.980 272.400,246.800 271.963,246.800 271.429 C 246.800 270.894,246.530 270.187,246.200 269.857 C 245.870 269.527,245.600 269.064,245.600 268.829 C 245.600 268.593,245.431 268.400,245.225 268.400 C 244.641 268.400,243.899 262.109,244.444 261.773 C 244.640 261.652,244.800 261.203,244.800 260.776 C 244.800 260.349,244.980 260.000,245.200 260.000 C 245.420 260.000,245.600 259.640,245.600 259.200 C 245.600 258.760,245.742 258.445,245.915 258.500 C 246.088 258.555,246.727 258.105,247.333 257.500 C 247.940 256.895,248.698 256.400,249.018 256.400 C 249.338 256.400,249.600 256.220,249.600 256.000 C 249.600 255.780,250.050 255.600,250.600 255.600 C 251.150 255.600,251.600 255.420,251.600 255.200 C 251.600 254.980,252.410 254.800,253.400 254.800 C 254.390 254.800,255.200 254.980,255.200 255.200 C 255.200 255.420,255.650 255.600,256.200 255.600 C 256.750 255.600,257.200 255.760,257.200 255.957 C 257.200 256.153,257.638 256.423,258.173 256.558 C 258.709 256.692,259.258 257.152,259.394 257.580 C 259.530 258.009,259.973 258.464,260.379 258.593 C 260.826 258.735,261.218 259.372,261.376 260.214 C 261.519 260.976,261.808 261.600,262.018 261.600 C 262.526 261.600,262.511 266.129,262.002 266.638 C 261.784 266.856,261.565 267.510,261.517 268.089 C 261.469 268.669,261.252 269.111,261.033 269.072 C 260.815 269.032,260.628 269.232,260.618 269.515 C 260.608 269.798,260.330 270.196,260.000 270.400 C 258.915 271.071,259.158 278.123,260.300 279.113 C 260.795 279.543,261.200 280.098,261.200 280.347 C 261.200 280.596,261.346 280.800,261.525 280.800 C 261.703 280.800,262.284 281.205,262.815 281.700 L 263.781 282.600 291.290 282.708 C 307.986 282.774,318.800 282.670,318.800 282.445 C 318.800 282.242,319.160 282.169,319.600 282.284 C 320.047 282.401,320.400 282.296,320.400 282.047 C 320.400 281.801,320.604 281.600,320.853 281.600 C 321.447 281.600,322.800 280.028,322.800 279.339 C 322.800 279.042,322.980 278.800,323.200 278.800 C 323.420 278.800,323.600 278.530,323.600 278.200 C 323.600 277.870,323.772 277.600,323.983 277.600 C 324.490 277.600,324.535 230.915,324.028 230.733 C 323.826 230.660,323.602 230.337,323.530 230.016 C 323.232 228.678,319.200 224.765,319.200 225.813 C 319.200 225.941,318.800 225.765,318.311 225.423 C 316.722 224.310,313.917 224.779,310.674 226.700 C 309.838 227.195,308.974 227.600,308.754 227.600 C 308.533 227.600,308.464 227.780,308.600 228.000 C 308.756 228.253,307.737 228.400,305.824 228.400 C 304.161 228.400,302.800 228.240,302.800 228.043 C 302.800 227.659,300.858 227.005,300.200 227.168 C 299.980 227.222,299.927 227.139,300.083 226.984 C 300.239 226.828,299.789 226.134,299.083 225.441 C 297.865 224.246,297.374 223.439,296.526 221.242 C 296.109 220.160,296.698 215.600,297.255 215.600 C 297.445 215.600,297.600 215.407,297.600 215.171 C 297.600 214.773,297.838 214.442,299.081 213.114 C 299.934 212.202,300.757 211.600,301.150 211.600 C 301.361 211.600,301.609 211.375,301.701 211.100 C 302.037 210.093,308.853 210.444,310.010 211.527 C 310.554 212.038,311.499 212.556,312.108 212.679 C 312.718 212.802,313.314 213.060,313.432 213.252 C 313.733 213.739,318.400 213.691,318.400 213.200 C 318.400 212.980,318.776 212.800,319.236 212.800 C 320.162 212.800,323.600 209.498,323.600 208.608 C 323.600 208.300,323.770 207.942,323.977 207.814 C 324.517 207.480,324.550 161.200,324.011 161.200 C 323.785 161.200,323.600 160.840,323.600 160.400 C 323.600 159.960,323.420 159.600,323.200 159.600 C 322.980 159.600,322.800 159.351,322.800 159.047 C 322.800 158.370,320.290 156.400,319.427 156.400 C 319.082 156.400,318.800 156.220,318.800 156.000 C 318.800 155.739,312.317 155.600,300.151 155.600 C 285.279 155.600,281.585 155.499,281.913 155.100 C 282.457 154.439,282.541 145.652,282.010 145.012 C 281.785 144.741,281.563 144.055,281.516 143.488 C 281.469 142.921,281.312 142.531,281.168 142.620 C 281.024 142.709,280.795 141.970,280.659 140.978 C 280.523 139.987,279.959 138.509,279.406 137.695 C 278.853 136.880,278.400 136.068,278.400 135.889 C 278.400 135.710,277.950 135.114,277.400 134.564 C 276.850 134.014,276.400 133.413,276.400 133.229 C 276.400 132.819,273.220 129.600,272.815 129.600 C 272.655 129.600,272.001 129.145,271.362 128.590 C 270.723 128.034,269.795 127.474,269.300 127.346 C 268.805 127.218,268.400 126.953,268.400 126.757 C 268.400 126.560,268.040 126.400,267.600 126.400 C 267.160 126.400,266.800 126.199,266.800 125.953 C 266.800 125.704,266.447 125.599,266.000 125.716 C 265.561 125.831,265.100 125.762,264.977 125.562 C 264.854 125.363,264.313 125.200,263.776 125.200 C 263.239 125.200,262.800 125.020,262.800 124.800 C 262.800 124.580,261.911 124.400,260.824 124.400 C 259.737 124.400,258.736 124.220,258.600 124.000 C 258.464 123.780,257.384 123.600,256.200 123.600 C 255.016 123.600,253.936 123.780,253.800 124.000 M258.400 141.200 C 258.400 141.420,258.850 141.600,259.400 141.600 C 259.950 141.600,260.400 141.768,260.400 141.973 C 260.400 142.178,260.805 142.474,261.300 142.630 C 262.348 142.961,263.600 144.284,263.600 145.061 C 263.600 145.358,263.780 145.600,264.000 145.600 C 264.220 145.600,264.400 145.870,264.400 146.200 C 264.400 146.530,264.580 146.800,264.800 146.800 C 265.020 146.800,265.200 147.415,265.200 148.167 C 265.200 148.918,265.425 149.616,265.700 149.717 C 266.100 149.863,266.100 150.006,265.700 150.430 C 265.425 150.721,265.200 151.464,265.200 152.080 C 265.200 152.696,265.020 153.200,264.800 153.200 C 264.580 153.200,264.400 153.470,264.400 153.800 C 264.400 154.130,264.240 154.400,264.043 154.400 C 263.847 154.400,263.574 154.850,263.436 155.400 C 263.298 155.950,263.022 156.400,262.822 156.400 C 262.090 156.400,259.209 159.824,259.204 160.700 C 259.202 161.195,259.010 161.600,258.777 161.600 C 258.328 161.600,258.366 165.725,258.826 166.800 C 260.295 170.237,262.893 172.526,265.163 172.381 C 265.733 172.345,275.515 172.334,286.900 172.358 L 307.600 172.400 307.600 182.600 L 307.600 192.800 305.187 192.800 C 303.602 192.800,302.708 192.975,302.579 193.310 C 302.451 193.645,301.827 193.767,300.757 193.664 C 299.863 193.579,298.930 193.710,298.685 193.955 C 298.440 194.200,297.882 194.400,297.444 194.400 C 296.493 194.400,291.723 196.708,290.625 197.700 C 290.198 198.085,289.692 198.400,289.501 198.400 C 289.309 198.400,289.281 198.608,289.438 198.862 C 289.616 199.149,289.548 199.215,289.260 199.037 C 288.755 198.725,284.400 203.027,284.400 203.838 C 284.400 204.100,284.130 204.418,283.800 204.545 C 283.470 204.671,283.200 205.141,283.200 205.587 C 283.200 206.034,283.020 206.400,282.800 206.400 C 282.580 206.400,282.400 206.670,282.400 207.000 C 282.400 207.330,282.228 207.600,282.018 207.600 C 281.808 207.600,281.518 208.232,281.373 209.004 C 281.228 209.777,280.950 210.507,280.755 210.628 C 280.560 210.749,280.400 211.276,280.400 211.800 C 280.400 212.324,280.239 212.852,280.042 212.974 C 279.714 213.177,279.554 215.212,279.537 219.400 C 279.518 223.844,279.637 225.376,280.019 225.612 C 280.250 225.754,280.488 226.305,280.549 226.835 C 280.730 228.411,282.273 231.968,282.999 232.485 C 283.220 232.642,283.423 232.957,283.450 233.185 C 283.478 233.413,283.522 233.774,283.550 233.987 C 283.624 234.559,289.902 240.800,290.404 240.800 C 290.640 240.800,291.227 241.167,291.709 241.615 C 292.190 242.064,292.993 242.534,293.492 242.659 C 293.991 242.784,294.400 243.047,294.400 243.243 C 294.400 243.440,294.850 243.600,295.400 243.600 C 295.950 243.600,296.400 243.767,296.400 243.971 C 296.400 244.175,297.435 244.457,298.700 244.598 C 299.965 244.738,301.360 245.021,301.800 245.226 C 302.240 245.432,303.725 245.549,305.100 245.487 L 307.600 245.374 307.600 255.887 L 307.600 266.400 293.600 266.400 L 279.600 266.400 279.600 263.800 C 279.600 262.370,279.437 261.200,279.237 261.200 C 278.933 261.200,278.544 258.775,278.388 255.900 C 278.367 255.515,278.181 255.200,277.975 255.200 C 277.769 255.200,277.600 254.840,277.600 254.400 C 277.600 253.960,277.428 253.600,277.218 253.600 C 277.008 253.600,276.718 252.970,276.574 252.200 C 276.429 251.430,276.151 250.800,275.955 250.800 C 275.760 250.800,275.600 250.570,275.600 250.288 C 275.600 250.007,275.250 249.524,274.821 249.215 C 274.393 248.907,274.132 248.511,274.240 248.335 C 274.440 248.011,269.749 243.200,269.233 243.200 C 269.078 243.200,268.602 242.879,268.175 242.487 C 267.326 241.706,264.738 240.400,264.040 240.400 C 263.798 240.400,263.600 240.220,263.600 240.000 C 263.600 239.780,263.165 239.600,262.633 239.600 C 262.102 239.600,261.592 239.375,261.500 239.100 C 261.374 238.722,259.391 238.600,253.400 238.600 C 247.409 238.600,245.426 238.722,245.300 239.100 C 245.208 239.375,244.698 239.600,244.167 239.600 C 243.635 239.600,243.200 239.760,243.200 239.955 C 243.200 240.151,242.570 240.429,241.800 240.574 C 241.030 240.718,240.400 241.008,240.400 241.218 C 240.400 241.428,240.130 241.600,239.800 241.600 C 239.470 241.600,239.200 241.768,239.200 241.973 C 239.200 242.178,238.826 242.465,238.370 242.610 C 237.464 242.897,231.600 248.586,231.600 249.178 C 231.600 249.379,231.368 249.781,231.085 250.071 C 230.391 250.783,229.200 253.367,229.200 254.160 C 229.200 254.512,229.001 254.800,228.757 254.800 C 228.514 254.800,228.410 255.049,228.527 255.354 C 228.644 255.659,228.500 256.250,228.208 256.667 C 227.680 257.421,227.245 260.855,227.215 264.500 L 227.200 266.400 220.400 266.400 L 213.600 266.400 213.600 248.400 C 213.600 236.667,213.461 230.400,213.200 230.400 C 212.980 230.400,212.800 230.083,212.800 229.696 C 212.800 229.013,211.721 227.674,210.113 226.359 C 208.755 225.249,204.216 224.424,203.485 225.155 C 203.240 225.400,202.626 225.600,202.120 225.600 C 201.614 225.600,201.200 225.777,201.200 225.992 C 201.200 226.208,200.750 226.498,200.200 226.636 C 199.650 226.774,199.200 227.120,199.200 227.406 C 199.200 227.728,198.897 227.846,198.400 227.716 C 197.953 227.599,197.600 227.704,197.600 227.953 C 197.600 228.236,196.648 228.400,195.000 228.400 C 193.533 228.400,192.400 228.226,192.400 228.000 C 192.400 227.780,192.085 227.594,191.700 227.587 C 191.315 227.580,190.658 227.316,190.241 227.000 C 189.824 226.684,189.329 226.520,189.141 226.636 C 188.953 226.752,188.800 226.580,188.800 226.253 C 188.800 225.926,188.364 225.315,187.831 224.896 C 187.278 224.461,186.743 223.501,186.585 222.662 C 186.433 221.853,186.150 221.093,185.955 220.972 C 185.465 220.669,185.506 217.600,186.000 217.600 C 186.220 217.600,186.400 217.190,186.400 216.689 C 186.400 215.341,189.293 211.600,190.336 211.600 C 190.554 211.600,190.797 211.409,190.875 211.176 C 191.044 210.668,197.164 210.019,197.449 210.479 C 197.558 210.655,197.997 210.800,198.424 210.800 C 198.851 210.800,199.200 210.941,199.200 211.114 C 199.200 211.608,201.435 212.800,202.362 212.800 C 202.823 212.800,203.200 212.954,203.200 213.142 C 203.200 213.330,204.190 213.476,205.400 213.467 C 206.610 213.458,207.600 213.304,207.600 213.125 C 207.600 212.946,208.037 212.800,208.571 212.800 C 209.106 212.800,209.813 212.530,210.143 212.200 C 210.473 211.870,210.907 211.600,211.108 211.600 C 211.310 211.600,211.817 210.925,212.237 210.100 C 212.657 209.275,213.135 208.540,213.300 208.467 C 213.465 208.393,213.600 200.248,213.600 190.367 L 213.600 172.400 229.700 172.361 C 238.555 172.340,246.475 172.354,247.300 172.392 C 248.147 172.431,248.800 172.274,248.800 172.031 C 248.800 171.794,249.068 171.600,249.395 171.600 C 250.710 171.600,253.600 168.047,253.600 166.432 C 253.600 166.000,253.780 165.536,254.000 165.400 C 254.220 165.264,254.400 164.724,254.400 164.200 C 254.400 163.676,254.220 163.136,254.000 163.000 C 253.780 162.864,253.600 162.223,253.600 161.576 C 253.600 160.929,253.420 160.400,253.200 160.400 C 252.980 160.400,252.800 160.158,252.800 159.861 C 252.800 159.150,251.392 157.542,251.059 157.874 C 250.917 158.017,250.800 157.898,250.800 157.610 C 250.800 157.322,250.260 156.571,249.600 155.940 C 248.940 155.309,248.400 154.525,248.400 154.197 C 248.400 153.868,248.220 153.600,248.000 153.600 C 247.780 153.600,247.600 153.251,247.600 152.824 C 247.600 152.397,247.420 151.936,247.200 151.800 C 246.980 151.664,246.800 150.843,246.800 149.976 C 246.800 149.109,246.980 148.400,247.200 148.400 C 247.420 148.400,247.600 147.950,247.600 147.400 C 247.600 146.850,247.760 146.400,247.957 146.400 C 248.153 146.400,248.426 145.950,248.564 145.400 C 248.702 144.850,248.992 144.400,249.208 144.400 C 249.423 144.400,249.600 144.119,249.600 143.776 C 249.600 143.433,249.761 143.252,249.958 143.374 C 250.155 143.496,250.419 143.326,250.546 142.998 C 250.672 142.669,251.141 142.400,251.587 142.400 C 252.034 142.400,252.400 142.220,252.400 142.000 C 252.400 141.780,252.760 141.600,253.200 141.600 C 253.640 141.600,254.000 141.420,254.000 141.200 C 254.000 140.980,254.990 140.800,256.200 140.800 C 257.410 140.800,258.400 140.980,258.400 141.200 M117.200 172.800 C 117.200 173.020,117.049 173.200,116.864 173.200 C 116.679 173.200,116.513 174.640,116.495 176.400 C 116.476 178.160,116.602 179.600,116.774 179.600 C 116.946 179.600,117.203 180.716,117.345 182.081 C 117.598 184.498,118.334 186.800,118.853 186.800 C 118.995 186.800,119.229 187.430,119.374 188.200 C 119.518 188.970,119.808 189.600,120.018 189.600 C 120.228 189.600,120.400 189.830,120.400 190.112 C 120.400 190.393,120.750 190.876,121.179 191.185 C 121.607 191.493,121.875 191.879,121.774 192.042 C 121.505 192.477,125.953 196.877,126.389 196.607 C 126.593 196.481,126.960 196.751,127.204 197.208 C 127.449 197.665,128.043 198.212,128.524 198.425 C 129.006 198.638,129.940 199.156,130.600 199.577 C 131.260 199.997,132.070 200.356,132.400 200.373 C 132.730 200.391,133.516 200.674,134.146 201.002 C 134.776 201.331,135.710 201.600,136.222 201.600 C 136.734 201.600,137.254 201.763,137.377 201.963 C 137.834 202.702,150.800 201.972,150.800 201.207 C 150.800 201.040,151.527 200.786,152.415 200.644 C 153.304 200.502,154.129 200.130,154.248 199.818 C 154.368 199.506,154.721 199.348,155.033 199.468 C 155.345 199.588,155.600 199.506,155.600 199.286 C 155.600 199.066,156.050 198.774,156.600 198.636 C 157.150 198.498,157.600 198.118,157.600 197.792 C 157.600 197.467,157.735 197.231,157.900 197.270 C 158.535 197.417,160.395 196.245,160.613 195.560 C 160.738 195.164,161.183 194.733,161.600 194.600 C 162.017 194.467,162.470 194.008,162.606 193.580 C 162.743 193.151,163.022 192.800,163.227 192.800 C 163.432 192.800,163.600 192.530,163.600 192.200 C 163.600 191.870,163.768 191.600,163.973 191.600 C 164.178 191.600,164.470 191.209,164.622 190.731 C 164.774 190.253,165.234 189.501,165.644 189.061 C 166.054 188.620,166.502 187.661,166.640 186.930 C 166.777 186.198,167.049 185.600,167.245 185.600 C 167.440 185.600,167.600 185.165,167.600 184.633 C 167.600 184.102,167.793 183.602,168.030 183.523 C 168.293 183.436,168.549 181.250,168.690 177.890 L 168.920 172.400 183.060 172.400 L 197.200 172.400 197.200 182.600 L 197.200 192.800 194.974 192.800 C 193.749 192.800,192.362 193.006,191.891 193.259 C 191.419 193.511,190.492 193.702,189.829 193.683 C 189.166 193.664,188.438 193.797,188.212 193.979 C 187.985 194.161,187.035 194.436,186.100 194.590 C 185.165 194.744,184.400 195.034,184.400 195.235 C 184.400 195.436,184.130 195.600,183.800 195.600 C 183.470 195.600,183.200 195.758,183.200 195.950 C 183.200 196.143,182.705 196.400,182.100 196.523 C 181.495 196.645,180.603 197.117,180.117 197.573 C 179.631 198.028,179.078 198.400,178.889 198.400 C 178.382 198.400,173.579 203.642,173.783 203.973 C 173.879 204.128,173.607 204.507,173.179 204.815 C 172.750 205.124,172.400 205.607,172.400 205.888 C 172.400 206.170,172.201 206.400,171.957 206.400 C 171.714 206.400,171.618 206.670,171.745 207.000 C 171.871 207.330,171.801 207.600,171.587 207.600 C 171.374 207.600,171.200 207.960,171.200 208.400 C 171.200 208.840,171.020 209.200,170.800 209.200 C 170.580 209.200,170.400 209.524,170.400 209.920 C 170.400 210.316,170.175 210.865,169.900 211.140 C 169.534 211.506,169.400 213.743,169.400 219.487 C 169.400 225.409,169.523 227.374,169.900 227.500 C 170.175 227.592,170.400 228.102,170.400 228.633 C 170.400 229.165,170.566 229.600,170.768 229.600 C 170.971 229.600,171.258 230.152,171.406 230.827 C 171.554 231.502,171.917 232.147,172.212 232.260 C 172.508 232.373,172.652 232.721,172.532 233.033 C 172.412 233.345,172.502 233.600,172.730 233.600 C 172.959 233.600,173.258 233.953,173.395 234.385 C 173.719 235.405,178.595 240.281,179.615 240.605 C 180.047 240.742,180.400 241.022,180.400 241.227 C 180.400 241.432,180.670 241.600,181.000 241.600 C 181.330 241.600,181.600 241.777,181.600 241.992 C 181.600 242.208,182.095 242.508,182.700 242.658 C 183.305 242.809,184.410 243.273,185.155 243.690 C 185.900 244.107,187.518 244.541,188.751 244.655 C 189.983 244.769,191.095 245.031,191.223 245.237 C 191.350 245.443,192.747 245.547,194.327 245.467 L 197.200 245.322 197.200 255.861 L 197.200 266.400 177.289 266.400 C 159.070 266.400,157.294 266.459,156.389 267.091 C 154.390 268.489,153.634 269.336,153.388 270.455 C 153.250 271.085,152.971 271.600,152.768 271.600 C 152.566 271.600,152.400 272.950,152.400 274.600 C 152.400 276.250,152.560 277.600,152.757 277.600 C 152.953 277.600,153.236 278.090,153.386 278.688 C 153.537 279.287,154.501 280.619,155.530 281.649 C 157.841 283.961,158.400 284.650,158.400 285.183 C 158.400 285.412,158.580 285.600,158.800 285.600 C 159.378 285.600,159.295 290.644,158.700 291.685 C 157.405 293.949,154.607 296.800,153.680 296.800 C 153.284 296.800,152.770 296.990,152.538 297.222 C 152.011 297.749,147.984 297.813,147.648 297.300 C 147.511 297.093,146.919 296.806,146.331 296.662 C 144.653 296.251,141.600 292.865,141.600 291.414 C 141.600 291.076,141.420 290.800,141.200 290.800 C 140.980 290.800,140.800 289.810,140.800 288.600 C 140.800 287.390,140.980 286.400,141.200 286.400 C 141.420 286.400,141.600 286.145,141.600 285.832 C 141.600 285.097,142.903 282.806,143.324 282.803 C 143.502 282.801,143.519 282.592,143.362 282.338 C 143.200 282.077,143.251 281.984,143.478 282.125 C 143.699 282.261,144.265 281.929,144.737 281.386 C 145.209 280.844,145.762 280.400,145.966 280.400 C 146.170 280.400,146.455 279.862,146.599 279.205 C 146.743 278.547,147.028 277.906,147.231 277.781 C 148.574 276.951,147.115 269.081,145.524 268.576 C 145.126 268.450,144.800 268.183,144.800 267.983 C 144.800 266.535,142.906 266.400,122.620 266.400 L 102.800 266.400 102.800 247.026 C 102.800 227.134,102.754 226.510,101.144 224.791 C 98.782 222.267,92.366 221.466,90.053 223.406 C 87.646 225.425,86.438 226.704,86.695 226.962 C 86.849 227.116,86.666 227.124,86.288 226.978 C 85.910 226.833,85.600 226.870,85.600 227.060 C 85.600 228.243,79.825 229.016,78.597 227.998 C 78.315 227.764,77.925 227.623,77.730 227.686 C 77.535 227.749,76.602 227.035,75.656 226.100 C 74.710 225.165,73.760 224.400,73.545 224.400 C 73.329 224.400,73.255 224.235,73.379 224.034 C 73.503 223.833,73.416 223.605,73.185 223.528 C 72.445 223.282,72.072 218.889,72.595 216.568 C 72.748 215.890,73.494 214.720,74.253 213.968 C 75.013 213.216,76.019 212.195,76.489 211.700 C 76.959 211.205,77.661 210.800,78.049 210.800 C 78.436 210.800,78.843 210.653,78.954 210.474 C 79.236 210.019,84.960 210.679,85.129 211.186 C 85.205 211.414,85.446 211.600,85.665 211.600 C 85.884 211.600,86.776 212.320,87.647 213.200 C 88.518 214.080,89.494 214.800,89.815 214.800 C 90.137 214.800,90.400 214.936,90.400 215.102 C 90.400 216.111,97.226 216.929,97.806 215.991 C 97.939 215.776,98.321 215.600,98.655 215.600 C 99.462 215.600,102.509 212.499,102.197 211.995 C 102.063 211.778,102.143 211.600,102.376 211.600 C 102.669 211.600,102.800 205.528,102.800 192.000 L 102.800 172.400 110.000 172.400 C 114.533 172.400,117.200 172.548,117.200 172.800 M204.885 298.680 C 204.381 298.779,203.753 299.206,203.489 299.630 C 203.224 300.053,202.809 300.400,202.566 300.400 C 201.828 300.400,179.598 322.867,179.347 323.867 C 179.219 324.380,178.953 324.800,178.757 324.800 C 178.101 324.800,178.352 330.580,179.070 332.021 C 179.969 333.822,181.840 335.600,182.837 335.600 C 183.283 335.600,183.548 335.760,183.428 335.955 C 183.307 336.151,184.016 336.432,185.004 336.580 C 187.030 336.884,190.400 336.493,190.400 335.955 C 190.400 335.760,190.681 335.600,191.024 335.600 C 191.367 335.600,191.536 335.420,191.400 335.200 C 191.264 334.980,191.357 334.800,191.606 334.800 C 192.135 334.800,215.166 311.748,215.888 310.496 C 216.432 309.552,216.473 303.600,215.935 303.600 C 215.751 303.600,215.600 303.330,215.600 303.000 C 215.600 302.670,215.440 302.400,215.243 302.400 C 215.047 302.400,214.774 301.950,214.636 301.400 C 214.488 300.813,214.098 300.400,213.689 300.400 C 213.306 300.400,212.757 300.022,212.468 299.561 C 212.128 299.016,211.673 298.792,211.172 298.923 C 210.747 299.034,210.400 298.989,210.400 298.822 C 210.400 298.493,206.365 298.389,204.885 298.680 M249.200 299.081 C 247.218 300.092,245.200 302.288,245.200 303.434 C 245.200 303.965,245.057 304.400,244.882 304.400 C 244.708 304.400,244.521 305.570,244.469 307.000 C 244.416 308.430,244.539 309.600,244.743 309.600 C 244.947 309.600,245.237 310.091,245.387 310.691 C 245.676 311.840,268.191 334.688,268.849 334.500 C 269.042 334.445,269.200 334.689,269.200 335.043 C 269.200 335.433,269.423 335.600,269.767 335.468 C 270.079 335.348,270.426 335.490,270.538 335.784 C 271.050 337.116,277.609 336.823,278.633 335.423 C 278.883 335.080,279.371 334.800,279.717 334.800 C 280.063 334.800,280.466 334.421,280.614 333.957 C 280.761 333.494,281.166 332.782,281.515 332.375 C 282.583 331.127,282.987 324.796,282.019 324.473 C 281.789 324.396,281.600 324.093,281.600 323.798 C 281.600 323.086,258.133 299.600,257.421 299.600 C 257.116 299.600,256.798 299.395,256.715 299.145 C 256.439 298.316,250.795 298.268,249.200 299.081 M227.798 308.003 C 227.693 308.172,227.128 308.432,226.543 308.579 C 225.355 308.877,223.200 310.980,223.200 311.842 C 223.200 312.149,223.020 312.400,222.800 312.400 C 222.580 312.400,222.400 312.929,222.400 313.576 C 222.400 314.223,222.220 314.864,222.000 315.000 C 221.744 315.158,221.600 320.996,221.600 331.200 C 221.600 341.404,221.744 347.242,222.000 347.400 C 222.220 347.536,222.400 348.177,222.400 348.824 C 222.400 349.471,222.580 350.000,222.800 350.000 C 223.020 350.000,223.200 350.272,223.200 350.604 C 223.200 353.297,233.494 356.518,234.307 354.079 C 234.395 353.816,234.659 353.600,234.895 353.600 C 235.673 353.600,238.302 350.391,238.553 349.134 C 238.967 347.065,238.840 313.672,238.417 313.411 C 238.207 313.281,238.121 312.949,238.227 312.673 C 238.444 312.108,237.010 310.400,236.318 310.400 C 236.070 310.400,235.983 310.283,236.126 310.141 C 236.553 309.714,234.750 308.400,233.739 308.400 C 233.222 308.400,232.800 308.241,232.800 308.047 C 232.800 307.614,228.064 307.572,227.798 308.003 " stroke="none" fill="#ffffff" fill-rule="evenodd"></path><path id="path1" d="" stroke="none" fill="#80848c" fill-rule="evenodd"></path><path id="path2" d="" stroke="none" fill="#80848c" fill-rule="evenodd"></path><path id="path3" d="" stroke="none" fill="#80848c" fill-rule="evenodd"></path><path id="path4" d="" stroke="none" fill="#80848c" fill-rule="evenodd"></path></g></svg>