<svg id="svg" version="1.1" xmlns="http://www.w3.org/2000/svg" xmlns:xlink="http://www.w3.org/1999/xlink" width="400" height="429.3333333333333" viewBox="0, 0, 400,429.3333333333333"><g id="svgg"><path id="path0" d="M169.908 1.425 C 169.750 1.583,167.616 1.682,165.166 1.645 C 162.463 1.603,160.506 1.746,160.191 2.008 C 159.904 2.245,158.215 2.455,156.435 2.475 C 154.656 2.494,153.200 2.641,153.200 2.801 C 153.200 2.961,150.725 3.223,147.700 3.382 C 144.675 3.542,141.981 3.853,141.713 4.075 C 141.445 4.296,140.320 4.470,139.213 4.461 C 138.106 4.453,137.200 4.599,137.200 4.786 C 137.200 5.127,133.795 5.574,131.234 5.569 C 130.483 5.567,129.747 5.762,129.599 6.002 C 129.451 6.241,128.581 6.467,127.665 6.504 C 126.749 6.540,126.000 6.696,126.000 6.851 C 126.000 7.005,124.647 7.258,122.994 7.413 C 121.341 7.568,119.890 7.854,119.771 8.048 C 119.651 8.241,119.023 8.400,118.376 8.400 C 117.729 8.400,117.200 8.580,117.200 8.800 C 117.200 9.020,116.570 9.200,115.800 9.200 C 115.030 9.200,114.400 9.349,114.400 9.531 C 114.400 9.713,113.881 9.785,113.247 9.692 C 112.613 9.599,111.973 9.720,111.824 9.962 C 111.675 10.203,111.023 10.400,110.376 10.400 C 109.729 10.400,109.200 10.580,109.200 10.800 C 109.200 11.020,108.780 11.200,108.267 11.200 C 107.753 11.200,107.212 11.321,107.064 11.470 C 106.916 11.618,106.391 11.789,105.897 11.851 C 103.923 12.096,102.400 12.507,102.400 12.794 C 102.400 12.961,101.672 13.214,100.783 13.356 C 99.893 13.499,98.858 13.777,98.483 13.974 C 96.733 14.894,94.803 15.600,94.040 15.600 C 93.578 15.600,93.200 15.780,93.200 16.000 C 93.200 16.220,92.750 16.400,92.200 16.400 C 91.650 16.400,91.200 16.580,91.200 16.800 C 91.200 17.020,90.885 17.201,90.500 17.202 C 90.115 17.204,89.284 17.474,88.654 17.802 C 88.024 18.131,87.259 18.400,86.954 18.400 C 86.649 18.400,86.400 18.572,86.400 18.782 C 86.400 18.992,85.770 19.282,85.000 19.426 C 84.230 19.571,83.600 19.849,83.600 20.045 C 83.600 20.240,83.366 20.400,83.080 20.400 C 82.357 20.400,80.407 21.338,80.403 21.687 C 80.401 21.846,80.130 21.871,79.800 21.745 C 79.470 21.618,79.200 21.714,79.200 21.957 C 79.200 22.201,78.840 22.400,78.400 22.400 C 77.960 22.400,77.600 22.566,77.600 22.768 C 77.600 22.971,77.060 23.255,76.400 23.400 C 75.740 23.545,75.200 23.829,75.200 24.032 C 75.200 24.234,74.970 24.400,74.688 24.400 C 74.407 24.400,73.934 24.737,73.637 25.149 C 73.315 25.596,72.795 25.819,72.348 25.702 C 71.937 25.595,71.600 25.708,71.600 25.953 C 71.600 26.199,71.330 26.400,71.000 26.400 C 70.670 26.400,70.400 26.560,70.400 26.757 C 70.400 26.953,69.950 27.226,69.400 27.364 C 68.850 27.502,68.400 27.792,68.400 28.008 C 68.400 28.223,68.130 28.400,67.800 28.400 C 67.470 28.400,67.200 28.577,67.200 28.792 C 67.200 29.008,66.750 29.298,66.200 29.436 C 65.650 29.574,65.200 29.847,65.200 30.043 C 65.200 30.240,65.008 30.400,64.773 30.400 C 64.365 30.400,61.983 32.048,60.871 33.100 C 60.581 33.375,60.168 33.600,59.953 33.600 C 59.739 33.600,59.114 34.050,58.564 34.600 C 58.014 35.150,57.342 35.600,57.070 35.600 C 56.799 35.600,56.312 35.978,55.988 36.439 C 55.665 36.900,54.990 37.438,54.489 37.633 C 53.988 37.829,53.439 38.364,53.269 38.824 C 53.099 39.283,52.834 39.646,52.680 39.630 C 51.847 39.541,51.631 39.671,51.400 40.400 C 51.260 40.840,50.911 41.200,50.623 41.200 C 49.960 41.200,47.409 43.573,47.076 44.500 C 46.938 44.885,46.545 45.200,46.203 45.200 C 45.860 45.200,45.409 45.650,45.200 46.200 C 44.991 46.750,44.605 47.200,44.342 47.200 C 43.727 47.200,39.703 51.444,39.394 52.418 C 39.265 52.826,38.808 53.270,38.380 53.406 C 37.951 53.543,37.600 53.794,37.600 53.966 C 37.600 54.137,37.285 54.652,36.900 55.110 C 34.854 57.542,34.026 58.630,34.016 58.902 C 34.009 59.068,33.468 59.764,32.814 60.448 C 32.160 61.133,31.517 62.032,31.385 62.447 C 31.254 62.861,30.978 63.200,30.773 63.200 C 30.568 63.200,30.400 63.470,30.400 63.800 C 30.400 64.130,30.223 64.400,30.008 64.400 C 29.792 64.400,29.502 64.850,29.364 65.400 C 29.226 65.950,28.992 66.400,28.843 66.400 C 28.694 66.400,28.254 66.940,27.864 67.600 C 27.474 68.260,27.279 68.800,27.432 68.800 C 27.584 68.800,27.223 69.286,26.628 69.881 C 26.034 70.475,25.447 71.465,25.324 72.081 C 25.201 72.696,24.942 73.200,24.750 73.200 C 24.557 73.200,24.400 73.470,24.400 73.800 C 24.400 74.130,24.238 74.400,24.039 74.400 C 23.841 74.400,23.489 74.895,23.258 75.500 C 23.027 76.105,22.569 77.050,22.240 77.600 C 21.025 79.631,19.200 83.941,19.200 84.781 C 19.200 85.257,19.020 85.536,18.800 85.400 C 18.580 85.264,18.400 85.433,18.400 85.776 C 18.400 86.119,18.243 86.400,18.051 86.400 C 17.859 86.400,17.587 87.120,17.446 88.000 C 17.306 88.880,17.013 89.600,16.795 89.600 C 16.578 89.600,16.400 90.050,16.400 90.600 C 16.400 91.150,16.231 91.600,16.025 91.600 C 15.818 91.600,15.528 92.410,15.379 93.400 C 15.231 94.390,14.950 95.200,14.755 95.200 C 14.560 95.200,14.400 95.650,14.400 96.200 C 14.400 96.750,14.199 97.200,13.953 97.200 C 13.693 97.200,13.586 97.616,13.698 98.200 C 13.803 98.750,13.734 99.200,13.545 99.200 C 13.355 99.200,13.200 99.650,13.200 100.200 C 13.200 100.750,13.020 101.200,12.800 101.200 C 12.580 101.200,12.400 101.639,12.400 102.176 C 12.400 102.713,12.233 103.256,12.028 103.383 C 11.823 103.509,11.532 104.602,11.381 105.812 C 11.230 107.021,10.948 108.109,10.753 108.229 C 10.559 108.349,10.400 108.876,10.400 109.400 C 10.400 109.924,10.203 110.475,9.962 110.623 C 9.722 110.772,9.607 111.327,9.709 111.856 C 9.810 112.386,9.737 112.915,9.546 113.033 C 9.356 113.151,9.200 113.957,9.200 114.824 C 9.200 115.691,9.020 116.400,8.800 116.400 C 8.580 116.400,8.400 117.019,8.400 117.776 C 8.400 118.533,8.203 119.275,7.962 119.424 C 7.721 119.573,7.595 120.303,7.681 121.047 C 7.768 121.791,7.696 122.400,7.520 122.400 C 7.344 122.400,7.200 123.300,7.200 124.400 C 7.200 125.500,7.020 126.400,6.800 126.400 C 6.580 126.400,6.400 127.300,6.400 128.400 C 6.400 129.500,6.217 130.400,5.994 130.400 C 5.770 130.400,5.605 130.895,5.626 131.500 C 5.700 133.597,5.080 139.600,4.789 139.600 C 4.628 139.600,4.484 140.875,4.470 142.433 C 4.455 143.991,4.259 145.487,4.035 145.758 C 3.810 146.029,3.610 147.499,3.591 149.025 C 3.499 156.179,3.089 163.200,2.762 163.200 C 2.555 163.200,2.400 167.740,2.400 173.776 C 2.400 180.396,2.250 184.445,2.000 184.600 C 1.454 184.937,1.448 243.482,1.993 243.667 C 2.234 243.748,2.398 247.286,2.417 252.788 C 2.434 257.731,2.615 261.977,2.820 262.224 C 3.025 262.471,3.209 264.772,3.229 267.337 C 3.249 269.902,3.385 272.000,3.533 272.000 C 3.680 271.999,3.750 273.529,3.690 275.400 C 3.621 277.527,3.733 278.800,3.990 278.800 C 4.230 278.800,4.400 279.929,4.400 281.520 C 4.400 283.016,4.565 284.411,4.766 284.620 C 5.143 285.011,5.658 289.452,5.632 292.082 C 5.624 292.897,5.793 293.672,6.009 293.805 C 6.224 293.938,6.400 294.836,6.400 295.800 C 6.400 296.764,6.558 297.651,6.752 297.770 C 6.946 297.890,7.232 299.521,7.388 301.394 C 7.544 303.267,7.836 304.800,8.036 304.800 C 8.236 304.800,8.400 305.430,8.400 306.200 C 8.400 306.970,8.557 307.600,8.748 307.600 C 8.940 307.600,9.220 308.856,9.372 310.391 C 9.523 311.926,9.816 313.286,10.023 313.414 C 10.230 313.542,10.400 314.177,10.400 314.824 C 10.400 315.471,10.560 316.000,10.756 316.000 C 11.087 316.000,11.582 318.093,11.630 319.692 C 11.642 320.073,11.819 320.488,12.025 320.616 C 12.231 320.743,12.400 321.287,12.400 321.824 C 12.400 322.361,12.560 322.800,12.755 322.800 C 13.072 322.800,13.522 324.377,13.667 326.000 C 13.697 326.330,13.883 326.706,14.081 326.836 C 14.278 326.966,14.469 327.461,14.505 327.936 C 14.541 328.411,14.692 328.800,14.840 328.800 C 14.988 328.800,15.235 329.638,15.388 330.662 C 15.542 331.687,15.924 332.781,16.238 333.095 C 16.551 333.408,16.713 333.818,16.597 334.005 C 16.482 334.192,16.570 334.458,16.793 334.596 C 17.017 334.734,17.201 335.152,17.202 335.524 C 17.204 335.896,17.474 336.716,17.802 337.346 C 18.131 337.976,18.400 338.741,18.400 339.046 C 18.400 339.351,18.572 339.600,18.782 339.600 C 18.992 339.600,19.282 340.230,19.426 341.000 C 19.571 341.770,19.849 342.400,20.045 342.400 C 20.240 342.400,20.400 342.760,20.400 343.200 C 20.400 343.640,20.560 344.000,20.755 344.000 C 20.951 344.000,21.229 344.630,21.374 345.400 C 21.518 346.170,21.766 346.800,21.924 346.800 C 22.232 346.800,23.600 349.741,23.600 350.403 C 23.600 350.621,23.780 350.800,24.000 350.800 C 24.220 350.800,24.400 351.070,24.400 351.400 C 24.400 351.730,24.553 352.000,24.740 352.000 C 24.927 352.000,25.413 352.810,25.822 353.800 C 26.230 354.790,26.688 355.600,26.839 355.600 C 26.990 355.600,27.226 356.050,27.364 356.600 C 27.502 357.150,27.792 357.600,28.008 357.600 C 28.223 357.600,28.400 357.870,28.400 358.200 C 28.400 358.530,28.560 358.800,28.757 358.800 C 28.953 358.800,29.226 359.250,29.364 359.800 C 29.502 360.350,29.792 360.800,30.008 360.800 C 30.223 360.800,30.400 361.070,30.400 361.400 C 30.400 361.730,30.568 362.000,30.773 362.000 C 30.978 362.000,31.274 362.405,31.430 362.900 C 31.587 363.395,32.049 364.091,32.457 364.447 C 32.866 364.803,33.200 365.270,33.200 365.486 C 33.200 366.247,34.708 367.669,34.930 367.116 C 35.044 366.832,35.151 367.093,35.168 367.697 C 35.188 368.364,35.669 369.241,36.400 369.940 C 37.060 370.571,37.600 371.292,37.600 371.543 C 37.600 371.794,37.900 372.000,38.267 372.000 C 38.633 372.000,38.822 372.111,38.686 372.248 C 38.550 372.384,38.655 372.732,38.919 373.021 C 39.184 373.311,39.850 374.095,40.400 374.764 C 42.669 377.524,44.702 379.565,44.943 379.324 C 45.084 379.182,45.200 379.327,45.200 379.644 C 45.200 380.315,46.620 381.647,46.966 381.300 C 47.095 381.172,47.200 381.302,47.200 381.590 C 47.200 382.192,49.649 384.649,50.100 384.500 C 50.265 384.445,50.400 384.594,50.400 384.831 C 50.400 385.386,52.260 387.239,53.800 388.218 C 54.460 388.638,55.146 389.214,55.325 389.499 C 55.503 389.784,55.823 389.910,56.034 389.779 C 56.246 389.648,56.370 389.750,56.310 390.005 C 56.249 390.261,56.827 390.814,57.594 391.235 C 58.360 391.656,58.831 392.000,58.640 392.000 C 58.449 392.000,58.750 392.360,59.309 392.800 C 59.869 393.240,60.441 393.600,60.582 393.600 C 60.723 393.600,61.236 394.005,61.722 394.500 C 62.613 395.407,63.694 396.173,64.800 396.680 C 65.130 396.831,65.640 397.192,65.932 397.481 C 66.225 397.771,66.658 397.888,66.894 397.742 C 67.149 397.585,67.207 397.664,67.038 397.938 C 66.881 398.192,66.931 398.400,67.148 398.400 C 67.365 398.400,67.788 398.625,68.088 398.900 C 68.885 399.630,70.099 400.389,70.900 400.658 C 71.285 400.788,71.600 401.052,71.600 401.247 C 71.600 401.441,71.941 401.600,72.357 401.600 C 72.774 401.600,73.218 401.870,73.345 402.200 C 73.471 402.530,73.941 402.800,74.387 402.800 C 74.834 402.800,75.200 402.980,75.200 403.200 C 75.200 403.420,75.455 403.600,75.767 403.600 C 76.078 403.600,76.393 403.735,76.467 403.900 C 76.540 404.065,77.860 404.830,79.400 405.600 C 80.940 406.370,82.290 407.095,82.400 407.211 C 82.583 407.404,83.391 407.758,87.100 409.266 C 87.815 409.557,88.400 409.923,88.400 410.080 C 88.400 410.236,89.032 410.482,89.804 410.627 C 90.577 410.772,91.307 411.050,91.428 411.245 C 91.549 411.440,91.997 411.600,92.424 411.600 C 92.851 411.600,93.200 411.778,93.200 411.995 C 93.200 412.213,93.920 412.506,94.800 412.646 C 95.680 412.787,96.400 413.059,96.400 413.251 C 96.400 413.443,96.649 413.600,96.954 413.600 C 97.259 413.600,98.024 413.869,98.654 414.198 C 99.284 414.526,100.205 414.796,100.700 414.798 C 101.195 414.799,101.600 414.980,101.600 415.200 C 101.600 415.420,102.039 415.600,102.576 415.600 C 103.113 415.600,103.654 415.764,103.778 415.965 C 103.903 416.166,104.768 416.456,105.702 416.610 C 106.636 416.764,107.629 417.076,107.910 417.302 C 108.190 417.529,108.536 417.598,108.678 417.456 C 108.820 417.313,109.314 417.445,109.777 417.748 C 110.239 418.051,111.424 418.432,112.409 418.595 C 113.394 418.757,114.423 419.070,114.695 419.290 C 114.967 419.510,115.445 419.592,115.756 419.472 C 116.067 419.353,116.655 419.504,117.061 419.810 C 117.468 420.115,118.835 420.485,120.100 420.634 C 121.365 420.782,122.400 421.042,122.400 421.212 C 122.400 421.381,123.035 421.520,123.811 421.520 C 124.587 421.520,125.455 421.714,125.741 421.951 C 126.026 422.188,127.557 422.502,129.142 422.649 C 130.728 422.797,132.120 423.071,132.236 423.259 C 132.352 423.446,133.121 423.600,133.944 423.600 C 134.767 423.600,135.611 423.763,135.820 423.961 C 136.029 424.160,137.820 424.445,139.799 424.595 C 141.779 424.744,143.580 425.017,143.802 425.201 C 144.023 425.385,145.237 425.527,146.498 425.515 C 147.759 425.504,149.029 425.692,149.319 425.933 C 149.613 426.177,152.409 426.481,155.621 426.619 C 158.797 426.756,161.486 427.010,161.597 427.183 C 161.709 427.357,163.741 427.519,166.114 427.543 C 168.487 427.567,170.771 427.770,171.188 427.994 C 172.276 428.576,228.171 428.551,229.261 427.967 C 229.712 427.726,231.999 427.550,234.435 427.569 C 236.836 427.588,238.800 427.448,238.800 427.258 C 238.800 427.068,241.545 426.783,244.900 426.626 C 248.255 426.469,251.171 426.174,251.380 425.970 C 251.589 425.767,252.793 425.600,254.056 425.600 C 255.319 425.600,256.451 425.442,256.570 425.248 C 256.690 425.054,258.513 424.767,260.622 424.609 C 262.948 424.434,264.526 424.136,264.636 423.851 C 264.747 423.561,265.430 423.439,266.416 423.533 C 267.295 423.617,268.257 423.484,268.553 423.239 C 268.849 422.993,270.331 422.693,271.846 422.573 C 273.361 422.452,274.660 422.184,274.733 421.977 C 274.807 421.770,275.561 421.600,276.410 421.600 C 277.258 421.600,278.053 421.438,278.176 421.239 C 278.298 421.041,279.479 420.753,280.800 420.600 C 282.121 420.447,283.302 420.159,283.424 419.961 C 283.547 419.762,284.166 419.600,284.800 419.600 C 285.434 419.600,286.054 419.437,286.177 419.237 C 286.300 419.038,287.300 418.751,288.400 418.600 C 289.500 418.449,290.500 418.162,290.623 417.963 C 290.746 417.763,291.287 417.600,291.824 417.600 C 292.361 417.600,292.800 417.437,292.800 417.238 C 292.800 417.038,293.700 416.751,294.800 416.600 C 295.900 416.449,296.800 416.162,296.800 415.962 C 296.800 415.763,297.250 415.600,297.800 415.600 C 298.350 415.600,298.800 415.441,298.800 415.247 C 298.800 414.798,300.335 414.300,301.462 414.383 C 301.936 414.419,302.441 414.257,302.585 414.024 C 302.729 413.791,303.197 413.600,303.624 413.600 C 304.051 413.600,304.400 413.443,304.400 413.251 C 304.400 413.059,305.128 412.786,306.019 412.643 C 306.923 412.499,307.531 412.211,307.395 411.992 C 307.257 411.769,307.679 411.600,308.376 411.600 C 309.049 411.600,309.600 411.428,309.600 411.218 C 309.600 411.008,310.230 410.718,311.000 410.574 C 311.770 410.429,312.400 410.151,312.400 409.955 C 312.400 409.760,312.636 409.600,312.925 409.600 C 313.642 409.600,316.690 408.102,317.002 407.596 C 317.141 407.371,317.443 407.303,317.672 407.445 C 317.902 407.586,318.204 407.544,318.345 407.351 C 318.723 406.832,321.176 405.600,321.832 405.600 C 322.145 405.600,322.400 405.440,322.400 405.243 C 322.400 405.047,322.850 404.774,323.400 404.636 C 323.950 404.498,324.400 404.208,324.400 403.992 C 324.400 403.777,324.670 403.600,325.000 403.600 C 325.330 403.600,325.600 403.456,325.600 403.280 C 325.600 403.105,326.242 402.729,327.026 402.445 C 327.810 402.161,328.550 401.675,328.669 401.365 C 328.788 401.054,329.143 400.800,329.457 400.800 C 330.002 400.800,331.979 399.701,332.400 399.163 C 332.510 399.023,333.005 398.781,333.500 398.627 C 333.995 398.472,334.400 398.178,334.400 397.973 C 334.400 397.768,334.670 397.600,335.000 397.600 C 335.330 397.600,335.600 397.459,335.600 397.286 C 335.600 397.114,336.165 396.639,336.855 396.231 C 337.546 395.823,338.446 395.199,338.855 394.845 C 339.265 394.490,339.935 393.910,340.345 393.555 C 340.754 393.201,341.654 392.577,342.345 392.169 C 343.035 391.761,343.600 391.207,343.600 390.937 C 343.600 390.668,343.808 390.319,344.062 390.162 C 344.369 389.972,344.420 390.065,344.215 390.438 C 344.045 390.747,344.353 390.505,344.900 389.900 C 345.446 389.295,346.072 388.800,346.292 388.800 C 346.858 388.800,355.583 380.116,355.300 379.834 C 355.172 379.705,355.377 379.600,355.757 379.600 C 356.137 379.600,356.336 379.420,356.200 379.200 C 356.064 378.980,356.144 378.800,356.377 378.800 C 357.017 378.800,360.001 375.567,360.623 374.200 C 360.923 373.540,361.176 373.163,361.184 373.361 C 361.200 373.732,362.203 372.672,363.734 370.665 C 364.210 370.041,364.825 369.289,365.100 368.994 C 365.375 368.699,365.600 368.264,365.600 368.029 C 365.600 367.793,365.810 367.600,366.067 367.600 C 366.323 367.600,366.428 367.495,366.300 367.366 C 366.171 367.238,366.366 366.772,366.733 366.333 C 367.100 365.893,367.715 365.160,368.100 364.705 C 368.485 364.250,368.800 363.635,368.800 363.339 C 368.800 363.042,368.952 362.800,369.137 362.800 C 369.322 362.800,369.817 362.125,370.237 361.300 C 370.657 360.475,371.289 359.530,371.643 359.200 C 371.996 358.870,372.423 358.164,372.592 357.631 C 372.760 357.098,373.248 356.288,373.676 355.831 C 374.105 355.374,374.555 354.505,374.677 353.900 C 374.800 353.295,375.058 352.800,375.250 352.800 C 375.442 352.800,375.600 352.530,375.600 352.200 C 375.600 351.870,375.772 351.600,375.982 351.600 C 376.192 351.600,376.482 350.970,376.626 350.200 C 376.771 349.430,377.049 348.800,377.245 348.800 C 377.440 348.800,377.600 348.530,377.600 348.200 C 377.600 347.870,377.772 347.600,377.982 347.600 C 378.192 347.600,378.482 346.970,378.626 346.200 C 378.771 345.430,379.049 344.800,379.245 344.800 C 379.440 344.800,379.600 344.530,379.600 344.200 C 379.600 343.870,379.780 343.600,380.000 343.600 C 380.220 343.600,380.401 343.285,380.402 342.900 C 380.404 342.515,380.674 341.684,381.002 341.054 C 381.331 340.424,381.600 339.659,381.600 339.354 C 381.600 339.049,381.778 338.800,381.995 338.800 C 382.213 338.800,382.506 338.080,382.646 337.200 C 382.787 336.320,383.059 335.600,383.251 335.600 C 383.443 335.600,383.600 335.240,383.600 334.800 C 383.600 334.360,383.757 334.000,383.949 334.000 C 384.141 334.000,384.414 333.272,384.556 332.383 C 384.699 331.493,384.992 330.413,385.208 329.983 C 385.423 329.552,385.777 328.848,385.992 328.417 C 386.208 327.987,386.502 326.903,386.645 326.009 C 386.788 325.114,387.061 324.286,387.253 324.168 C 387.444 324.049,387.600 323.513,387.600 322.976 C 387.600 322.439,387.801 322.000,388.047 322.000 C 388.308 322.000,388.413 321.582,388.300 320.990 C 388.194 320.435,388.263 319.885,388.454 319.767 C 388.644 319.649,388.800 319.023,388.800 318.376 C 388.800 317.729,388.980 317.200,389.200 317.200 C 389.420 317.200,389.600 316.671,389.600 316.024 C 389.600 315.377,389.769 314.743,389.975 314.616 C 390.181 314.488,390.354 314.073,390.360 313.692 C 390.387 311.990,390.929 308.800,391.190 308.800 C 391.349 308.800,391.494 308.248,391.513 307.572 C 391.532 306.897,391.733 306.122,391.958 305.850 C 392.184 305.579,392.491 303.881,392.642 302.078 C 392.792 300.275,393.069 298.800,393.258 298.800 C 393.446 298.800,393.600 297.915,393.600 296.833 C 393.600 295.752,393.769 294.807,393.975 294.733 C 394.181 294.660,394.476 292.575,394.632 290.100 C 394.787 287.625,395.068 285.600,395.257 285.600 C 395.446 285.600,395.600 284.351,395.600 282.824 C 395.600 281.297,395.788 279.931,396.017 279.790 C 396.246 279.648,396.419 278.782,396.401 277.866 C 396.322 273.825,396.950 262.800,397.259 262.800 C 397.447 262.800,397.600 258.300,397.600 252.800 C 397.600 246.400,397.744 242.800,398.000 242.800 C 398.544 242.800,398.553 184.519,398.010 184.333 C 397.773 184.253,397.602 180.689,397.575 175.300 C 397.550 170.223,397.374 166.400,397.166 166.400 C 396.965 166.400,396.800 164.330,396.800 161.800 C 396.800 159.270,396.665 157.200,396.500 157.201 C 396.335 157.201,396.241 155.671,396.292 153.801 C 396.346 151.785,396.224 150.400,395.992 150.400 C 395.771 150.400,395.600 149.092,395.600 147.400 C 395.600 145.750,395.447 144.400,395.259 144.400 C 394.950 144.400,394.295 138.652,394.361 136.520 C 394.376 136.036,394.211 135.530,393.994 135.396 C 393.777 135.262,393.600 134.353,393.600 133.376 C 393.600 132.399,393.455 131.600,393.277 131.600 C 393.099 131.600,392.737 130.025,392.472 128.100 C 391.684 122.374,391.532 121.600,391.190 121.600 C 391.010 121.600,390.738 120.427,390.585 118.994 C 390.431 117.561,390.147 116.291,389.953 116.171 C 389.759 116.051,389.600 115.423,389.600 114.776 C 389.600 114.129,389.420 113.600,389.200 113.600 C 388.980 113.600,388.800 113.071,388.800 112.424 C 388.800 111.777,388.637 111.146,388.438 111.023 C 388.238 110.900,388.169 110.439,388.284 110.000 C 388.401 109.553,388.296 109.200,388.047 109.200 C 387.801 109.200,387.600 108.671,387.600 108.024 C 387.600 107.377,387.437 106.746,387.237 106.623 C 387.038 106.500,386.751 105.499,386.600 104.400 C 386.449 103.300,386.162 102.400,385.962 102.400 C 385.763 102.400,385.600 101.969,385.600 101.443 C 385.600 100.916,385.344 100.387,385.031 100.267 C 384.683 100.134,384.546 99.729,384.678 99.224 C 384.798 98.766,384.701 98.400,384.459 98.400 C 384.220 98.400,384.129 98.130,384.255 97.800 C 384.382 97.470,384.286 97.200,384.043 97.200 C 383.799 97.200,383.600 96.750,383.600 96.200 C 383.600 95.650,383.420 95.200,383.200 95.200 C 382.980 95.200,382.800 94.851,382.800 94.424 C 382.800 93.997,382.637 93.546,382.438 93.423 C 382.238 93.300,382.169 92.839,382.284 92.400 C 382.401 91.953,382.296 91.600,382.047 91.600 C 381.801 91.600,381.600 91.330,381.600 91.000 C 381.600 90.670,381.443 90.400,381.251 90.400 C 381.059 90.400,380.787 89.680,380.646 88.800 C 380.506 87.920,380.213 87.200,379.995 87.200 C 379.778 87.200,379.600 86.840,379.600 86.400 C 379.600 85.960,379.441 85.600,379.247 85.600 C 378.903 85.600,378.270 84.104,378.357 83.500 C 378.381 83.335,378.220 83.200,378.000 83.200 C 377.780 83.200,377.600 82.840,377.600 82.400 C 377.600 81.960,377.441 81.600,377.247 81.600 C 376.903 81.600,376.270 80.104,376.357 79.500 C 376.381 79.335,376.220 79.200,376.000 79.200 C 375.780 79.200,375.600 78.840,375.600 78.400 C 375.600 77.960,375.440 77.600,375.243 77.600 C 375.047 77.600,374.765 77.116,374.617 76.524 C 374.468 75.932,374.011 75.156,373.600 74.800 C 373.189 74.444,372.731 73.664,372.581 73.067 C 372.431 72.470,371.998 71.761,371.619 71.491 C 371.240 71.221,370.817 70.546,370.680 69.992 C 370.543 69.438,370.064 68.590,369.615 68.109 C 369.167 67.627,368.800 67.045,368.800 66.814 C 368.800 66.583,368.350 66.003,367.800 65.525 C 367.250 65.047,366.800 64.413,366.800 64.115 C 366.800 63.818,366.530 63.471,366.200 63.345 C 365.870 63.218,365.600 62.937,365.600 62.720 C 365.600 62.106,364.136 60.397,363.853 60.680 C 363.714 60.819,363.600 60.543,363.600 60.067 C 363.600 59.590,363.432 59.200,363.227 59.200 C 363.022 59.200,362.743 58.849,362.606 58.420 C 362.470 57.992,362.008 57.530,361.580 57.394 C 361.151 57.257,360.800 56.904,360.800 56.609 C 360.800 55.359,345.491 40.000,343.668 39.422 C 343.213 39.277,342.730 38.809,342.594 38.380 C 342.458 37.952,341.909 37.492,341.373 37.358 C 340.838 37.223,340.400 36.953,340.400 36.757 C 340.400 36.560,340.119 36.400,339.776 36.400 C 339.433 36.400,339.261 36.225,339.393 36.012 C 339.525 35.798,339.210 35.517,338.693 35.388 C 338.176 35.258,337.424 34.713,337.021 34.176 C 336.618 33.639,335.972 33.200,335.587 33.200 C 335.201 33.200,334.781 32.927,334.653 32.594 C 334.525 32.261,333.966 31.815,333.410 31.604 C 332.855 31.393,332.400 31.035,332.400 30.810 C 332.400 30.584,332.059 30.400,331.643 30.400 C 331.226 30.400,330.782 30.130,330.655 29.800 C 330.529 29.470,330.142 29.200,329.796 29.200 C 329.450 29.200,328.773 28.833,328.291 28.385 C 327.810 27.936,327.007 27.466,326.508 27.341 C 326.009 27.216,325.600 26.953,325.600 26.757 C 325.600 26.560,325.330 26.400,325.000 26.400 C 324.670 26.400,324.400 26.223,324.400 26.008 C 324.400 25.792,323.950 25.502,323.400 25.364 C 322.850 25.226,322.400 24.953,322.400 24.757 C 322.400 24.560,322.040 24.400,321.600 24.400 C 321.160 24.400,320.800 24.234,320.800 24.032 C 320.800 23.829,320.260 23.545,319.600 23.400 C 318.940 23.255,318.400 22.971,318.400 22.768 C 318.400 22.566,318.040 22.400,317.600 22.400 C 317.160 22.400,316.800 22.234,316.800 22.032 C 316.800 21.829,316.260 21.545,315.600 21.400 C 314.940 21.255,314.400 20.971,314.400 20.768 C 314.400 20.566,314.040 20.400,313.600 20.400 C 313.160 20.400,312.800 20.222,312.800 20.005 C 312.800 19.787,312.080 19.494,311.200 19.354 C 310.320 19.213,309.600 18.941,309.600 18.749 C 309.600 18.557,309.330 18.400,309.000 18.400 C 308.670 18.400,308.400 18.236,308.400 18.035 C 308.400 17.834,307.635 17.542,306.700 17.386 C 305.765 17.230,304.910 16.977,304.800 16.823 C 304.485 16.385,301.268 15.200,300.392 15.200 C 299.956 15.200,299.600 15.020,299.600 14.800 C 299.600 14.580,299.150 14.400,298.600 14.400 C 298.050 14.400,297.600 14.237,297.600 14.038 C 297.600 13.838,296.700 13.551,295.600 13.400 C 294.500 13.249,293.600 12.962,293.600 12.762 C 293.600 12.563,293.150 12.400,292.600 12.400 C 292.050 12.400,291.600 12.237,291.600 12.038 C 291.600 11.838,290.700 11.551,289.600 11.400 C 288.500 11.249,287.600 10.974,287.600 10.789 C 287.600 10.605,287.043 10.469,286.362 10.489 C 285.681 10.508,284.979 10.290,284.803 10.005 C 284.622 9.711,284.116 9.581,283.641 9.705 C 283.179 9.826,282.700 9.762,282.577 9.562 C 282.454 9.363,281.733 9.200,280.976 9.200 C 280.219 9.200,279.600 9.020,279.600 8.800 C 279.600 8.580,278.970 8.400,278.200 8.400 C 277.430 8.400,276.800 8.200,276.800 7.957 C 276.800 7.686,276.419 7.609,275.825 7.758 C 275.288 7.893,274.751 7.844,274.630 7.649 C 274.510 7.454,273.661 7.284,272.744 7.271 C 271.827 7.259,270.970 7.084,270.839 6.882 C 270.707 6.681,269.988 6.501,269.239 6.483 C 268.491 6.465,267.768 6.272,267.633 6.054 C 267.498 5.835,265.816 5.529,263.894 5.373 C 261.972 5.218,260.400 4.935,260.400 4.745 C 260.400 4.555,259.320 4.400,258.000 4.400 C 256.680 4.400,255.600 4.236,255.600 4.036 C 255.600 3.836,253.256 3.543,250.392 3.384 C 247.527 3.226,245.100 2.962,244.999 2.798 C 244.897 2.634,243.429 2.473,241.736 2.440 C 240.043 2.407,238.436 2.196,238.164 1.970 C 237.892 1.744,236.889 1.555,235.935 1.549 C 234.981 1.543,219.799 1.448,202.198 1.338 C 184.597 1.228,170.066 1.267,169.908 1.425 M221.200 17.939 C 221.200 18.126,225.475 18.407,230.700 18.563 C 235.999 18.721,240.259 19.013,240.333 19.223 C 240.407 19.431,241.802 19.600,243.433 19.600 C 245.306 19.600,246.400 19.761,246.400 20.036 C 246.400 20.316,247.253 20.423,248.801 20.336 C 250.121 20.261,251.201 20.335,251.201 20.500 C 251.200 20.665,252.179 20.800,253.376 20.800 C 254.573 20.800,255.663 20.978,255.798 21.196 C 255.932 21.414,256.744 21.565,257.602 21.531 C 258.460 21.498,259.395 21.661,259.681 21.895 C 259.966 22.128,261.775 22.449,263.700 22.607 C 265.625 22.765,267.200 23.053,267.200 23.247 C 267.200 23.441,267.729 23.600,268.376 23.600 C 269.023 23.600,269.663 23.779,269.799 23.998 C 269.934 24.217,270.620 24.389,271.322 24.381 C 273.223 24.358,275.600 24.838,275.600 25.244 C 275.600 25.440,276.230 25.600,277.000 25.600 C 277.770 25.600,278.400 25.769,278.400 25.975 C 278.400 26.181,278.715 26.360,279.100 26.371 C 281.417 26.441,285.200 27.509,285.200 28.093 C 285.200 28.313,285.650 28.407,286.200 28.302 C 286.750 28.197,287.200 28.266,287.200 28.455 C 287.200 28.645,287.650 28.800,288.200 28.800 C 288.750 28.800,289.200 28.980,289.200 29.200 C 289.200 29.420,289.639 29.600,290.176 29.600 C 290.713 29.600,291.261 29.775,291.393 29.988 C 291.525 30.202,292.522 30.495,293.609 30.639 C 294.696 30.783,295.488 31.058,295.369 31.251 C 295.250 31.443,295.513 31.600,295.953 31.600 C 296.393 31.600,296.852 31.760,296.973 31.956 C 297.094 32.151,297.689 32.431,298.296 32.578 C 299.975 32.984,301.600 33.754,301.600 34.144 C 301.600 34.336,301.951 34.401,302.381 34.289 C 302.810 34.177,303.215 34.201,303.281 34.342 C 303.470 34.752,306.900 36.396,307.999 36.603 C 308.548 36.707,309.058 36.974,309.132 37.196 C 309.206 37.418,309.522 37.600,309.833 37.600 C 310.145 37.600,310.400 37.766,310.400 37.968 C 310.400 38.171,310.921 38.451,311.559 38.591 C 312.196 38.731,313.024 39.185,313.400 39.600 C 313.776 40.015,314.604 40.469,315.241 40.609 C 315.879 40.749,316.400 41.029,316.400 41.232 C 316.400 41.434,316.670 41.600,317.000 41.600 C 317.330 41.600,317.600 41.777,317.600 41.992 C 317.600 42.208,318.050 42.498,318.600 42.636 C 319.150 42.774,319.600 43.047,319.600 43.243 C 319.600 43.440,319.848 43.600,320.151 43.600 C 320.454 43.600,320.926 43.870,321.200 44.200 C 321.474 44.530,321.993 44.800,322.353 44.800 C 322.713 44.800,323.232 45.160,323.507 45.600 C 323.782 46.040,324.266 46.400,324.584 46.400 C 324.901 46.400,325.304 46.629,325.480 46.910 C 325.656 47.190,326.307 47.742,326.926 48.136 C 327.546 48.530,328.407 49.156,328.839 49.527 C 329.272 49.897,329.800 50.223,330.013 50.250 C 330.226 50.278,330.559 50.323,330.753 50.350 C 330.948 50.377,331.201 50.762,331.317 51.204 C 331.433 51.646,332.129 52.269,332.864 52.588 C 333.599 52.908,334.058 53.176,333.885 53.184 C 333.491 53.204,337.161 56.800,337.574 56.800 C 338.021 56.800,342.024 60.785,343.352 62.551 C 343.986 63.394,345.246 64.840,346.152 65.766 C 348.073 67.727,349.600 69.641,349.600 70.087 C 349.600 70.259,349.881 70.400,350.224 70.400 C 350.567 70.400,350.730 70.589,350.587 70.821 C 350.444 71.052,350.794 71.673,351.364 72.201 C 351.934 72.730,352.400 73.440,352.400 73.781 C 352.400 74.121,352.670 74.400,353.000 74.400 C 353.330 74.400,353.600 74.750,353.600 75.177 C 353.600 75.605,353.934 76.190,354.343 76.477 C 354.751 76.765,355.214 77.408,355.371 77.906 C 355.529 78.404,355.825 78.708,356.029 78.582 C 356.233 78.456,356.400 78.794,356.400 79.334 C 356.400 79.873,356.670 80.418,357.000 80.545 C 357.330 80.671,357.600 81.141,357.600 81.587 C 357.600 82.034,357.780 82.400,358.000 82.400 C 358.220 82.400,358.400 82.670,358.400 83.000 C 358.400 83.330,358.560 83.600,358.757 83.600 C 358.953 83.600,359.226 84.050,359.364 84.600 C 359.502 85.150,359.792 85.600,360.008 85.600 C 360.223 85.600,360.400 85.855,360.400 86.167 C 360.400 86.478,360.606 86.802,360.857 86.886 C 361.109 86.970,361.371 87.567,361.440 88.213 C 361.509 88.860,361.753 89.451,361.983 89.528 C 362.212 89.604,362.400 89.922,362.400 90.233 C 362.400 90.545,362.560 90.800,362.755 90.800 C 362.951 90.800,363.229 91.430,363.374 92.200 C 363.518 92.970,363.808 93.600,364.018 93.600 C 364.228 93.600,364.400 93.849,364.400 94.154 C 364.400 94.459,364.669 95.224,364.998 95.854 C 365.326 96.484,365.596 97.315,365.598 97.700 C 365.599 98.085,365.780 98.400,366.000 98.400 C 366.220 98.400,366.400 98.738,366.400 99.151 C 366.400 99.564,366.668 100.124,366.996 100.396 C 367.323 100.668,367.493 101.050,367.372 101.245 C 367.251 101.440,367.338 101.600,367.564 101.600 C 367.790 101.600,367.869 101.877,367.739 102.215 C 367.609 102.553,367.823 103.183,368.213 103.615 C 368.604 104.047,368.784 104.400,368.613 104.400 C 368.442 104.400,368.496 104.634,368.733 104.920 C 368.971 105.206,369.286 106.196,369.434 107.120 C 369.581 108.044,369.859 108.800,370.051 108.800 C 370.243 108.800,370.400 109.250,370.400 109.800 C 370.400 110.350,370.562 110.800,370.761 110.800 C 370.959 110.800,371.247 111.880,371.400 113.200 C 371.553 114.520,371.841 115.600,372.039 115.600 C 372.238 115.600,372.400 116.039,372.400 116.576 C 372.400 117.113,372.580 117.664,372.800 117.800 C 373.020 117.936,373.200 118.566,373.200 119.200 C 373.200 119.834,373.363 120.454,373.562 120.577 C 373.762 120.700,373.826 121.179,373.705 121.641 C 373.584 122.104,373.673 122.598,373.902 122.741 C 374.131 122.883,374.375 123.540,374.444 124.200 C 374.513 124.860,374.694 125.580,374.846 125.800 C 374.997 126.020,375.251 127.460,375.409 129.000 C 375.568 130.540,375.891 132.041,376.128 132.337 C 376.365 132.632,376.517 133.487,376.467 134.237 C 376.416 134.986,376.543 135.600,376.749 135.600 C 376.955 135.600,377.252 137.493,377.410 139.806 C 377.567 142.120,377.855 144.110,378.048 144.230 C 378.242 144.349,378.400 145.481,378.400 146.744 C 378.400 148.007,378.569 149.211,378.776 149.420 C 378.982 149.629,379.279 152.725,379.435 156.300 C 379.591 159.875,379.872 162.800,380.059 162.800 C 380.247 162.800,380.400 165.320,380.400 168.400 C 380.400 171.867,380.552 174.000,380.800 174.000 C 381.064 174.000,381.200 187.800,381.200 214.600 C 381.200 239.225,381.054 255.200,380.830 255.200 C 380.622 255.200,380.455 257.558,380.450 260.589 C 380.444 263.730,380.257 266.321,379.999 266.801 C 379.757 267.254,379.569 268.744,379.581 270.112 C 379.619 274.311,379.113 280.800,378.747 280.800 C 378.556 280.800,378.400 281.959,378.400 283.376 C 378.400 284.793,378.219 286.064,377.998 286.201 C 377.778 286.337,377.598 287.203,377.599 288.125 C 377.602 290.760,377.161 294.163,376.763 294.580 C 376.563 294.789,376.400 295.734,376.400 296.680 C 376.400 297.626,376.241 298.400,376.047 298.400 C 375.853 298.400,375.568 299.749,375.413 301.397 C 375.259 303.046,374.967 304.496,374.766 304.621 C 374.565 304.745,374.400 305.467,374.400 306.224 C 374.400 306.981,374.222 307.600,374.004 307.600 C 373.787 307.600,373.619 308.005,373.632 308.500 C 373.672 310.064,373.109 312.800,372.747 312.800 C 372.556 312.800,372.400 313.325,372.400 313.967 C 372.400 314.608,372.242 315.193,372.049 315.267 C 371.856 315.340,371.590 316.299,371.459 317.397 C 371.327 318.495,371.035 319.455,370.809 319.530 C 370.584 319.605,370.400 320.102,370.400 320.633 C 370.400 321.165,370.237 321.600,370.038 321.600 C 369.838 321.600,369.551 322.500,369.400 323.600 C 369.249 324.700,368.962 325.600,368.762 325.600 C 368.563 325.600,368.400 325.949,368.400 326.376 C 368.400 326.803,368.236 327.254,368.035 327.378 C 367.834 327.503,367.548 328.323,367.400 329.202 C 367.251 330.081,366.966 330.800,366.765 330.800 C 366.564 330.800,366.400 331.160,366.400 331.600 C 366.400 332.040,366.240 332.400,366.045 332.400 C 365.849 332.400,365.562 333.075,365.408 333.899 C 365.253 334.724,364.954 335.505,364.743 335.635 C 364.532 335.765,364.332 336.248,364.297 336.708 C 364.262 337.168,364.106 337.465,363.950 337.369 C 363.793 337.272,363.546 337.735,363.401 338.397 C 363.255 339.058,363.013 339.600,362.863 339.600 C 362.565 339.600,361.200 342.557,361.200 343.203 C 361.200 343.421,361.020 343.600,360.800 343.600 C 360.580 343.600,360.400 343.870,360.400 344.200 C 360.400 344.530,360.220 344.800,360.000 344.800 C 359.780 344.800,359.600 345.138,359.600 345.551 C 359.600 345.964,359.330 346.526,359.000 346.800 C 358.670 347.074,358.400 347.546,358.400 347.849 C 358.400 348.152,358.240 348.400,358.043 348.400 C 357.847 348.400,357.574 348.850,357.436 349.400 C 357.298 349.950,357.008 350.400,356.792 350.400 C 356.577 350.400,356.400 350.670,356.400 351.000 C 356.400 351.330,356.223 351.600,356.008 351.600 C 355.792 351.600,355.502 352.050,355.364 352.600 C 355.226 353.150,354.981 353.600,354.820 353.600 C 354.658 353.600,354.187 354.230,353.772 355.000 C 353.357 355.770,352.879 356.400,352.709 356.400 C 352.539 356.400,352.400 356.579,352.400 356.797 C 352.400 357.015,351.995 357.660,351.500 358.229 C 351.005 358.798,350.600 359.389,350.600 359.542 C 350.600 359.695,349.968 360.445,349.195 361.210 C 348.422 361.974,347.570 363.095,347.303 363.700 C 347.036 364.305,346.543 364.800,346.209 364.800 C 345.874 364.800,345.600 364.962,345.600 365.160 C 345.600 365.604,336.417 374.800,335.974 374.800 C 335.798 374.800,335.540 375.160,335.400 375.600 C 335.260 376.040,334.849 376.400,334.486 376.400 C 334.123 376.400,333.460 376.810,333.013 377.310 C 332.566 377.811,331.660 378.559,331.000 378.973 C 330.340 379.387,329.656 379.968,329.480 380.263 C 329.304 380.558,328.932 380.800,328.652 380.800 C 328.373 380.800,327.753 381.250,327.275 381.800 C 326.797 382.350,326.134 382.800,325.803 382.800 C 325.471 382.800,325.200 382.942,325.200 383.116 C 325.200 383.290,324.300 383.958,323.200 384.600 C 322.100 385.242,321.200 385.910,321.200 386.084 C 321.200 386.258,320.862 386.400,320.449 386.400 C 320.036 386.400,319.474 386.670,319.200 387.000 C 318.926 387.330,318.469 387.600,318.184 387.600 C 317.900 387.600,317.607 387.735,317.533 387.900 C 317.460 388.065,316.140 388.830,314.600 389.600 C 313.060 390.370,311.740 391.135,311.667 391.300 C 311.593 391.465,311.278 391.600,310.967 391.600 C 310.655 391.600,310.400 391.780,310.400 392.000 C 310.400 392.220,310.085 392.404,309.700 392.409 C 309.315 392.414,307.920 392.950,306.600 393.600 C 305.280 394.250,303.975 394.786,303.700 394.791 C 303.425 394.796,303.200 394.980,303.200 395.200 C 303.200 395.420,302.750 395.600,302.200 395.600 C 301.650 395.600,301.200 395.780,301.200 396.000 C 301.200 396.220,300.882 396.400,300.494 396.400 C 300.106 396.400,299.136 396.750,298.338 397.177 C 297.540 397.605,296.778 397.845,296.644 397.711 C 296.510 397.576,296.400 397.677,296.400 397.933 C 296.400 398.190,295.950 398.400,295.400 398.400 C 294.850 398.400,294.400 398.563,294.400 398.763 C 294.400 398.962,294.060 399.036,293.645 398.928 C 293.230 398.819,292.769 398.926,292.622 399.165 C 292.474 399.404,291.913 399.600,291.376 399.600 C 290.839 399.600,290.400 399.780,290.400 400.000 C 290.400 400.220,289.939 400.400,289.376 400.400 C 288.813 400.400,288.444 400.547,288.555 400.728 C 288.667 400.908,288.227 400.977,287.579 400.882 C 286.876 400.779,286.400 400.889,286.400 401.155 C 286.400 401.400,285.950 401.600,285.400 401.600 C 284.850 401.600,284.400 401.780,284.400 402.000 C 284.400 402.220,283.770 402.400,283.000 402.400 C 282.230 402.400,281.600 402.555,281.600 402.745 C 281.600 402.934,281.171 403.007,280.647 402.907 C 280.123 402.807,279.572 402.922,279.423 403.162 C 279.275 403.403,278.634 403.600,278.000 403.600 C 277.366 403.600,276.745 403.766,276.619 403.969 C 276.494 404.171,275.223 404.462,273.796 404.615 C 272.368 404.768,271.200 405.052,271.200 405.247 C 271.200 405.441,270.491 405.600,269.624 405.600 C 268.757 405.600,267.948 405.761,267.826 405.958 C 267.704 406.155,266.162 406.444,264.400 406.600 C 262.638 406.756,261.096 407.045,260.974 407.242 C 260.852 407.439,259.964 407.600,259.000 407.600 C 258.036 407.600,257.153 407.753,257.037 407.940 C 256.807 408.313,251.082 408.930,248.700 408.838 C 247.875 408.807,247.200 408.965,247.200 409.190 C 247.200 409.433,245.981 409.600,244.200 409.600 C 242.550 409.600,241.200 409.758,241.200 409.951 C 241.200 410.351,233.685 410.786,226.641 410.794 C 223.994 410.797,221.664 410.981,221.390 411.208 C 220.691 411.788,179.141 411.752,178.782 411.171 C 178.618 410.906,176.875 410.768,174.159 410.805 C 168.732 410.879,159.868 410.384,159.600 409.993 C 159.490 409.832,158.155 409.675,156.633 409.644 C 155.112 409.613,153.642 409.401,153.368 409.174 C 153.094 408.946,152.089 408.766,151.135 408.774 C 148.362 408.797,143.600 408.334,143.600 408.042 C 143.600 407.895,142.757 407.737,141.727 407.692 C 140.697 407.648,139.741 407.428,139.602 407.204 C 139.464 406.980,138.912 406.802,138.375 406.808 C 136.348 406.833,132.800 406.287,132.800 405.950 C 132.800 405.758,132.080 405.600,131.200 405.600 C 130.277 405.600,129.600 405.409,129.600 405.148 C 129.600 404.854,129.109 404.775,128.200 404.923 C 127.430 405.047,126.800 404.981,126.800 404.775 C 126.800 404.569,126.271 404.400,125.624 404.400 C 124.977 404.400,124.336 404.220,124.200 404.000 C 124.064 403.780,123.434 403.600,122.800 403.600 C 122.166 403.600,121.549 403.441,121.429 403.247 C 121.309 403.052,120.221 402.770,119.012 402.619 C 117.802 402.468,116.709 402.177,116.583 401.972 C 116.456 401.767,115.913 401.600,115.376 401.600 C 114.839 401.600,114.400 401.399,114.400 401.153 C 114.400 400.893,113.984 400.786,113.400 400.898 C 112.850 401.003,112.400 400.934,112.400 400.745 C 112.400 400.555,111.950 400.400,111.400 400.400 C 110.850 400.400,110.400 400.220,110.400 400.000 C 110.400 399.780,109.961 399.600,109.424 399.600 C 108.887 399.600,108.346 399.436,108.222 399.235 C 108.097 399.034,107.278 398.748,106.400 398.600 C 105.522 398.452,104.703 398.166,104.578 397.965 C 104.454 397.764,104.003 397.600,103.576 397.600 C 103.149 397.600,102.800 397.443,102.800 397.251 C 102.800 397.059,102.080 396.787,101.200 396.646 C 100.320 396.506,99.600 396.213,99.600 395.995 C 99.600 395.778,99.351 395.600,99.046 395.600 C 98.741 395.600,97.976 395.331,97.346 395.002 C 96.716 394.674,95.900 394.404,95.533 394.402 C 95.167 394.401,94.807 394.265,94.733 394.100 C 94.523 393.627,92.144 392.400,91.438 392.400 C 91.087 392.400,90.799 392.265,90.797 392.100 C 90.792 391.632,88.736 390.793,88.282 391.073 C 88.051 391.216,87.999 391.125,88.162 390.862 C 88.342 390.570,88.144 390.400,87.624 390.400 C 87.171 390.400,86.800 390.209,86.800 389.976 C 86.800 389.743,86.619 389.665,86.397 389.802 C 86.176 389.939,85.891 389.780,85.764 389.450 C 85.637 389.119,84.963 388.724,84.267 388.571 C 83.570 388.418,82.775 387.971,82.500 387.578 C 82.224 387.185,81.494 386.752,80.877 386.617 C 80.260 386.481,79.501 386.017,79.189 385.585 C 78.878 385.153,78.297 384.800,77.899 384.800 C 77.501 384.800,77.071 384.530,76.945 384.200 C 76.818 383.870,76.464 383.600,76.157 383.600 C 75.851 383.600,75.600 383.432,75.600 383.227 C 75.600 383.022,75.195 382.726,74.700 382.570 C 74.205 382.413,73.515 381.958,73.166 381.558 C 72.818 381.158,72.053 380.648,71.466 380.425 C 70.880 380.202,70.400 379.749,70.400 379.418 C 70.400 379.086,69.950 378.702,69.400 378.564 C 68.850 378.426,68.400 378.153,68.400 377.957 C 68.400 377.760,68.100 377.600,67.733 377.600 C 67.367 377.600,67.176 377.491,67.309 377.358 C 67.566 377.101,65.692 375.200,65.182 375.200 C 65.016 375.200,64.250 374.570,63.480 373.800 C 62.710 373.030,61.852 372.400,61.573 372.400 C 61.295 372.400,61.176 372.291,61.310 372.157 C 61.635 371.831,58.226 368.400,57.577 368.400 C 57.297 368.400,57.181 368.286,57.320 368.147 C 57.459 368.008,56.679 367.019,55.586 365.949 C 54.494 364.879,53.600 363.905,53.600 363.785 C 53.600 363.552,53.095 362.906,51.799 361.481 C 51.359 360.996,50.676 360.099,50.282 359.487 C 49.887 358.875,49.412 358.469,49.225 358.584 C 49.038 358.700,48.767 358.324,48.623 357.749 C 48.329 356.576,47.425 355.508,47.048 355.886 C 46.911 356.022,46.800 355.756,46.800 355.295 C 46.800 354.834,46.558 354.215,46.263 353.920 C 45.967 353.624,45.217 352.576,44.597 351.591 C 43.976 350.606,43.183 349.581,42.834 349.313 C 42.485 349.045,42.345 348.820,42.523 348.813 C 42.700 348.806,42.532 348.270,42.149 347.622 C 41.766 346.974,41.306 346.534,41.127 346.645 C 40.947 346.756,40.800 346.387,40.800 345.824 C 40.800 345.261,40.626 344.800,40.413 344.800 C 40.199 344.800,40.129 344.530,40.255 344.200 C 40.382 343.870,40.286 343.600,40.043 343.600 C 39.799 343.600,39.600 343.345,39.600 343.033 C 39.600 342.722,39.465 342.407,39.300 342.333 C 39.007 342.203,37.034 338.298,35.948 335.700 C 35.649 334.985,35.269 334.400,35.102 334.400 C 34.936 334.400,34.799 334.085,34.798 333.700 C 34.796 333.315,34.526 332.484,34.198 331.854 C 33.869 331.224,33.600 330.459,33.600 330.154 C 33.600 329.849,33.420 329.600,33.200 329.600 C 32.980 329.600,32.800 329.251,32.800 328.824 C 32.800 328.397,32.628 327.941,32.417 327.811 C 32.207 327.681,32.136 327.310,32.260 326.987 C 32.384 326.664,32.286 326.400,32.043 326.400 C 31.799 326.400,31.600 325.950,31.600 325.400 C 31.600 324.850,31.437 324.400,31.238 324.400 C 31.038 324.400,30.751 323.500,30.600 322.400 C 30.449 321.300,30.162 320.400,29.962 320.400 C 29.763 320.400,29.600 319.965,29.600 319.433 C 29.600 318.902,29.425 318.407,29.212 318.333 C 28.998 318.260,28.741 317.750,28.641 317.200 C 28.541 316.650,28.425 316.110,28.384 316.000 C 28.342 315.890,28.337 315.501,28.373 315.135 C 28.409 314.770,28.250 314.354,28.019 314.212 C 27.789 314.069,27.600 313.423,27.600 312.776 C 27.600 312.129,27.441 311.600,27.247 311.600 C 27.052 311.600,26.768 310.430,26.615 309.000 C 26.462 307.570,26.171 306.400,25.968 306.400 C 25.766 306.400,25.600 305.770,25.600 305.000 C 25.600 304.230,25.441 303.600,25.247 303.600 C 25.053 303.600,24.765 302.205,24.607 300.500 C 24.449 298.795,24.153 297.196,23.950 296.946 C 23.746 296.697,23.555 295.842,23.525 295.046 C 23.495 294.251,23.346 293.600,23.193 293.600 C 22.892 293.600,22.315 288.582,22.380 286.530 C 22.403 285.832,22.236 285.146,22.011 285.006 C 21.785 284.867,21.600 283.694,21.600 282.400 C 21.600 281.106,21.448 279.953,21.262 279.838 C 20.902 279.616,20.286 271.501,20.384 268.267 C 20.416 267.203,20.241 266.090,19.994 265.793 C 19.710 265.451,19.547 263.256,19.550 259.826 C 19.553 256.687,19.396 254.400,19.177 254.400 C 18.943 254.400,18.800 238.688,18.800 213.000 C 18.800 187.280,18.943 171.600,19.178 171.600 C 19.398 171.600,19.565 168.982,19.577 165.324 C 19.591 161.363,19.755 158.952,20.022 158.786 C 20.262 158.638,20.434 157.243,20.420 155.562 C 20.382 151.136,20.863 144.809,21.255 144.566 C 21.445 144.449,21.600 143.204,21.600 141.800 C 21.600 140.396,21.785 139.133,22.011 138.994 C 22.236 138.854,22.408 138.168,22.392 137.470 C 22.339 135.162,22.903 130.800,23.255 130.800 C 23.445 130.800,23.600 129.900,23.600 128.800 C 23.600 127.700,23.783 126.800,24.006 126.800 C 24.230 126.800,24.396 126.305,24.376 125.700 C 24.315 123.850,24.846 120.608,25.234 120.467 C 25.435 120.393,25.600 119.718,25.600 118.967 C 25.600 118.215,25.759 117.600,25.953 117.600 C 26.148 117.600,26.432 116.430,26.585 115.000 C 26.738 113.570,27.029 112.400,27.232 112.400 C 27.434 112.400,27.600 111.961,27.600 111.424 C 27.600 110.887,27.777 110.338,27.994 110.204 C 28.211 110.070,28.385 109.564,28.381 109.080 C 28.370 107.609,28.869 105.600,29.245 105.600 C 29.440 105.600,29.600 105.150,29.600 104.600 C 29.600 104.050,29.757 103.600,29.949 103.600 C 30.141 103.600,30.413 102.882,30.553 102.005 C 30.693 101.128,31.155 99.792,31.580 99.035 C 32.005 98.279,32.473 97.017,32.621 96.230 C 32.768 95.444,33.049 94.800,33.245 94.800 C 33.440 94.800,33.600 94.350,33.600 93.800 C 33.600 93.250,33.780 92.800,34.000 92.800 C 34.220 92.800,34.381 92.665,34.357 92.500 C 34.270 91.896,34.903 90.400,35.247 90.400 C 35.441 90.400,35.600 90.040,35.600 89.600 C 35.600 89.160,35.780 88.800,36.000 88.800 C 36.220 88.800,36.400 88.621,36.400 88.403 C 36.400 87.757,37.765 84.800,38.063 84.800 C 38.213 84.800,38.455 84.260,38.600 83.600 C 38.745 82.940,39.029 82.400,39.232 82.400 C 39.434 82.400,39.600 82.040,39.600 81.600 C 39.600 81.160,39.777 80.800,39.992 80.800 C 40.208 80.800,40.498 80.350,40.636 79.800 C 40.774 79.250,41.047 78.800,41.243 78.800 C 41.440 78.800,41.600 78.530,41.600 78.200 C 41.600 77.870,41.777 77.600,41.992 77.600 C 42.208 77.600,42.498 77.150,42.636 76.600 C 42.774 76.050,43.047 75.600,43.243 75.600 C 43.440 75.600,43.600 75.330,43.600 75.000 C 43.600 74.670,43.791 74.400,44.024 74.400 C 44.257 74.400,44.336 74.220,44.200 74.000 C 44.064 73.780,44.173 73.600,44.443 73.600 C 44.713 73.600,44.831 73.498,44.706 73.373 C 44.582 73.248,45.002 72.612,45.640 71.959 C 46.278 71.307,46.800 70.551,46.800 70.281 C 46.800 70.011,47.250 69.452,47.800 69.039 C 48.350 68.626,48.800 67.965,48.800 67.571 C 48.800 67.177,49.160 66.740,49.600 66.600 C 50.040 66.460,50.400 66.186,50.400 65.991 C 50.400 65.796,50.850 65.186,51.400 64.636 C 51.950 64.086,52.400 63.523,52.400 63.385 C 52.400 63.246,54.290 61.252,56.600 58.954 C 58.910 56.655,60.800 54.589,60.800 54.363 C 60.800 54.138,60.946 54.043,61.125 54.154 C 61.304 54.264,61.962 53.915,62.587 53.377 C 63.213 52.840,63.864 52.400,64.035 52.400 C 64.206 52.400,64.460 52.040,64.600 51.600 C 64.740 51.160,65.093 50.800,65.385 50.800 C 65.677 50.800,66.493 50.260,67.200 49.600 C 67.907 48.940,68.696 48.400,68.954 48.400 C 69.212 48.400,69.683 48.040,70.000 47.600 C 70.317 47.160,70.794 46.800,71.060 46.800 C 71.325 46.800,71.785 46.558,72.080 46.263 C 72.376 45.967,73.424 45.220,74.409 44.603 C 75.394 43.985,76.290 43.372,76.400 43.240 C 76.510 43.108,77.275 42.657,78.100 42.237 C 78.925 41.817,79.600 41.322,79.600 41.137 C 79.600 40.952,79.798 40.800,80.040 40.800 C 80.519 40.800,83.277 39.577,83.600 39.221 C 84.010 38.769,86.485 37.600,87.032 37.600 C 87.345 37.600,87.600 37.420,87.600 37.200 C 87.600 36.980,87.779 36.800,87.997 36.800 C 88.659 36.800,91.600 35.432,91.600 35.124 C 91.600 34.966,92.232 34.718,93.004 34.573 C 93.777 34.428,94.507 34.150,94.628 33.955 C 94.749 33.760,95.197 33.600,95.624 33.600 C 96.051 33.600,96.400 33.422,96.400 33.205 C 96.400 32.987,97.120 32.694,98.000 32.554 C 98.880 32.413,99.600 32.141,99.600 31.949 C 99.600 31.757,99.849 31.600,100.154 31.600 C 100.459 31.600,101.224 31.331,101.854 31.002 C 102.484 30.674,103.390 30.404,103.867 30.402 C 104.343 30.401,104.796 30.212,104.873 29.982 C 104.949 29.752,105.414 29.534,105.906 29.497 C 106.398 29.460,106.800 29.301,106.800 29.144 C 106.800 28.986,107.792 28.734,109.005 28.582 C 110.218 28.430,111.309 28.148,111.429 27.953 C 111.549 27.759,112.087 27.600,112.624 27.600 C 113.161 27.600,113.600 27.438,113.600 27.239 C 113.600 27.041,114.680 26.753,116.001 26.600 C 117.321 26.447,118.502 26.159,118.624 25.961 C 118.747 25.762,119.276 25.600,119.800 25.600 C 120.324 25.600,120.853 25.438,120.975 25.241 C 121.097 25.043,122.458 24.755,123.998 24.600 C 125.539 24.445,126.800 24.157,126.800 23.959 C 126.800 23.762,127.610 23.600,128.600 23.600 C 129.590 23.600,130.400 23.445,130.400 23.256 C 130.400 22.890,134.211 22.313,136.169 22.382 C 136.812 22.405,137.451 22.241,137.589 22.018 C 137.727 21.795,138.686 21.581,139.720 21.541 C 140.754 21.502,141.600 21.319,141.600 21.135 C 141.600 20.951,142.669 20.800,143.976 20.800 C 145.283 20.800,146.442 20.655,146.552 20.478 C 146.661 20.301,147.789 20.206,149.059 20.267 C 150.328 20.328,151.475 20.202,151.607 19.988 C 151.739 19.775,153.187 19.581,154.824 19.559 C 156.461 19.536,157.980 19.376,158.200 19.204 C 158.666 18.838,169.415 18.294,174.464 18.380 C 176.515 18.415,178.034 18.268,178.188 18.020 C 178.506 17.505,221.200 17.425,221.200 17.939 M97.094 121.343 C 96.266 121.814,95.287 122.650,94.917 123.200 C 94.548 123.750,94.075 124.317,93.866 124.459 C 93.657 124.602,93.584 125.097,93.705 125.559 C 93.826 126.022,93.762 126.400,93.563 126.400 C 93.147 126.400,93.079 129.295,93.451 131.155 C 93.596 131.882,94.542 133.291,95.699 134.505 L 97.696 136.600 102.048 136.735 L 106.400 136.871 106.400 186.235 C 106.400 218.878,106.535 235.600,106.800 235.600 C 107.020 235.600,107.200 235.862,107.200 236.182 C 107.200 236.936,109.064 238.800,109.818 238.800 C 110.138 238.800,110.401 238.935,110.403 239.100 C 110.416 240.312,116.667 240.924,117.596 239.804 C 117.868 239.477,118.231 239.296,118.403 239.402 C 118.575 239.508,118.824 239.315,118.955 238.972 C 119.087 238.630,119.348 238.445,119.537 238.561 C 119.948 238.815,121.637 236.970,121.301 236.634 C 121.172 236.505,121.386 236.400,121.776 236.400 C 122.236 236.400,122.406 236.193,122.260 235.813 C 122.136 235.490,122.207 235.119,122.417 234.989 C 122.657 234.841,122.800 216.505,122.800 185.776 L 122.800 136.800 200.000 136.800 L 277.200 136.800 277.202 185.700 C 277.204 225.736,277.302 234.786,277.740 235.625 C 278.526 237.132,280.067 238.800,280.672 238.800 C 280.962 238.800,281.201 238.935,281.203 239.100 C 281.210 239.714,283.425 240.400,285.400 240.400 C 287.375 240.400,289.590 239.714,289.597 239.100 C 289.599 238.935,289.862 238.800,290.182 238.800 C 290.936 238.800,292.800 236.936,292.800 236.182 C 292.800 235.862,292.980 235.600,293.200 235.600 C 293.465 235.600,293.600 218.867,293.600 186.200 L 293.600 136.800 297.600 136.800 C 300.149 136.800,301.600 136.646,301.600 136.376 C 301.600 136.143,301.779 136.063,301.997 136.198 C 302.522 136.522,306.232 132.794,306.388 131.786 C 306.721 129.640,306.501 124.634,306.068 124.489 C 305.810 124.403,305.600 124.161,305.600 123.950 C 305.600 123.358,304.073 121.858,303.364 121.754 C 303.015 121.702,302.416 121.377,302.033 121.030 C 301.403 120.460,291.713 120.404,199.969 120.443 L 98.600 120.485 97.094 121.343 M253.800 146.000 C 253.664 146.220,253.036 146.400,252.405 146.400 C 251.774 146.400,250.987 146.670,250.657 147.000 C 250.327 147.330,249.946 147.600,249.809 147.600 C 249.673 147.600,239.833 157.328,227.942 169.217 C 212.784 184.374,206.185 190.720,205.862 190.451 C 205.608 190.240,202.307 186.992,198.526 183.233 C 193.297 178.035,191.412 176.400,190.650 176.400 C 190.098 176.400,189.536 176.220,189.400 176.000 C 189.097 175.510,185.600 175.462,185.600 175.948 C 185.600 176.139,184.968 176.398,184.196 176.523 C 182.773 176.754,181.433 177.699,181.886 178.152 C 182.022 178.289,181.935 178.400,181.693 178.400 C 181.104 178.400,171.609 187.876,171.903 188.170 C 172.030 188.296,171.933 188.400,171.688 188.400 C 171.131 188.400,148.400 211.084,148.400 211.641 C 148.400 211.864,148.265 211.975,148.100 211.887 C 147.812 211.733,146.400 212.989,146.400 213.400 C 146.400 213.510,146.310 213.600,146.200 213.600 C 145.908 213.600,144.507 214.965,144.557 215.200 C 144.581 215.310,144.465 215.445,144.300 215.500 C 143.860 215.647,142.507 216.966,142.557 217.200 C 142.581 217.310,142.465 217.445,142.300 217.500 C 141.860 217.647,140.507 218.966,140.557 219.200 C 140.581 219.310,140.506 219.400,140.390 219.400 C 139.732 219.400,137.200 222.602,137.200 223.434 C 137.200 223.965,137.020 224.400,136.800 224.400 C 136.296 224.400,136.267 229.071,136.769 229.381 C 136.972 229.506,137.247 230.102,137.380 230.705 C 137.758 232.419,140.084 234.434,141.979 234.688 C 142.870 234.807,143.600 235.062,143.600 235.253 C 143.600 235.444,144.230 235.600,145.000 235.600 C 145.770 235.600,146.400 235.420,146.400 235.200 C 146.400 234.980,146.927 234.800,147.571 234.800 C 148.216 234.800,149.013 234.530,149.343 234.200 C 149.673 233.870,150.069 233.600,150.224 233.600 C 150.781 233.600,160.197 223.893,160.067 223.452 C 159.993 223.203,160.067 223.133,160.230 223.296 C 160.393 223.460,166.555 217.562,173.924 210.191 C 181.293 202.820,187.382 196.837,187.454 196.895 C 187.527 196.953,190.711 200.105,194.530 203.900 C 199.214 208.554,201.755 210.800,202.337 210.800 C 202.812 210.800,203.200 210.980,203.200 211.200 C 203.200 211.918,209.475 211.703,209.754 210.975 C 209.886 210.631,210.164 210.454,210.370 210.582 C 211.056 211.006,262.800 158.895,262.800 157.780 C 262.800 157.241,262.980 156.800,263.200 156.800 C 263.704 156.800,263.733 152.129,263.231 151.819 C 263.028 151.694,262.749 151.078,262.611 150.452 C 262.316 149.107,259.724 146.667,258.919 146.976 C 258.610 147.094,258.468 147.013,258.603 146.795 C 258.739 146.575,258.404 146.400,257.847 146.400 C 257.297 146.400,256.736 146.220,256.600 146.000 C 256.464 145.780,255.834 145.600,255.200 145.600 C 254.566 145.600,253.936 145.780,253.800 146.000 M97.592 245.070 C 93.619 247.770,91.848 253.161,94.044 255.868 C 94.413 256.323,94.432 256.453,94.100 256.253 C 93.825 256.088,93.600 256.143,93.600 256.376 C 93.600 256.609,93.780 256.800,94.000 256.800 C 94.220 256.800,94.400 256.988,94.400 257.217 C 94.400 257.759,95.931 259.400,96.437 259.400 C 96.653 259.400,96.996 259.670,97.200 260.000 C 97.523 260.523,101.294 260.614,126.488 260.708 L 155.405 260.815 155.262 262.608 C 155.184 263.593,154.938 264.400,154.717 264.400 C 154.496 264.400,154.409 264.648,154.526 264.950 C 154.642 265.253,154.471 266.013,154.145 266.640 C 153.820 267.267,153.637 268.100,153.739 268.490 C 153.841 268.880,153.762 269.300,153.562 269.423 C 153.363 269.546,153.200 270.267,153.200 271.024 C 153.200 271.781,153.032 272.400,152.827 272.400 C 152.621 272.400,152.469 272.934,152.487 273.586 C 152.506 274.239,152.334 275.004,152.105 275.286 C 151.876 275.569,151.561 276.925,151.405 278.301 C 151.249 279.676,150.959 280.902,150.761 281.024 C 150.562 281.147,150.400 281.766,150.400 282.400 C 150.400 283.034,150.230 283.658,150.023 283.786 C 149.816 283.914,149.523 285.274,149.372 286.809 C 149.220 288.344,148.940 289.600,148.748 289.600 C 148.557 289.600,148.400 290.230,148.400 291.000 C 148.400 291.770,148.234 292.400,148.032 292.400 C 147.829 292.400,147.538 293.573,147.385 295.006 C 147.231 296.439,146.947 297.709,146.753 297.829 C 146.559 297.949,146.400 298.566,146.400 299.200 C 146.400 299.834,146.238 300.453,146.041 300.575 C 145.843 300.697,145.555 302.058,145.400 303.598 C 145.245 305.139,144.957 306.400,144.759 306.400 C 144.562 306.400,144.400 306.929,144.400 307.576 C 144.400 308.223,144.250 308.846,144.066 308.959 C 143.585 309.257,143.529 315.600,144.007 315.600 C 144.223 315.600,144.400 315.870,144.400 316.200 C 144.400 316.530,144.559 316.800,144.753 316.800 C 144.948 316.800,145.201 317.159,145.315 317.598 C 145.430 318.037,145.856 318.523,146.262 318.679 C 146.668 318.834,147.297 319.327,147.659 319.774 C 148.578 320.907,155.360 321.012,156.171 319.906 C 156.450 319.525,156.788 319.321,156.921 319.454 C 157.279 319.812,158.184 318.776,158.984 317.090 C 159.373 316.271,159.842 315.600,160.026 315.600 C 160.210 315.600,160.483 314.516,160.633 313.191 C 160.783 311.866,161.062 310.686,161.253 310.567 C 161.444 310.449,161.600 309.733,161.600 308.976 C 161.600 308.219,161.759 307.600,161.953 307.600 C 162.148 307.600,162.432 306.432,162.585 305.004 C 162.738 303.577,163.029 302.306,163.231 302.181 C 163.434 302.055,163.600 301.434,163.600 300.800 C 163.600 300.166,163.762 299.547,163.959 299.425 C 164.157 299.303,164.445 297.942,164.600 296.402 C 164.755 294.861,165.043 293.600,165.241 293.600 C 165.438 293.600,165.600 292.970,165.600 292.200 C 165.600 291.430,165.766 290.800,165.968 290.800 C 166.171 290.800,166.462 289.627,166.615 288.194 C 166.769 286.761,167.053 285.491,167.247 285.371 C 167.441 285.251,167.600 284.533,167.600 283.776 C 167.600 283.019,167.762 282.400,167.959 282.400 C 168.157 282.400,168.445 281.140,168.600 279.600 C 168.755 278.060,169.043 276.800,169.241 276.800 C 169.438 276.800,169.600 276.271,169.600 275.624 C 169.600 274.977,169.762 274.347,169.959 274.225 C 170.157 274.103,170.445 272.742,170.600 271.202 C 170.755 269.661,171.043 268.400,171.241 268.400 C 171.438 268.400,171.600 267.770,171.600 267.000 C 171.600 266.230,171.780 265.600,172.000 265.600 C 172.220 265.600,172.400 265.082,172.400 264.450 C 172.400 263.818,172.513 262.738,172.650 262.050 L 172.900 260.800 200.003 260.800 L 227.107 260.800 227.348 261.700 C 227.481 262.195,227.592 263.275,227.595 264.100 C 227.598 264.925,227.780 265.600,228.000 265.600 C 228.220 265.600,228.400 266.230,228.400 267.000 C 228.400 267.770,228.580 268.400,228.800 268.400 C 229.020 268.400,229.201 268.985,229.202 269.700 C 229.204 270.415,229.466 271.501,229.786 272.113 C 230.105 272.725,230.194 273.120,229.983 272.990 C 229.772 272.859,229.600 273.018,229.600 273.343 C 229.600 273.668,229.791 273.997,230.024 274.075 C 230.257 274.152,230.465 274.797,230.485 275.508 C 230.505 276.219,230.674 276.800,230.861 276.800 C 231.047 276.800,231.200 277.419,231.200 278.176 C 231.200 278.933,231.350 279.645,231.533 279.759 C 231.717 279.872,231.786 280.513,231.688 281.182 C 231.580 281.917,231.686 282.400,231.955 282.400 C 232.200 282.400,232.400 283.019,232.400 283.776 C 232.400 284.533,232.580 285.264,232.800 285.400 C 233.020 285.536,233.200 286.166,233.200 286.800 C 233.200 287.434,233.350 288.045,233.533 288.159 C 233.717 288.272,233.786 288.913,233.688 289.582 C 233.580 290.317,233.686 290.800,233.955 290.800 C 234.200 290.800,234.400 291.430,234.400 292.200 C 234.400 292.970,234.562 293.600,234.759 293.600 C 234.957 293.600,235.245 294.861,235.400 296.402 C 235.555 297.942,235.843 299.303,236.041 299.425 C 236.238 299.547,236.400 300.166,236.400 300.800 C 236.400 301.434,236.566 302.055,236.769 302.181 C 236.971 302.306,237.262 303.577,237.415 305.004 C 237.568 306.432,237.852 307.600,238.047 307.600 C 238.241 307.600,238.400 308.219,238.400 308.976 C 238.400 309.733,238.561 310.452,238.758 310.574 C 239.083 310.775,239.559 313.155,239.624 314.900 C 239.638 315.285,239.819 315.600,240.025 315.600 C 240.231 315.600,240.400 315.870,240.400 316.200 C 240.400 316.530,240.580 316.800,240.800 316.800 C 241.020 316.800,241.200 317.042,241.200 317.339 C 241.200 320.227,250.376 322.196,252.371 319.736 C 252.717 319.310,253.332 318.834,253.738 318.679 C 254.144 318.523,254.570 318.037,254.685 317.598 C 254.799 317.159,255.063 316.800,255.270 316.800 C 255.478 316.800,255.535 316.619,255.398 316.397 C 255.261 316.176,255.411 315.894,255.731 315.771 C 256.540 315.461,256.631 309.865,255.846 308.744 C 255.539 308.306,255.380 307.600,255.491 307.174 C 255.602 306.748,255.511 306.400,255.287 306.400 C 255.064 306.400,254.755 305.139,254.600 303.598 C 254.445 302.058,254.157 300.697,253.959 300.575 C 253.762 300.453,253.600 299.733,253.600 298.976 C 253.600 298.219,253.420 297.600,253.200 297.600 C 252.980 297.600,252.800 296.970,252.800 296.200 C 252.800 295.430,252.651 294.800,252.469 294.800 C 252.287 294.800,252.218 294.260,252.315 293.600 C 252.420 292.880,252.313 292.400,252.045 292.400 C 251.800 292.400,251.600 291.770,251.600 291.000 C 251.600 290.230,251.443 289.600,251.252 289.600 C 251.060 289.600,250.780 288.344,250.628 286.809 C 250.477 285.274,250.184 283.914,249.977 283.786 C 249.770 283.658,249.600 282.933,249.600 282.176 C 249.600 281.419,249.420 280.800,249.200 280.800 C 248.980 280.800,248.800 280.260,248.800 279.600 C 248.800 278.940,248.640 278.400,248.444 278.400 C 248.248 278.400,248.148 277.775,248.222 277.010 C 248.296 276.246,248.186 275.515,247.978 275.387 C 247.770 275.258,247.600 274.533,247.600 273.776 C 247.600 273.019,247.439 272.400,247.242 272.400 C 246.897 272.400,246.408 269.931,246.394 268.120 C 246.391 267.636,246.211 267.130,245.994 266.996 C 245.777 266.862,245.600 266.223,245.600 265.576 C 245.600 264.929,245.438 264.400,245.240 264.400 C 245.042 264.400,244.816 263.593,244.738 262.608 L 244.595 260.815 273.564 260.708 C 296.307 260.623,302.569 260.493,302.700 260.100 C 302.792 259.825,303.200 259.600,303.606 259.600 C 304.013 259.600,304.460 259.240,304.600 258.800 C 304.740 258.360,305.022 258.000,305.227 258.000 C 305.432 258.000,305.600 257.745,305.600 257.433 C 305.600 257.122,305.825 256.792,306.100 256.700 C 306.453 256.582,306.600 255.423,306.600 252.761 L 306.600 248.988 304.400 246.794 L 302.200 244.600 200.392 244.498 C 105.470 244.402,98.517 244.441,97.592 245.070 " stroke="none" fill="#ffffff" fill-rule="evenodd"></path><path id="path1" d="" stroke="none" fill="#80848c" fill-rule="evenodd"></path><path id="path2" d="" stroke="none" fill="#80848c" fill-rule="evenodd"></path><path id="path3" d="" stroke="none" fill="#80848c" fill-rule="evenodd"></path><path id="path4" d="" stroke="none" fill="#80848c" fill-rule="evenodd"></path></g></svg>